%TF.GenerationSoftware,KiCad,Pcbnew,9.0.3-9.0.3-0~ubuntu24.04.1*%
%TF.CreationDate,2025-09-10T15:10:14+02:00*%
%TF.ProjectId,debix_rpi_22,64656269-785f-4727-9069-5f32322e6b69,rev?*%
%TF.SameCoordinates,Original*%
%TF.FileFunction,Other,ECO2*%
%FSLAX46Y46*%
G04 Gerber Fmt 4.6, Leading zero omitted, Abs format (unit mm)*
G04 Created by KiCad (PCBNEW 9.0.3-9.0.3-0~ubuntu24.04.1) date 2025-09-10 15:10:14*
%MOMM*%
%LPD*%
G01*
G04 APERTURE LIST*
%ADD10C,0.100000*%
%ADD11C,0.150000*%
G04 APERTURE END LIST*
D10*
X117800000Y-129500000D02*
X117800000Y-142000000D01*
X180200000Y-129500000D02*
X172200000Y-129500000D01*
X117800000Y-142000000D02*
X109800000Y-142000000D01*
X109800000Y-142000000D02*
X109800000Y-129500000D01*
X180200000Y-141000000D02*
X172200000Y-141000000D01*
X109800000Y-129500000D02*
X117800000Y-129500000D01*
X172200000Y-141000000D02*
X172200000Y-129500000D01*
X180200000Y-141000000D02*
X180200000Y-129500000D01*
D11*
X176322200Y-127910839D02*
X176369819Y-127767982D01*
X176369819Y-127767982D02*
X176369819Y-127529887D01*
X176369819Y-127529887D02*
X176322200Y-127434649D01*
X176322200Y-127434649D02*
X176274580Y-127387030D01*
X176274580Y-127387030D02*
X176179342Y-127339411D01*
X176179342Y-127339411D02*
X176084104Y-127339411D01*
X176084104Y-127339411D02*
X175988866Y-127387030D01*
X175988866Y-127387030D02*
X175941247Y-127434649D01*
X175941247Y-127434649D02*
X175893628Y-127529887D01*
X175893628Y-127529887D02*
X175846009Y-127720363D01*
X175846009Y-127720363D02*
X175798390Y-127815601D01*
X175798390Y-127815601D02*
X175750771Y-127863220D01*
X175750771Y-127863220D02*
X175655533Y-127910839D01*
X175655533Y-127910839D02*
X175560295Y-127910839D01*
X175560295Y-127910839D02*
X175465057Y-127863220D01*
X175465057Y-127863220D02*
X175417438Y-127815601D01*
X175417438Y-127815601D02*
X175369819Y-127720363D01*
X175369819Y-127720363D02*
X175369819Y-127482268D01*
X175369819Y-127482268D02*
X175417438Y-127339411D01*
X175703152Y-127053696D02*
X175703152Y-126672744D01*
X175369819Y-126910839D02*
X176226961Y-126910839D01*
X176226961Y-126910839D02*
X176322200Y-126863220D01*
X176322200Y-126863220D02*
X176369819Y-126767982D01*
X176369819Y-126767982D02*
X176369819Y-126672744D01*
X176369819Y-126339410D02*
X175703152Y-126339410D01*
X175369819Y-126339410D02*
X175417438Y-126387029D01*
X175417438Y-126387029D02*
X175465057Y-126339410D01*
X175465057Y-126339410D02*
X175417438Y-126291791D01*
X175417438Y-126291791D02*
X175369819Y-126339410D01*
X175369819Y-126339410D02*
X175465057Y-126339410D01*
X175703152Y-126006077D02*
X175703152Y-125625125D01*
X176369819Y-125863220D02*
X175512676Y-125863220D01*
X175512676Y-125863220D02*
X175417438Y-125815601D01*
X175417438Y-125815601D02*
X175369819Y-125720363D01*
X175369819Y-125720363D02*
X175369819Y-125625125D01*
X175703152Y-125434648D02*
X175703152Y-125053696D01*
X176369819Y-125291791D02*
X175512676Y-125291791D01*
X175512676Y-125291791D02*
X175417438Y-125244172D01*
X175417438Y-125244172D02*
X175369819Y-125148934D01*
X175369819Y-125148934D02*
X175369819Y-125053696D01*
X176322200Y-124339410D02*
X176369819Y-124434648D01*
X176369819Y-124434648D02*
X176369819Y-124625124D01*
X176369819Y-124625124D02*
X176322200Y-124720362D01*
X176322200Y-124720362D02*
X176226961Y-124767981D01*
X176226961Y-124767981D02*
X175846009Y-124767981D01*
X175846009Y-124767981D02*
X175750771Y-124720362D01*
X175750771Y-124720362D02*
X175703152Y-124625124D01*
X175703152Y-124625124D02*
X175703152Y-124434648D01*
X175703152Y-124434648D02*
X175750771Y-124339410D01*
X175750771Y-124339410D02*
X175846009Y-124291791D01*
X175846009Y-124291791D02*
X175941247Y-124291791D01*
X175941247Y-124291791D02*
X176036485Y-124767981D01*
X175703152Y-123863219D02*
X176369819Y-123863219D01*
X175798390Y-123863219D02*
X175750771Y-123815600D01*
X175750771Y-123815600D02*
X175703152Y-123720362D01*
X175703152Y-123720362D02*
X175703152Y-123577505D01*
X175703152Y-123577505D02*
X175750771Y-123482267D01*
X175750771Y-123482267D02*
X175846009Y-123434648D01*
X175846009Y-123434648D02*
X176369819Y-123434648D01*
X176322200Y-122577505D02*
X176369819Y-122672743D01*
X176369819Y-122672743D02*
X176369819Y-122863219D01*
X176369819Y-122863219D02*
X176322200Y-122958457D01*
X176322200Y-122958457D02*
X176226961Y-123006076D01*
X176226961Y-123006076D02*
X175846009Y-123006076D01*
X175846009Y-123006076D02*
X175750771Y-122958457D01*
X175750771Y-122958457D02*
X175703152Y-122863219D01*
X175703152Y-122863219D02*
X175703152Y-122672743D01*
X175703152Y-122672743D02*
X175750771Y-122577505D01*
X175750771Y-122577505D02*
X175846009Y-122529886D01*
X175846009Y-122529886D02*
X175941247Y-122529886D01*
X175941247Y-122529886D02*
X176036485Y-123006076D01*
X176369819Y-122101314D02*
X175703152Y-122101314D01*
X175893628Y-122101314D02*
X175798390Y-122053695D01*
X175798390Y-122053695D02*
X175750771Y-122006076D01*
X175750771Y-122006076D02*
X175703152Y-121910838D01*
X175703152Y-121910838D02*
X175703152Y-121815600D01*
X175369819Y-120529885D02*
X175369819Y-120434647D01*
X175369819Y-120434647D02*
X175417438Y-120339409D01*
X175417438Y-120339409D02*
X175465057Y-120291790D01*
X175465057Y-120291790D02*
X175560295Y-120244171D01*
X175560295Y-120244171D02*
X175750771Y-120196552D01*
X175750771Y-120196552D02*
X175988866Y-120196552D01*
X175988866Y-120196552D02*
X176179342Y-120244171D01*
X176179342Y-120244171D02*
X176274580Y-120291790D01*
X176274580Y-120291790D02*
X176322200Y-120339409D01*
X176322200Y-120339409D02*
X176369819Y-120434647D01*
X176369819Y-120434647D02*
X176369819Y-120529885D01*
X176369819Y-120529885D02*
X176322200Y-120625123D01*
X176322200Y-120625123D02*
X176274580Y-120672742D01*
X176274580Y-120672742D02*
X176179342Y-120720361D01*
X176179342Y-120720361D02*
X175988866Y-120767980D01*
X175988866Y-120767980D02*
X175750771Y-120767980D01*
X175750771Y-120767980D02*
X175560295Y-120720361D01*
X175560295Y-120720361D02*
X175465057Y-120672742D01*
X175465057Y-120672742D02*
X175417438Y-120625123D01*
X175417438Y-120625123D02*
X175369819Y-120529885D01*
X176274580Y-119767980D02*
X176322200Y-119720361D01*
X176322200Y-119720361D02*
X176369819Y-119767980D01*
X176369819Y-119767980D02*
X176322200Y-119815599D01*
X176322200Y-119815599D02*
X176274580Y-119767980D01*
X176274580Y-119767980D02*
X176369819Y-119767980D01*
X175465057Y-119339409D02*
X175417438Y-119291790D01*
X175417438Y-119291790D02*
X175369819Y-119196552D01*
X175369819Y-119196552D02*
X175369819Y-118958457D01*
X175369819Y-118958457D02*
X175417438Y-118863219D01*
X175417438Y-118863219D02*
X175465057Y-118815600D01*
X175465057Y-118815600D02*
X175560295Y-118767981D01*
X175560295Y-118767981D02*
X175655533Y-118767981D01*
X175655533Y-118767981D02*
X175798390Y-118815600D01*
X175798390Y-118815600D02*
X176369819Y-119387028D01*
X176369819Y-119387028D02*
X176369819Y-118767981D01*
X175369819Y-117863219D02*
X175369819Y-118339409D01*
X175369819Y-118339409D02*
X175846009Y-118387028D01*
X175846009Y-118387028D02*
X175798390Y-118339409D01*
X175798390Y-118339409D02*
X175750771Y-118244171D01*
X175750771Y-118244171D02*
X175750771Y-118006076D01*
X175750771Y-118006076D02*
X175798390Y-117910838D01*
X175798390Y-117910838D02*
X175846009Y-117863219D01*
X175846009Y-117863219D02*
X175941247Y-117815600D01*
X175941247Y-117815600D02*
X176179342Y-117815600D01*
X176179342Y-117815600D02*
X176274580Y-117863219D01*
X176274580Y-117863219D02*
X176322200Y-117910838D01*
X176322200Y-117910838D02*
X176369819Y-118006076D01*
X176369819Y-118006076D02*
X176369819Y-118244171D01*
X176369819Y-118244171D02*
X176322200Y-118339409D01*
X176322200Y-118339409D02*
X176274580Y-118387028D01*
X176369819Y-117482266D02*
X175703152Y-116958457D01*
X175703152Y-117482266D02*
X176369819Y-116958457D01*
X175798390Y-116434647D02*
X175750771Y-116529885D01*
X175750771Y-116529885D02*
X175703152Y-116577504D01*
X175703152Y-116577504D02*
X175607914Y-116625123D01*
X175607914Y-116625123D02*
X175560295Y-116625123D01*
X175560295Y-116625123D02*
X175465057Y-116577504D01*
X175465057Y-116577504D02*
X175417438Y-116529885D01*
X175417438Y-116529885D02*
X175369819Y-116434647D01*
X175369819Y-116434647D02*
X175369819Y-116244171D01*
X175369819Y-116244171D02*
X175417438Y-116148933D01*
X175417438Y-116148933D02*
X175465057Y-116101314D01*
X175465057Y-116101314D02*
X175560295Y-116053695D01*
X175560295Y-116053695D02*
X175607914Y-116053695D01*
X175607914Y-116053695D02*
X175703152Y-116101314D01*
X175703152Y-116101314D02*
X175750771Y-116148933D01*
X175750771Y-116148933D02*
X175798390Y-116244171D01*
X175798390Y-116244171D02*
X175798390Y-116434647D01*
X175798390Y-116434647D02*
X175846009Y-116529885D01*
X175846009Y-116529885D02*
X175893628Y-116577504D01*
X175893628Y-116577504D02*
X175988866Y-116625123D01*
X175988866Y-116625123D02*
X176179342Y-116625123D01*
X176179342Y-116625123D02*
X176274580Y-116577504D01*
X176274580Y-116577504D02*
X176322200Y-116529885D01*
X176322200Y-116529885D02*
X176369819Y-116434647D01*
X176369819Y-116434647D02*
X176369819Y-116244171D01*
X176369819Y-116244171D02*
X176322200Y-116148933D01*
X176322200Y-116148933D02*
X176274580Y-116101314D01*
X176274580Y-116101314D02*
X176179342Y-116053695D01*
X176179342Y-116053695D02*
X175988866Y-116053695D01*
X175988866Y-116053695D02*
X175893628Y-116101314D01*
X175893628Y-116101314D02*
X175846009Y-116148933D01*
X175846009Y-116148933D02*
X175798390Y-116244171D01*
X176369819Y-115720361D02*
X175703152Y-115196552D01*
X175703152Y-115720361D02*
X176369819Y-115196552D01*
X176369819Y-114291790D02*
X176369819Y-114863218D01*
X176369819Y-114577504D02*
X175369819Y-114577504D01*
X175369819Y-114577504D02*
X175512676Y-114672742D01*
X175512676Y-114672742D02*
X175607914Y-114767980D01*
X175607914Y-114767980D02*
X175655533Y-114863218D01*
X176369819Y-113339409D02*
X176369819Y-113910837D01*
X176369819Y-113625123D02*
X175369819Y-113625123D01*
X175369819Y-113625123D02*
X175512676Y-113720361D01*
X175512676Y-113720361D02*
X175607914Y-113815599D01*
X175607914Y-113815599D02*
X175655533Y-113910837D01*
X176274580Y-112910837D02*
X176322200Y-112863218D01*
X176322200Y-112863218D02*
X176369819Y-112910837D01*
X176369819Y-112910837D02*
X176322200Y-112958456D01*
X176322200Y-112958456D02*
X176274580Y-112910837D01*
X176274580Y-112910837D02*
X176369819Y-112910837D01*
X175369819Y-111958457D02*
X175369819Y-112434647D01*
X175369819Y-112434647D02*
X175846009Y-112482266D01*
X175846009Y-112482266D02*
X175798390Y-112434647D01*
X175798390Y-112434647D02*
X175750771Y-112339409D01*
X175750771Y-112339409D02*
X175750771Y-112101314D01*
X175750771Y-112101314D02*
X175798390Y-112006076D01*
X175798390Y-112006076D02*
X175846009Y-111958457D01*
X175846009Y-111958457D02*
X175941247Y-111910838D01*
X175941247Y-111910838D02*
X176179342Y-111910838D01*
X176179342Y-111910838D02*
X176274580Y-111958457D01*
X176274580Y-111958457D02*
X176322200Y-112006076D01*
X176322200Y-112006076D02*
X176369819Y-112101314D01*
X176369819Y-112101314D02*
X176369819Y-112339409D01*
X176369819Y-112339409D02*
X176322200Y-112434647D01*
X176322200Y-112434647D02*
X176274580Y-112482266D01*
X176369819Y-111482266D02*
X175703152Y-111482266D01*
X175798390Y-111482266D02*
X175750771Y-111434647D01*
X175750771Y-111434647D02*
X175703152Y-111339409D01*
X175703152Y-111339409D02*
X175703152Y-111196552D01*
X175703152Y-111196552D02*
X175750771Y-111101314D01*
X175750771Y-111101314D02*
X175846009Y-111053695D01*
X175846009Y-111053695D02*
X176369819Y-111053695D01*
X175846009Y-111053695D02*
X175750771Y-111006076D01*
X175750771Y-111006076D02*
X175703152Y-110910838D01*
X175703152Y-110910838D02*
X175703152Y-110767981D01*
X175703152Y-110767981D02*
X175750771Y-110672742D01*
X175750771Y-110672742D02*
X175846009Y-110625123D01*
X175846009Y-110625123D02*
X176369819Y-110625123D01*
X176369819Y-110148933D02*
X175703152Y-110148933D01*
X175798390Y-110148933D02*
X175750771Y-110101314D01*
X175750771Y-110101314D02*
X175703152Y-110006076D01*
X175703152Y-110006076D02*
X175703152Y-109863219D01*
X175703152Y-109863219D02*
X175750771Y-109767981D01*
X175750771Y-109767981D02*
X175846009Y-109720362D01*
X175846009Y-109720362D02*
X176369819Y-109720362D01*
X175846009Y-109720362D02*
X175750771Y-109672743D01*
X175750771Y-109672743D02*
X175703152Y-109577505D01*
X175703152Y-109577505D02*
X175703152Y-109434648D01*
X175703152Y-109434648D02*
X175750771Y-109339409D01*
X175750771Y-109339409D02*
X175846009Y-109291790D01*
X175846009Y-109291790D02*
X176369819Y-109291790D01*
X176322200Y-108767981D02*
X176369819Y-108767981D01*
X176369819Y-108767981D02*
X176465057Y-108815600D01*
X176465057Y-108815600D02*
X176512676Y-108863219D01*
X175369819Y-107387029D02*
X175369819Y-107291791D01*
X175369819Y-107291791D02*
X175417438Y-107196553D01*
X175417438Y-107196553D02*
X175465057Y-107148934D01*
X175465057Y-107148934D02*
X175560295Y-107101315D01*
X175560295Y-107101315D02*
X175750771Y-107053696D01*
X175750771Y-107053696D02*
X175988866Y-107053696D01*
X175988866Y-107053696D02*
X176179342Y-107101315D01*
X176179342Y-107101315D02*
X176274580Y-107148934D01*
X176274580Y-107148934D02*
X176322200Y-107196553D01*
X176322200Y-107196553D02*
X176369819Y-107291791D01*
X176369819Y-107291791D02*
X176369819Y-107387029D01*
X176369819Y-107387029D02*
X176322200Y-107482267D01*
X176322200Y-107482267D02*
X176274580Y-107529886D01*
X176274580Y-107529886D02*
X176179342Y-107577505D01*
X176179342Y-107577505D02*
X175988866Y-107625124D01*
X175988866Y-107625124D02*
X175750771Y-107625124D01*
X175750771Y-107625124D02*
X175560295Y-107577505D01*
X175560295Y-107577505D02*
X175465057Y-107529886D01*
X175465057Y-107529886D02*
X175417438Y-107482267D01*
X175417438Y-107482267D02*
X175369819Y-107387029D01*
X176274580Y-106625124D02*
X176322200Y-106577505D01*
X176322200Y-106577505D02*
X176369819Y-106625124D01*
X176369819Y-106625124D02*
X176322200Y-106672743D01*
X176322200Y-106672743D02*
X176274580Y-106625124D01*
X176274580Y-106625124D02*
X176369819Y-106625124D01*
X175369819Y-106244172D02*
X175369819Y-105625125D01*
X175369819Y-105625125D02*
X175750771Y-105958458D01*
X175750771Y-105958458D02*
X175750771Y-105815601D01*
X175750771Y-105815601D02*
X175798390Y-105720363D01*
X175798390Y-105720363D02*
X175846009Y-105672744D01*
X175846009Y-105672744D02*
X175941247Y-105625125D01*
X175941247Y-105625125D02*
X176179342Y-105625125D01*
X176179342Y-105625125D02*
X176274580Y-105672744D01*
X176274580Y-105672744D02*
X176322200Y-105720363D01*
X176322200Y-105720363D02*
X176369819Y-105815601D01*
X176369819Y-105815601D02*
X176369819Y-106101315D01*
X176369819Y-106101315D02*
X176322200Y-106196553D01*
X176322200Y-106196553D02*
X176274580Y-106244172D01*
X176369819Y-105196553D02*
X175703152Y-105196553D01*
X175798390Y-105196553D02*
X175750771Y-105148934D01*
X175750771Y-105148934D02*
X175703152Y-105053696D01*
X175703152Y-105053696D02*
X175703152Y-104910839D01*
X175703152Y-104910839D02*
X175750771Y-104815601D01*
X175750771Y-104815601D02*
X175846009Y-104767982D01*
X175846009Y-104767982D02*
X176369819Y-104767982D01*
X175846009Y-104767982D02*
X175750771Y-104720363D01*
X175750771Y-104720363D02*
X175703152Y-104625125D01*
X175703152Y-104625125D02*
X175703152Y-104482268D01*
X175703152Y-104482268D02*
X175750771Y-104387029D01*
X175750771Y-104387029D02*
X175846009Y-104339410D01*
X175846009Y-104339410D02*
X176369819Y-104339410D01*
X176369819Y-103863220D02*
X175703152Y-103863220D01*
X175798390Y-103863220D02*
X175750771Y-103815601D01*
X175750771Y-103815601D02*
X175703152Y-103720363D01*
X175703152Y-103720363D02*
X175703152Y-103577506D01*
X175703152Y-103577506D02*
X175750771Y-103482268D01*
X175750771Y-103482268D02*
X175846009Y-103434649D01*
X175846009Y-103434649D02*
X176369819Y-103434649D01*
X175846009Y-103434649D02*
X175750771Y-103387030D01*
X175750771Y-103387030D02*
X175703152Y-103291792D01*
X175703152Y-103291792D02*
X175703152Y-103148935D01*
X175703152Y-103148935D02*
X175750771Y-103053696D01*
X175750771Y-103053696D02*
X175846009Y-103006077D01*
X175846009Y-103006077D02*
X176369819Y-103006077D01*
X175703152Y-101910839D02*
X175703152Y-101529887D01*
X175369819Y-101767982D02*
X176226961Y-101767982D01*
X176226961Y-101767982D02*
X176322200Y-101720363D01*
X176322200Y-101720363D02*
X176369819Y-101625125D01*
X176369819Y-101625125D02*
X176369819Y-101529887D01*
X176369819Y-101053696D02*
X176322200Y-101148934D01*
X176322200Y-101148934D02*
X176274580Y-101196553D01*
X176274580Y-101196553D02*
X176179342Y-101244172D01*
X176179342Y-101244172D02*
X175893628Y-101244172D01*
X175893628Y-101244172D02*
X175798390Y-101196553D01*
X175798390Y-101196553D02*
X175750771Y-101148934D01*
X175750771Y-101148934D02*
X175703152Y-101053696D01*
X175703152Y-101053696D02*
X175703152Y-100910839D01*
X175703152Y-100910839D02*
X175750771Y-100815601D01*
X175750771Y-100815601D02*
X175798390Y-100767982D01*
X175798390Y-100767982D02*
X175893628Y-100720363D01*
X175893628Y-100720363D02*
X176179342Y-100720363D01*
X176179342Y-100720363D02*
X176274580Y-100767982D01*
X176274580Y-100767982D02*
X176322200Y-100815601D01*
X176322200Y-100815601D02*
X176369819Y-100910839D01*
X176369819Y-100910839D02*
X176369819Y-101053696D01*
X175703152Y-100434648D02*
X175703152Y-100053696D01*
X175369819Y-100291791D02*
X176226961Y-100291791D01*
X176226961Y-100291791D02*
X176322200Y-100244172D01*
X176322200Y-100244172D02*
X176369819Y-100148934D01*
X176369819Y-100148934D02*
X176369819Y-100053696D01*
X176369819Y-99291791D02*
X175846009Y-99291791D01*
X175846009Y-99291791D02*
X175750771Y-99339410D01*
X175750771Y-99339410D02*
X175703152Y-99434648D01*
X175703152Y-99434648D02*
X175703152Y-99625124D01*
X175703152Y-99625124D02*
X175750771Y-99720362D01*
X176322200Y-99291791D02*
X176369819Y-99387029D01*
X176369819Y-99387029D02*
X176369819Y-99625124D01*
X176369819Y-99625124D02*
X176322200Y-99720362D01*
X176322200Y-99720362D02*
X176226961Y-99767981D01*
X176226961Y-99767981D02*
X176131723Y-99767981D01*
X176131723Y-99767981D02*
X176036485Y-99720362D01*
X176036485Y-99720362D02*
X175988866Y-99625124D01*
X175988866Y-99625124D02*
X175988866Y-99387029D01*
X175988866Y-99387029D02*
X175941247Y-99291791D01*
X176369819Y-98672743D02*
X176322200Y-98767981D01*
X176322200Y-98767981D02*
X176226961Y-98815600D01*
X176226961Y-98815600D02*
X175369819Y-98815600D01*
X176369819Y-97529885D02*
X175369819Y-97529885D01*
X176369819Y-97101314D02*
X175846009Y-97101314D01*
X175846009Y-97101314D02*
X175750771Y-97148933D01*
X175750771Y-97148933D02*
X175703152Y-97244171D01*
X175703152Y-97244171D02*
X175703152Y-97387028D01*
X175703152Y-97387028D02*
X175750771Y-97482266D01*
X175750771Y-97482266D02*
X175798390Y-97529885D01*
X176322200Y-96244171D02*
X176369819Y-96339409D01*
X176369819Y-96339409D02*
X176369819Y-96529885D01*
X176369819Y-96529885D02*
X176322200Y-96625123D01*
X176322200Y-96625123D02*
X176226961Y-96672742D01*
X176226961Y-96672742D02*
X175846009Y-96672742D01*
X175846009Y-96672742D02*
X175750771Y-96625123D01*
X175750771Y-96625123D02*
X175703152Y-96529885D01*
X175703152Y-96529885D02*
X175703152Y-96339409D01*
X175703152Y-96339409D02*
X175750771Y-96244171D01*
X175750771Y-96244171D02*
X175846009Y-96196552D01*
X175846009Y-96196552D02*
X175941247Y-96196552D01*
X175941247Y-96196552D02*
X176036485Y-96672742D01*
X176369819Y-95767980D02*
X175703152Y-95767980D01*
X175369819Y-95767980D02*
X175417438Y-95815599D01*
X175417438Y-95815599D02*
X175465057Y-95767980D01*
X175465057Y-95767980D02*
X175417438Y-95720361D01*
X175417438Y-95720361D02*
X175369819Y-95767980D01*
X175369819Y-95767980D02*
X175465057Y-95767980D01*
X175703152Y-94863219D02*
X176512676Y-94863219D01*
X176512676Y-94863219D02*
X176607914Y-94910838D01*
X176607914Y-94910838D02*
X176655533Y-94958457D01*
X176655533Y-94958457D02*
X176703152Y-95053695D01*
X176703152Y-95053695D02*
X176703152Y-95196552D01*
X176703152Y-95196552D02*
X176655533Y-95291790D01*
X176322200Y-94863219D02*
X176369819Y-94958457D01*
X176369819Y-94958457D02*
X176369819Y-95148933D01*
X176369819Y-95148933D02*
X176322200Y-95244171D01*
X176322200Y-95244171D02*
X176274580Y-95291790D01*
X176274580Y-95291790D02*
X176179342Y-95339409D01*
X176179342Y-95339409D02*
X175893628Y-95339409D01*
X175893628Y-95339409D02*
X175798390Y-95291790D01*
X175798390Y-95291790D02*
X175750771Y-95244171D01*
X175750771Y-95244171D02*
X175703152Y-95148933D01*
X175703152Y-95148933D02*
X175703152Y-94958457D01*
X175703152Y-94958457D02*
X175750771Y-94863219D01*
X176369819Y-94387028D02*
X175369819Y-94387028D01*
X176369819Y-93958457D02*
X175846009Y-93958457D01*
X175846009Y-93958457D02*
X175750771Y-94006076D01*
X175750771Y-94006076D02*
X175703152Y-94101314D01*
X175703152Y-94101314D02*
X175703152Y-94244171D01*
X175703152Y-94244171D02*
X175750771Y-94339409D01*
X175750771Y-94339409D02*
X175798390Y-94387028D01*
X175703152Y-93625123D02*
X175703152Y-93244171D01*
X175369819Y-93482266D02*
X176226961Y-93482266D01*
X176226961Y-93482266D02*
X176322200Y-93434647D01*
X176322200Y-93434647D02*
X176369819Y-93339409D01*
X176369819Y-93339409D02*
X176369819Y-93244171D01*
X114422200Y-127960839D02*
X114469819Y-127817982D01*
X114469819Y-127817982D02*
X114469819Y-127579887D01*
X114469819Y-127579887D02*
X114422200Y-127484649D01*
X114422200Y-127484649D02*
X114374580Y-127437030D01*
X114374580Y-127437030D02*
X114279342Y-127389411D01*
X114279342Y-127389411D02*
X114184104Y-127389411D01*
X114184104Y-127389411D02*
X114088866Y-127437030D01*
X114088866Y-127437030D02*
X114041247Y-127484649D01*
X114041247Y-127484649D02*
X113993628Y-127579887D01*
X113993628Y-127579887D02*
X113946009Y-127770363D01*
X113946009Y-127770363D02*
X113898390Y-127865601D01*
X113898390Y-127865601D02*
X113850771Y-127913220D01*
X113850771Y-127913220D02*
X113755533Y-127960839D01*
X113755533Y-127960839D02*
X113660295Y-127960839D01*
X113660295Y-127960839D02*
X113565057Y-127913220D01*
X113565057Y-127913220D02*
X113517438Y-127865601D01*
X113517438Y-127865601D02*
X113469819Y-127770363D01*
X113469819Y-127770363D02*
X113469819Y-127532268D01*
X113469819Y-127532268D02*
X113517438Y-127389411D01*
X113803152Y-127103696D02*
X113803152Y-126722744D01*
X113469819Y-126960839D02*
X114326961Y-126960839D01*
X114326961Y-126960839D02*
X114422200Y-126913220D01*
X114422200Y-126913220D02*
X114469819Y-126817982D01*
X114469819Y-126817982D02*
X114469819Y-126722744D01*
X114469819Y-126389410D02*
X113803152Y-126389410D01*
X113469819Y-126389410D02*
X113517438Y-126437029D01*
X113517438Y-126437029D02*
X113565057Y-126389410D01*
X113565057Y-126389410D02*
X113517438Y-126341791D01*
X113517438Y-126341791D02*
X113469819Y-126389410D01*
X113469819Y-126389410D02*
X113565057Y-126389410D01*
X113803152Y-126056077D02*
X113803152Y-125675125D01*
X114469819Y-125913220D02*
X113612676Y-125913220D01*
X113612676Y-125913220D02*
X113517438Y-125865601D01*
X113517438Y-125865601D02*
X113469819Y-125770363D01*
X113469819Y-125770363D02*
X113469819Y-125675125D01*
X113803152Y-125484648D02*
X113803152Y-125103696D01*
X114469819Y-125341791D02*
X113612676Y-125341791D01*
X113612676Y-125341791D02*
X113517438Y-125294172D01*
X113517438Y-125294172D02*
X113469819Y-125198934D01*
X113469819Y-125198934D02*
X113469819Y-125103696D01*
X114422200Y-124389410D02*
X114469819Y-124484648D01*
X114469819Y-124484648D02*
X114469819Y-124675124D01*
X114469819Y-124675124D02*
X114422200Y-124770362D01*
X114422200Y-124770362D02*
X114326961Y-124817981D01*
X114326961Y-124817981D02*
X113946009Y-124817981D01*
X113946009Y-124817981D02*
X113850771Y-124770362D01*
X113850771Y-124770362D02*
X113803152Y-124675124D01*
X113803152Y-124675124D02*
X113803152Y-124484648D01*
X113803152Y-124484648D02*
X113850771Y-124389410D01*
X113850771Y-124389410D02*
X113946009Y-124341791D01*
X113946009Y-124341791D02*
X114041247Y-124341791D01*
X114041247Y-124341791D02*
X114136485Y-124817981D01*
X113803152Y-123913219D02*
X114469819Y-123913219D01*
X113898390Y-123913219D02*
X113850771Y-123865600D01*
X113850771Y-123865600D02*
X113803152Y-123770362D01*
X113803152Y-123770362D02*
X113803152Y-123627505D01*
X113803152Y-123627505D02*
X113850771Y-123532267D01*
X113850771Y-123532267D02*
X113946009Y-123484648D01*
X113946009Y-123484648D02*
X114469819Y-123484648D01*
X114422200Y-122627505D02*
X114469819Y-122722743D01*
X114469819Y-122722743D02*
X114469819Y-122913219D01*
X114469819Y-122913219D02*
X114422200Y-123008457D01*
X114422200Y-123008457D02*
X114326961Y-123056076D01*
X114326961Y-123056076D02*
X113946009Y-123056076D01*
X113946009Y-123056076D02*
X113850771Y-123008457D01*
X113850771Y-123008457D02*
X113803152Y-122913219D01*
X113803152Y-122913219D02*
X113803152Y-122722743D01*
X113803152Y-122722743D02*
X113850771Y-122627505D01*
X113850771Y-122627505D02*
X113946009Y-122579886D01*
X113946009Y-122579886D02*
X114041247Y-122579886D01*
X114041247Y-122579886D02*
X114136485Y-123056076D01*
X114469819Y-122151314D02*
X113803152Y-122151314D01*
X113993628Y-122151314D02*
X113898390Y-122103695D01*
X113898390Y-122103695D02*
X113850771Y-122056076D01*
X113850771Y-122056076D02*
X113803152Y-121960838D01*
X113803152Y-121960838D02*
X113803152Y-121865600D01*
X113469819Y-120579885D02*
X113469819Y-120484647D01*
X113469819Y-120484647D02*
X113517438Y-120389409D01*
X113517438Y-120389409D02*
X113565057Y-120341790D01*
X113565057Y-120341790D02*
X113660295Y-120294171D01*
X113660295Y-120294171D02*
X113850771Y-120246552D01*
X113850771Y-120246552D02*
X114088866Y-120246552D01*
X114088866Y-120246552D02*
X114279342Y-120294171D01*
X114279342Y-120294171D02*
X114374580Y-120341790D01*
X114374580Y-120341790D02*
X114422200Y-120389409D01*
X114422200Y-120389409D02*
X114469819Y-120484647D01*
X114469819Y-120484647D02*
X114469819Y-120579885D01*
X114469819Y-120579885D02*
X114422200Y-120675123D01*
X114422200Y-120675123D02*
X114374580Y-120722742D01*
X114374580Y-120722742D02*
X114279342Y-120770361D01*
X114279342Y-120770361D02*
X114088866Y-120817980D01*
X114088866Y-120817980D02*
X113850771Y-120817980D01*
X113850771Y-120817980D02*
X113660295Y-120770361D01*
X113660295Y-120770361D02*
X113565057Y-120722742D01*
X113565057Y-120722742D02*
X113517438Y-120675123D01*
X113517438Y-120675123D02*
X113469819Y-120579885D01*
X114374580Y-119817980D02*
X114422200Y-119770361D01*
X114422200Y-119770361D02*
X114469819Y-119817980D01*
X114469819Y-119817980D02*
X114422200Y-119865599D01*
X114422200Y-119865599D02*
X114374580Y-119817980D01*
X114374580Y-119817980D02*
X114469819Y-119817980D01*
X113565057Y-119389409D02*
X113517438Y-119341790D01*
X113517438Y-119341790D02*
X113469819Y-119246552D01*
X113469819Y-119246552D02*
X113469819Y-119008457D01*
X113469819Y-119008457D02*
X113517438Y-118913219D01*
X113517438Y-118913219D02*
X113565057Y-118865600D01*
X113565057Y-118865600D02*
X113660295Y-118817981D01*
X113660295Y-118817981D02*
X113755533Y-118817981D01*
X113755533Y-118817981D02*
X113898390Y-118865600D01*
X113898390Y-118865600D02*
X114469819Y-119437028D01*
X114469819Y-119437028D02*
X114469819Y-118817981D01*
X113469819Y-117913219D02*
X113469819Y-118389409D01*
X113469819Y-118389409D02*
X113946009Y-118437028D01*
X113946009Y-118437028D02*
X113898390Y-118389409D01*
X113898390Y-118389409D02*
X113850771Y-118294171D01*
X113850771Y-118294171D02*
X113850771Y-118056076D01*
X113850771Y-118056076D02*
X113898390Y-117960838D01*
X113898390Y-117960838D02*
X113946009Y-117913219D01*
X113946009Y-117913219D02*
X114041247Y-117865600D01*
X114041247Y-117865600D02*
X114279342Y-117865600D01*
X114279342Y-117865600D02*
X114374580Y-117913219D01*
X114374580Y-117913219D02*
X114422200Y-117960838D01*
X114422200Y-117960838D02*
X114469819Y-118056076D01*
X114469819Y-118056076D02*
X114469819Y-118294171D01*
X114469819Y-118294171D02*
X114422200Y-118389409D01*
X114422200Y-118389409D02*
X114374580Y-118437028D01*
X114469819Y-117532266D02*
X113803152Y-117008457D01*
X113803152Y-117532266D02*
X114469819Y-117008457D01*
X113898390Y-116484647D02*
X113850771Y-116579885D01*
X113850771Y-116579885D02*
X113803152Y-116627504D01*
X113803152Y-116627504D02*
X113707914Y-116675123D01*
X113707914Y-116675123D02*
X113660295Y-116675123D01*
X113660295Y-116675123D02*
X113565057Y-116627504D01*
X113565057Y-116627504D02*
X113517438Y-116579885D01*
X113517438Y-116579885D02*
X113469819Y-116484647D01*
X113469819Y-116484647D02*
X113469819Y-116294171D01*
X113469819Y-116294171D02*
X113517438Y-116198933D01*
X113517438Y-116198933D02*
X113565057Y-116151314D01*
X113565057Y-116151314D02*
X113660295Y-116103695D01*
X113660295Y-116103695D02*
X113707914Y-116103695D01*
X113707914Y-116103695D02*
X113803152Y-116151314D01*
X113803152Y-116151314D02*
X113850771Y-116198933D01*
X113850771Y-116198933D02*
X113898390Y-116294171D01*
X113898390Y-116294171D02*
X113898390Y-116484647D01*
X113898390Y-116484647D02*
X113946009Y-116579885D01*
X113946009Y-116579885D02*
X113993628Y-116627504D01*
X113993628Y-116627504D02*
X114088866Y-116675123D01*
X114088866Y-116675123D02*
X114279342Y-116675123D01*
X114279342Y-116675123D02*
X114374580Y-116627504D01*
X114374580Y-116627504D02*
X114422200Y-116579885D01*
X114422200Y-116579885D02*
X114469819Y-116484647D01*
X114469819Y-116484647D02*
X114469819Y-116294171D01*
X114469819Y-116294171D02*
X114422200Y-116198933D01*
X114422200Y-116198933D02*
X114374580Y-116151314D01*
X114374580Y-116151314D02*
X114279342Y-116103695D01*
X114279342Y-116103695D02*
X114088866Y-116103695D01*
X114088866Y-116103695D02*
X113993628Y-116151314D01*
X113993628Y-116151314D02*
X113946009Y-116198933D01*
X113946009Y-116198933D02*
X113898390Y-116294171D01*
X114469819Y-115770361D02*
X113803152Y-115246552D01*
X113803152Y-115770361D02*
X114469819Y-115246552D01*
X114469819Y-114341790D02*
X114469819Y-114913218D01*
X114469819Y-114627504D02*
X113469819Y-114627504D01*
X113469819Y-114627504D02*
X113612676Y-114722742D01*
X113612676Y-114722742D02*
X113707914Y-114817980D01*
X113707914Y-114817980D02*
X113755533Y-114913218D01*
X113565057Y-113960837D02*
X113517438Y-113913218D01*
X113517438Y-113913218D02*
X113469819Y-113817980D01*
X113469819Y-113817980D02*
X113469819Y-113579885D01*
X113469819Y-113579885D02*
X113517438Y-113484647D01*
X113517438Y-113484647D02*
X113565057Y-113437028D01*
X113565057Y-113437028D02*
X113660295Y-113389409D01*
X113660295Y-113389409D02*
X113755533Y-113389409D01*
X113755533Y-113389409D02*
X113898390Y-113437028D01*
X113898390Y-113437028D02*
X114469819Y-114008456D01*
X114469819Y-114008456D02*
X114469819Y-113389409D01*
X114374580Y-112960837D02*
X114422200Y-112913218D01*
X114422200Y-112913218D02*
X114469819Y-112960837D01*
X114469819Y-112960837D02*
X114422200Y-113008456D01*
X114422200Y-113008456D02*
X114374580Y-112960837D01*
X114374580Y-112960837D02*
X114469819Y-112960837D01*
X113469819Y-112008457D02*
X113469819Y-112484647D01*
X113469819Y-112484647D02*
X113946009Y-112532266D01*
X113946009Y-112532266D02*
X113898390Y-112484647D01*
X113898390Y-112484647D02*
X113850771Y-112389409D01*
X113850771Y-112389409D02*
X113850771Y-112151314D01*
X113850771Y-112151314D02*
X113898390Y-112056076D01*
X113898390Y-112056076D02*
X113946009Y-112008457D01*
X113946009Y-112008457D02*
X114041247Y-111960838D01*
X114041247Y-111960838D02*
X114279342Y-111960838D01*
X114279342Y-111960838D02*
X114374580Y-112008457D01*
X114374580Y-112008457D02*
X114422200Y-112056076D01*
X114422200Y-112056076D02*
X114469819Y-112151314D01*
X114469819Y-112151314D02*
X114469819Y-112389409D01*
X114469819Y-112389409D02*
X114422200Y-112484647D01*
X114422200Y-112484647D02*
X114374580Y-112532266D01*
X114469819Y-111532266D02*
X113803152Y-111532266D01*
X113898390Y-111532266D02*
X113850771Y-111484647D01*
X113850771Y-111484647D02*
X113803152Y-111389409D01*
X113803152Y-111389409D02*
X113803152Y-111246552D01*
X113803152Y-111246552D02*
X113850771Y-111151314D01*
X113850771Y-111151314D02*
X113946009Y-111103695D01*
X113946009Y-111103695D02*
X114469819Y-111103695D01*
X113946009Y-111103695D02*
X113850771Y-111056076D01*
X113850771Y-111056076D02*
X113803152Y-110960838D01*
X113803152Y-110960838D02*
X113803152Y-110817981D01*
X113803152Y-110817981D02*
X113850771Y-110722742D01*
X113850771Y-110722742D02*
X113946009Y-110675123D01*
X113946009Y-110675123D02*
X114469819Y-110675123D01*
X114469819Y-110198933D02*
X113803152Y-110198933D01*
X113898390Y-110198933D02*
X113850771Y-110151314D01*
X113850771Y-110151314D02*
X113803152Y-110056076D01*
X113803152Y-110056076D02*
X113803152Y-109913219D01*
X113803152Y-109913219D02*
X113850771Y-109817981D01*
X113850771Y-109817981D02*
X113946009Y-109770362D01*
X113946009Y-109770362D02*
X114469819Y-109770362D01*
X113946009Y-109770362D02*
X113850771Y-109722743D01*
X113850771Y-109722743D02*
X113803152Y-109627505D01*
X113803152Y-109627505D02*
X113803152Y-109484648D01*
X113803152Y-109484648D02*
X113850771Y-109389409D01*
X113850771Y-109389409D02*
X113946009Y-109341790D01*
X113946009Y-109341790D02*
X114469819Y-109341790D01*
X114422200Y-108817981D02*
X114469819Y-108817981D01*
X114469819Y-108817981D02*
X114565057Y-108865600D01*
X114565057Y-108865600D02*
X114612676Y-108913219D01*
X113469819Y-107437029D02*
X113469819Y-107341791D01*
X113469819Y-107341791D02*
X113517438Y-107246553D01*
X113517438Y-107246553D02*
X113565057Y-107198934D01*
X113565057Y-107198934D02*
X113660295Y-107151315D01*
X113660295Y-107151315D02*
X113850771Y-107103696D01*
X113850771Y-107103696D02*
X114088866Y-107103696D01*
X114088866Y-107103696D02*
X114279342Y-107151315D01*
X114279342Y-107151315D02*
X114374580Y-107198934D01*
X114374580Y-107198934D02*
X114422200Y-107246553D01*
X114422200Y-107246553D02*
X114469819Y-107341791D01*
X114469819Y-107341791D02*
X114469819Y-107437029D01*
X114469819Y-107437029D02*
X114422200Y-107532267D01*
X114422200Y-107532267D02*
X114374580Y-107579886D01*
X114374580Y-107579886D02*
X114279342Y-107627505D01*
X114279342Y-107627505D02*
X114088866Y-107675124D01*
X114088866Y-107675124D02*
X113850771Y-107675124D01*
X113850771Y-107675124D02*
X113660295Y-107627505D01*
X113660295Y-107627505D02*
X113565057Y-107579886D01*
X113565057Y-107579886D02*
X113517438Y-107532267D01*
X113517438Y-107532267D02*
X113469819Y-107437029D01*
X114374580Y-106675124D02*
X114422200Y-106627505D01*
X114422200Y-106627505D02*
X114469819Y-106675124D01*
X114469819Y-106675124D02*
X114422200Y-106722743D01*
X114422200Y-106722743D02*
X114374580Y-106675124D01*
X114374580Y-106675124D02*
X114469819Y-106675124D01*
X113469819Y-106294172D02*
X113469819Y-105675125D01*
X113469819Y-105675125D02*
X113850771Y-106008458D01*
X113850771Y-106008458D02*
X113850771Y-105865601D01*
X113850771Y-105865601D02*
X113898390Y-105770363D01*
X113898390Y-105770363D02*
X113946009Y-105722744D01*
X113946009Y-105722744D02*
X114041247Y-105675125D01*
X114041247Y-105675125D02*
X114279342Y-105675125D01*
X114279342Y-105675125D02*
X114374580Y-105722744D01*
X114374580Y-105722744D02*
X114422200Y-105770363D01*
X114422200Y-105770363D02*
X114469819Y-105865601D01*
X114469819Y-105865601D02*
X114469819Y-106151315D01*
X114469819Y-106151315D02*
X114422200Y-106246553D01*
X114422200Y-106246553D02*
X114374580Y-106294172D01*
X114469819Y-105246553D02*
X113803152Y-105246553D01*
X113898390Y-105246553D02*
X113850771Y-105198934D01*
X113850771Y-105198934D02*
X113803152Y-105103696D01*
X113803152Y-105103696D02*
X113803152Y-104960839D01*
X113803152Y-104960839D02*
X113850771Y-104865601D01*
X113850771Y-104865601D02*
X113946009Y-104817982D01*
X113946009Y-104817982D02*
X114469819Y-104817982D01*
X113946009Y-104817982D02*
X113850771Y-104770363D01*
X113850771Y-104770363D02*
X113803152Y-104675125D01*
X113803152Y-104675125D02*
X113803152Y-104532268D01*
X113803152Y-104532268D02*
X113850771Y-104437029D01*
X113850771Y-104437029D02*
X113946009Y-104389410D01*
X113946009Y-104389410D02*
X114469819Y-104389410D01*
X114469819Y-103913220D02*
X113803152Y-103913220D01*
X113898390Y-103913220D02*
X113850771Y-103865601D01*
X113850771Y-103865601D02*
X113803152Y-103770363D01*
X113803152Y-103770363D02*
X113803152Y-103627506D01*
X113803152Y-103627506D02*
X113850771Y-103532268D01*
X113850771Y-103532268D02*
X113946009Y-103484649D01*
X113946009Y-103484649D02*
X114469819Y-103484649D01*
X113946009Y-103484649D02*
X113850771Y-103437030D01*
X113850771Y-103437030D02*
X113803152Y-103341792D01*
X113803152Y-103341792D02*
X113803152Y-103198935D01*
X113803152Y-103198935D02*
X113850771Y-103103696D01*
X113850771Y-103103696D02*
X113946009Y-103056077D01*
X113946009Y-103056077D02*
X114469819Y-103056077D01*
X113803152Y-101960839D02*
X113803152Y-101579887D01*
X113469819Y-101817982D02*
X114326961Y-101817982D01*
X114326961Y-101817982D02*
X114422200Y-101770363D01*
X114422200Y-101770363D02*
X114469819Y-101675125D01*
X114469819Y-101675125D02*
X114469819Y-101579887D01*
X114469819Y-101103696D02*
X114422200Y-101198934D01*
X114422200Y-101198934D02*
X114374580Y-101246553D01*
X114374580Y-101246553D02*
X114279342Y-101294172D01*
X114279342Y-101294172D02*
X113993628Y-101294172D01*
X113993628Y-101294172D02*
X113898390Y-101246553D01*
X113898390Y-101246553D02*
X113850771Y-101198934D01*
X113850771Y-101198934D02*
X113803152Y-101103696D01*
X113803152Y-101103696D02*
X113803152Y-100960839D01*
X113803152Y-100960839D02*
X113850771Y-100865601D01*
X113850771Y-100865601D02*
X113898390Y-100817982D01*
X113898390Y-100817982D02*
X113993628Y-100770363D01*
X113993628Y-100770363D02*
X114279342Y-100770363D01*
X114279342Y-100770363D02*
X114374580Y-100817982D01*
X114374580Y-100817982D02*
X114422200Y-100865601D01*
X114422200Y-100865601D02*
X114469819Y-100960839D01*
X114469819Y-100960839D02*
X114469819Y-101103696D01*
X113803152Y-100484648D02*
X113803152Y-100103696D01*
X113469819Y-100341791D02*
X114326961Y-100341791D01*
X114326961Y-100341791D02*
X114422200Y-100294172D01*
X114422200Y-100294172D02*
X114469819Y-100198934D01*
X114469819Y-100198934D02*
X114469819Y-100103696D01*
X114469819Y-99341791D02*
X113946009Y-99341791D01*
X113946009Y-99341791D02*
X113850771Y-99389410D01*
X113850771Y-99389410D02*
X113803152Y-99484648D01*
X113803152Y-99484648D02*
X113803152Y-99675124D01*
X113803152Y-99675124D02*
X113850771Y-99770362D01*
X114422200Y-99341791D02*
X114469819Y-99437029D01*
X114469819Y-99437029D02*
X114469819Y-99675124D01*
X114469819Y-99675124D02*
X114422200Y-99770362D01*
X114422200Y-99770362D02*
X114326961Y-99817981D01*
X114326961Y-99817981D02*
X114231723Y-99817981D01*
X114231723Y-99817981D02*
X114136485Y-99770362D01*
X114136485Y-99770362D02*
X114088866Y-99675124D01*
X114088866Y-99675124D02*
X114088866Y-99437029D01*
X114088866Y-99437029D02*
X114041247Y-99341791D01*
X114469819Y-98722743D02*
X114422200Y-98817981D01*
X114422200Y-98817981D02*
X114326961Y-98865600D01*
X114326961Y-98865600D02*
X113469819Y-98865600D01*
X114469819Y-97579885D02*
X113469819Y-97579885D01*
X114469819Y-97151314D02*
X113946009Y-97151314D01*
X113946009Y-97151314D02*
X113850771Y-97198933D01*
X113850771Y-97198933D02*
X113803152Y-97294171D01*
X113803152Y-97294171D02*
X113803152Y-97437028D01*
X113803152Y-97437028D02*
X113850771Y-97532266D01*
X113850771Y-97532266D02*
X113898390Y-97579885D01*
X114422200Y-96294171D02*
X114469819Y-96389409D01*
X114469819Y-96389409D02*
X114469819Y-96579885D01*
X114469819Y-96579885D02*
X114422200Y-96675123D01*
X114422200Y-96675123D02*
X114326961Y-96722742D01*
X114326961Y-96722742D02*
X113946009Y-96722742D01*
X113946009Y-96722742D02*
X113850771Y-96675123D01*
X113850771Y-96675123D02*
X113803152Y-96579885D01*
X113803152Y-96579885D02*
X113803152Y-96389409D01*
X113803152Y-96389409D02*
X113850771Y-96294171D01*
X113850771Y-96294171D02*
X113946009Y-96246552D01*
X113946009Y-96246552D02*
X114041247Y-96246552D01*
X114041247Y-96246552D02*
X114136485Y-96722742D01*
X114469819Y-95817980D02*
X113803152Y-95817980D01*
X113469819Y-95817980D02*
X113517438Y-95865599D01*
X113517438Y-95865599D02*
X113565057Y-95817980D01*
X113565057Y-95817980D02*
X113517438Y-95770361D01*
X113517438Y-95770361D02*
X113469819Y-95817980D01*
X113469819Y-95817980D02*
X113565057Y-95817980D01*
X113803152Y-94913219D02*
X114612676Y-94913219D01*
X114612676Y-94913219D02*
X114707914Y-94960838D01*
X114707914Y-94960838D02*
X114755533Y-95008457D01*
X114755533Y-95008457D02*
X114803152Y-95103695D01*
X114803152Y-95103695D02*
X114803152Y-95246552D01*
X114803152Y-95246552D02*
X114755533Y-95341790D01*
X114422200Y-94913219D02*
X114469819Y-95008457D01*
X114469819Y-95008457D02*
X114469819Y-95198933D01*
X114469819Y-95198933D02*
X114422200Y-95294171D01*
X114422200Y-95294171D02*
X114374580Y-95341790D01*
X114374580Y-95341790D02*
X114279342Y-95389409D01*
X114279342Y-95389409D02*
X113993628Y-95389409D01*
X113993628Y-95389409D02*
X113898390Y-95341790D01*
X113898390Y-95341790D02*
X113850771Y-95294171D01*
X113850771Y-95294171D02*
X113803152Y-95198933D01*
X113803152Y-95198933D02*
X113803152Y-95008457D01*
X113803152Y-95008457D02*
X113850771Y-94913219D01*
X114469819Y-94437028D02*
X113469819Y-94437028D01*
X114469819Y-94008457D02*
X113946009Y-94008457D01*
X113946009Y-94008457D02*
X113850771Y-94056076D01*
X113850771Y-94056076D02*
X113803152Y-94151314D01*
X113803152Y-94151314D02*
X113803152Y-94294171D01*
X113803152Y-94294171D02*
X113850771Y-94389409D01*
X113850771Y-94389409D02*
X113898390Y-94437028D01*
X113803152Y-93675123D02*
X113803152Y-93294171D01*
X113469819Y-93532266D02*
X114326961Y-93532266D01*
X114326961Y-93532266D02*
X114422200Y-93484647D01*
X114422200Y-93484647D02*
X114469819Y-93389409D01*
X114469819Y-93389409D02*
X114469819Y-93294171D01*
M02*
