%TF.GenerationSoftware,KiCad,Pcbnew,9.0.3-9.0.3-0~ubuntu24.04.1*%
%TF.CreationDate,2025-09-10T15:10:14+02:00*%
%TF.ProjectId,debix_rpi_22,64656269-785f-4727-9069-5f32322e6b69,rev?*%
%TF.SameCoordinates,Original*%
%TF.FileFunction,Legend,Top*%
%TF.FilePolarity,Positive*%
%FSLAX46Y46*%
G04 Gerber Fmt 4.6, Leading zero omitted, Abs format (unit mm)*
G04 Created by KiCad (PCBNEW 9.0.3-9.0.3-0~ubuntu24.04.1) date 2025-09-10 15:10:14*
%MOMM*%
%LPD*%
G01*
G04 APERTURE LIST*
%ADD10C,0.250000*%
G04 APERTURE END LIST*
D10*
X126357330Y-133197952D02*
X126595425Y-133864619D01*
X126595425Y-133864619D02*
X126833520Y-133197952D01*
X127404949Y-132864619D02*
X127500187Y-132864619D01*
X127500187Y-132864619D02*
X127595425Y-132912238D01*
X127595425Y-132912238D02*
X127643044Y-132959857D01*
X127643044Y-132959857D02*
X127690663Y-133055095D01*
X127690663Y-133055095D02*
X127738282Y-133245571D01*
X127738282Y-133245571D02*
X127738282Y-133483666D01*
X127738282Y-133483666D02*
X127690663Y-133674142D01*
X127690663Y-133674142D02*
X127643044Y-133769380D01*
X127643044Y-133769380D02*
X127595425Y-133817000D01*
X127595425Y-133817000D02*
X127500187Y-133864619D01*
X127500187Y-133864619D02*
X127404949Y-133864619D01*
X127404949Y-133864619D02*
X127309711Y-133817000D01*
X127309711Y-133817000D02*
X127262092Y-133769380D01*
X127262092Y-133769380D02*
X127214473Y-133674142D01*
X127214473Y-133674142D02*
X127166854Y-133483666D01*
X127166854Y-133483666D02*
X127166854Y-133245571D01*
X127166854Y-133245571D02*
X127214473Y-133055095D01*
X127214473Y-133055095D02*
X127262092Y-132959857D01*
X127262092Y-132959857D02*
X127309711Y-132912238D01*
X127309711Y-132912238D02*
X127404949Y-132864619D01*
X128166854Y-133769380D02*
X128214473Y-133817000D01*
X128214473Y-133817000D02*
X128166854Y-133864619D01*
X128166854Y-133864619D02*
X128119235Y-133817000D01*
X128119235Y-133817000D02*
X128166854Y-133769380D01*
X128166854Y-133769380D02*
X128166854Y-133864619D01*
X128595425Y-132959857D02*
X128643044Y-132912238D01*
X128643044Y-132912238D02*
X128738282Y-132864619D01*
X128738282Y-132864619D02*
X128976377Y-132864619D01*
X128976377Y-132864619D02*
X129071615Y-132912238D01*
X129071615Y-132912238D02*
X129119234Y-132959857D01*
X129119234Y-132959857D02*
X129166853Y-133055095D01*
X129166853Y-133055095D02*
X129166853Y-133150333D01*
X129166853Y-133150333D02*
X129119234Y-133293190D01*
X129119234Y-133293190D02*
X128547806Y-133864619D01*
X128547806Y-133864619D02*
X129166853Y-133864619D01*
X130785901Y-133864619D02*
X130785901Y-132864619D01*
X130785901Y-133817000D02*
X130690663Y-133864619D01*
X130690663Y-133864619D02*
X130500187Y-133864619D01*
X130500187Y-133864619D02*
X130404949Y-133817000D01*
X130404949Y-133817000D02*
X130357330Y-133769380D01*
X130357330Y-133769380D02*
X130309711Y-133674142D01*
X130309711Y-133674142D02*
X130309711Y-133388428D01*
X130309711Y-133388428D02*
X130357330Y-133293190D01*
X130357330Y-133293190D02*
X130404949Y-133245571D01*
X130404949Y-133245571D02*
X130500187Y-133197952D01*
X130500187Y-133197952D02*
X130690663Y-133197952D01*
X130690663Y-133197952D02*
X130785901Y-133245571D01*
X131643044Y-133817000D02*
X131547806Y-133864619D01*
X131547806Y-133864619D02*
X131357330Y-133864619D01*
X131357330Y-133864619D02*
X131262092Y-133817000D01*
X131262092Y-133817000D02*
X131214473Y-133721761D01*
X131214473Y-133721761D02*
X131214473Y-133340809D01*
X131214473Y-133340809D02*
X131262092Y-133245571D01*
X131262092Y-133245571D02*
X131357330Y-133197952D01*
X131357330Y-133197952D02*
X131547806Y-133197952D01*
X131547806Y-133197952D02*
X131643044Y-133245571D01*
X131643044Y-133245571D02*
X131690663Y-133340809D01*
X131690663Y-133340809D02*
X131690663Y-133436047D01*
X131690663Y-133436047D02*
X131214473Y-133531285D01*
X132119235Y-133864619D02*
X132119235Y-132864619D01*
X132119235Y-133245571D02*
X132214473Y-133197952D01*
X132214473Y-133197952D02*
X132404949Y-133197952D01*
X132404949Y-133197952D02*
X132500187Y-133245571D01*
X132500187Y-133245571D02*
X132547806Y-133293190D01*
X132547806Y-133293190D02*
X132595425Y-133388428D01*
X132595425Y-133388428D02*
X132595425Y-133674142D01*
X132595425Y-133674142D02*
X132547806Y-133769380D01*
X132547806Y-133769380D02*
X132500187Y-133817000D01*
X132500187Y-133817000D02*
X132404949Y-133864619D01*
X132404949Y-133864619D02*
X132214473Y-133864619D01*
X132214473Y-133864619D02*
X132119235Y-133817000D01*
X133023997Y-133864619D02*
X133023997Y-133197952D01*
X133023997Y-132864619D02*
X132976378Y-132912238D01*
X132976378Y-132912238D02*
X133023997Y-132959857D01*
X133023997Y-132959857D02*
X133071616Y-132912238D01*
X133071616Y-132912238D02*
X133023997Y-132864619D01*
X133023997Y-132864619D02*
X133023997Y-132959857D01*
X133404949Y-133864619D02*
X133928758Y-133197952D01*
X133404949Y-133197952D02*
X133928758Y-133864619D01*
X134071616Y-133959857D02*
X134833520Y-133959857D01*
X135071616Y-133864619D02*
X135071616Y-133197952D01*
X135071616Y-133388428D02*
X135119235Y-133293190D01*
X135119235Y-133293190D02*
X135166854Y-133245571D01*
X135166854Y-133245571D02*
X135262092Y-133197952D01*
X135262092Y-133197952D02*
X135357330Y-133197952D01*
X135690664Y-133197952D02*
X135690664Y-134197952D01*
X135690664Y-133245571D02*
X135785902Y-133197952D01*
X135785902Y-133197952D02*
X135976378Y-133197952D01*
X135976378Y-133197952D02*
X136071616Y-133245571D01*
X136071616Y-133245571D02*
X136119235Y-133293190D01*
X136119235Y-133293190D02*
X136166854Y-133388428D01*
X136166854Y-133388428D02*
X136166854Y-133674142D01*
X136166854Y-133674142D02*
X136119235Y-133769380D01*
X136119235Y-133769380D02*
X136071616Y-133817000D01*
X136071616Y-133817000D02*
X135976378Y-133864619D01*
X135976378Y-133864619D02*
X135785902Y-133864619D01*
X135785902Y-133864619D02*
X135690664Y-133817000D01*
X136595426Y-133864619D02*
X136595426Y-133197952D01*
X136595426Y-132864619D02*
X136547807Y-132912238D01*
X136547807Y-132912238D02*
X136595426Y-132959857D01*
X136595426Y-132959857D02*
X136643045Y-132912238D01*
X136643045Y-132912238D02*
X136595426Y-132864619D01*
X136595426Y-132864619D02*
X136595426Y-132959857D01*
X136833521Y-133959857D02*
X137595425Y-133959857D01*
X137785902Y-132959857D02*
X137833521Y-132912238D01*
X137833521Y-132912238D02*
X137928759Y-132864619D01*
X137928759Y-132864619D02*
X138166854Y-132864619D01*
X138166854Y-132864619D02*
X138262092Y-132912238D01*
X138262092Y-132912238D02*
X138309711Y-132959857D01*
X138309711Y-132959857D02*
X138357330Y-133055095D01*
X138357330Y-133055095D02*
X138357330Y-133150333D01*
X138357330Y-133150333D02*
X138309711Y-133293190D01*
X138309711Y-133293190D02*
X137738283Y-133864619D01*
X137738283Y-133864619D02*
X138357330Y-133864619D01*
X138738283Y-132959857D02*
X138785902Y-132912238D01*
X138785902Y-132912238D02*
X138881140Y-132864619D01*
X138881140Y-132864619D02*
X139119235Y-132864619D01*
X139119235Y-132864619D02*
X139214473Y-132912238D01*
X139214473Y-132912238D02*
X139262092Y-132959857D01*
X139262092Y-132959857D02*
X139309711Y-133055095D01*
X139309711Y-133055095D02*
X139309711Y-133150333D01*
X139309711Y-133150333D02*
X139262092Y-133293190D01*
X139262092Y-133293190D02*
X138690664Y-133864619D01*
X138690664Y-133864619D02*
X139309711Y-133864619D01*
X140500188Y-133864619D02*
X140500188Y-132864619D01*
X140928759Y-133864619D02*
X140928759Y-133340809D01*
X140928759Y-133340809D02*
X140881140Y-133245571D01*
X140881140Y-133245571D02*
X140785902Y-133197952D01*
X140785902Y-133197952D02*
X140643045Y-133197952D01*
X140643045Y-133197952D02*
X140547807Y-133245571D01*
X140547807Y-133245571D02*
X140500188Y-133293190D01*
X141262093Y-133197952D02*
X141643045Y-133197952D01*
X141404950Y-132864619D02*
X141404950Y-133721761D01*
X141404950Y-133721761D02*
X141452569Y-133817000D01*
X141452569Y-133817000D02*
X141547807Y-133864619D01*
X141547807Y-133864619D02*
X141643045Y-133864619D01*
X141833522Y-133197952D02*
X142214474Y-133197952D01*
X141976379Y-132864619D02*
X141976379Y-133721761D01*
X141976379Y-133721761D02*
X142023998Y-133817000D01*
X142023998Y-133817000D02*
X142119236Y-133864619D01*
X142119236Y-133864619D02*
X142214474Y-133864619D01*
X142547808Y-133197952D02*
X142547808Y-134197952D01*
X142547808Y-133245571D02*
X142643046Y-133197952D01*
X142643046Y-133197952D02*
X142833522Y-133197952D01*
X142833522Y-133197952D02*
X142928760Y-133245571D01*
X142928760Y-133245571D02*
X142976379Y-133293190D01*
X142976379Y-133293190D02*
X143023998Y-133388428D01*
X143023998Y-133388428D02*
X143023998Y-133674142D01*
X143023998Y-133674142D02*
X142976379Y-133769380D01*
X142976379Y-133769380D02*
X142928760Y-133817000D01*
X142928760Y-133817000D02*
X142833522Y-133864619D01*
X142833522Y-133864619D02*
X142643046Y-133864619D01*
X142643046Y-133864619D02*
X142547808Y-133817000D01*
X143452570Y-133769380D02*
X143500189Y-133817000D01*
X143500189Y-133817000D02*
X143452570Y-133864619D01*
X143452570Y-133864619D02*
X143404951Y-133817000D01*
X143404951Y-133817000D02*
X143452570Y-133769380D01*
X143452570Y-133769380D02*
X143452570Y-133864619D01*
X143452570Y-133245571D02*
X143500189Y-133293190D01*
X143500189Y-133293190D02*
X143452570Y-133340809D01*
X143452570Y-133340809D02*
X143404951Y-133293190D01*
X143404951Y-133293190D02*
X143452570Y-133245571D01*
X143452570Y-133245571D02*
X143452570Y-133340809D01*
X144643045Y-132817000D02*
X143785903Y-134102714D01*
X145690664Y-132817000D02*
X144833522Y-134102714D01*
X146452569Y-133197952D02*
X146452569Y-134007476D01*
X146452569Y-134007476D02*
X146404950Y-134102714D01*
X146404950Y-134102714D02*
X146357331Y-134150333D01*
X146357331Y-134150333D02*
X146262093Y-134197952D01*
X146262093Y-134197952D02*
X146119236Y-134197952D01*
X146119236Y-134197952D02*
X146023998Y-134150333D01*
X146452569Y-133817000D02*
X146357331Y-133864619D01*
X146357331Y-133864619D02*
X146166855Y-133864619D01*
X146166855Y-133864619D02*
X146071617Y-133817000D01*
X146071617Y-133817000D02*
X146023998Y-133769380D01*
X146023998Y-133769380D02*
X145976379Y-133674142D01*
X145976379Y-133674142D02*
X145976379Y-133388428D01*
X145976379Y-133388428D02*
X146023998Y-133293190D01*
X146023998Y-133293190D02*
X146071617Y-133245571D01*
X146071617Y-133245571D02*
X146166855Y-133197952D01*
X146166855Y-133197952D02*
X146357331Y-133197952D01*
X146357331Y-133197952D02*
X146452569Y-133245571D01*
X146928760Y-133864619D02*
X146928760Y-133197952D01*
X146928760Y-132864619D02*
X146881141Y-132912238D01*
X146881141Y-132912238D02*
X146928760Y-132959857D01*
X146928760Y-132959857D02*
X146976379Y-132912238D01*
X146976379Y-132912238D02*
X146928760Y-132864619D01*
X146928760Y-132864619D02*
X146928760Y-132959857D01*
X147262093Y-133197952D02*
X147643045Y-133197952D01*
X147404950Y-132864619D02*
X147404950Y-133721761D01*
X147404950Y-133721761D02*
X147452569Y-133817000D01*
X147452569Y-133817000D02*
X147547807Y-133864619D01*
X147547807Y-133864619D02*
X147643045Y-133864619D01*
X147976379Y-133864619D02*
X147976379Y-132864619D01*
X148404950Y-133864619D02*
X148404950Y-133340809D01*
X148404950Y-133340809D02*
X148357331Y-133245571D01*
X148357331Y-133245571D02*
X148262093Y-133197952D01*
X148262093Y-133197952D02*
X148119236Y-133197952D01*
X148119236Y-133197952D02*
X148023998Y-133245571D01*
X148023998Y-133245571D02*
X147976379Y-133293190D01*
X149309712Y-133197952D02*
X149309712Y-133864619D01*
X148881141Y-133197952D02*
X148881141Y-133721761D01*
X148881141Y-133721761D02*
X148928760Y-133817000D01*
X148928760Y-133817000D02*
X149023998Y-133864619D01*
X149023998Y-133864619D02*
X149166855Y-133864619D01*
X149166855Y-133864619D02*
X149262093Y-133817000D01*
X149262093Y-133817000D02*
X149309712Y-133769380D01*
X149785903Y-133864619D02*
X149785903Y-132864619D01*
X149785903Y-133245571D02*
X149881141Y-133197952D01*
X149881141Y-133197952D02*
X150071617Y-133197952D01*
X150071617Y-133197952D02*
X150166855Y-133245571D01*
X150166855Y-133245571D02*
X150214474Y-133293190D01*
X150214474Y-133293190D02*
X150262093Y-133388428D01*
X150262093Y-133388428D02*
X150262093Y-133674142D01*
X150262093Y-133674142D02*
X150214474Y-133769380D01*
X150214474Y-133769380D02*
X150166855Y-133817000D01*
X150166855Y-133817000D02*
X150071617Y-133864619D01*
X150071617Y-133864619D02*
X149881141Y-133864619D01*
X149881141Y-133864619D02*
X149785903Y-133817000D01*
X150690665Y-133769380D02*
X150738284Y-133817000D01*
X150738284Y-133817000D02*
X150690665Y-133864619D01*
X150690665Y-133864619D02*
X150643046Y-133817000D01*
X150643046Y-133817000D02*
X150690665Y-133769380D01*
X150690665Y-133769380D02*
X150690665Y-133864619D01*
X151595426Y-133817000D02*
X151500188Y-133864619D01*
X151500188Y-133864619D02*
X151309712Y-133864619D01*
X151309712Y-133864619D02*
X151214474Y-133817000D01*
X151214474Y-133817000D02*
X151166855Y-133769380D01*
X151166855Y-133769380D02*
X151119236Y-133674142D01*
X151119236Y-133674142D02*
X151119236Y-133388428D01*
X151119236Y-133388428D02*
X151166855Y-133293190D01*
X151166855Y-133293190D02*
X151214474Y-133245571D01*
X151214474Y-133245571D02*
X151309712Y-133197952D01*
X151309712Y-133197952D02*
X151500188Y-133197952D01*
X151500188Y-133197952D02*
X151595426Y-133245571D01*
X152166855Y-133864619D02*
X152071617Y-133817000D01*
X152071617Y-133817000D02*
X152023998Y-133769380D01*
X152023998Y-133769380D02*
X151976379Y-133674142D01*
X151976379Y-133674142D02*
X151976379Y-133388428D01*
X151976379Y-133388428D02*
X152023998Y-133293190D01*
X152023998Y-133293190D02*
X152071617Y-133245571D01*
X152071617Y-133245571D02*
X152166855Y-133197952D01*
X152166855Y-133197952D02*
X152309712Y-133197952D01*
X152309712Y-133197952D02*
X152404950Y-133245571D01*
X152404950Y-133245571D02*
X152452569Y-133293190D01*
X152452569Y-133293190D02*
X152500188Y-133388428D01*
X152500188Y-133388428D02*
X152500188Y-133674142D01*
X152500188Y-133674142D02*
X152452569Y-133769380D01*
X152452569Y-133769380D02*
X152404950Y-133817000D01*
X152404950Y-133817000D02*
X152309712Y-133864619D01*
X152309712Y-133864619D02*
X152166855Y-133864619D01*
X152928760Y-133864619D02*
X152928760Y-133197952D01*
X152928760Y-133293190D02*
X152976379Y-133245571D01*
X152976379Y-133245571D02*
X153071617Y-133197952D01*
X153071617Y-133197952D02*
X153214474Y-133197952D01*
X153214474Y-133197952D02*
X153309712Y-133245571D01*
X153309712Y-133245571D02*
X153357331Y-133340809D01*
X153357331Y-133340809D02*
X153357331Y-133864619D01*
X153357331Y-133340809D02*
X153404950Y-133245571D01*
X153404950Y-133245571D02*
X153500188Y-133197952D01*
X153500188Y-133197952D02*
X153643045Y-133197952D01*
X153643045Y-133197952D02*
X153738284Y-133245571D01*
X153738284Y-133245571D02*
X153785903Y-133340809D01*
X153785903Y-133340809D02*
X153785903Y-133864619D01*
X154976378Y-132817000D02*
X154119236Y-134102714D01*
X155309712Y-133864619D02*
X155309712Y-132864619D01*
X155404950Y-133483666D02*
X155690664Y-133864619D01*
X155690664Y-133197952D02*
X155309712Y-133578904D01*
X156262093Y-133864619D02*
X156166855Y-133817000D01*
X156166855Y-133817000D02*
X156119236Y-133769380D01*
X156119236Y-133769380D02*
X156071617Y-133674142D01*
X156071617Y-133674142D02*
X156071617Y-133388428D01*
X156071617Y-133388428D02*
X156119236Y-133293190D01*
X156119236Y-133293190D02*
X156166855Y-133245571D01*
X156166855Y-133245571D02*
X156262093Y-133197952D01*
X156262093Y-133197952D02*
X156404950Y-133197952D01*
X156404950Y-133197952D02*
X156500188Y-133245571D01*
X156500188Y-133245571D02*
X156547807Y-133293190D01*
X156547807Y-133293190D02*
X156595426Y-133388428D01*
X156595426Y-133388428D02*
X156595426Y-133674142D01*
X156595426Y-133674142D02*
X156547807Y-133769380D01*
X156547807Y-133769380D02*
X156500188Y-133817000D01*
X156500188Y-133817000D02*
X156404950Y-133864619D01*
X156404950Y-133864619D02*
X156262093Y-133864619D01*
X157023998Y-133864619D02*
X157023998Y-133197952D01*
X157023998Y-133293190D02*
X157071617Y-133245571D01*
X157071617Y-133245571D02*
X157166855Y-133197952D01*
X157166855Y-133197952D02*
X157309712Y-133197952D01*
X157309712Y-133197952D02*
X157404950Y-133245571D01*
X157404950Y-133245571D02*
X157452569Y-133340809D01*
X157452569Y-133340809D02*
X157452569Y-133864619D01*
X157452569Y-133340809D02*
X157500188Y-133245571D01*
X157500188Y-133245571D02*
X157595426Y-133197952D01*
X157595426Y-133197952D02*
X157738283Y-133197952D01*
X157738283Y-133197952D02*
X157833522Y-133245571D01*
X157833522Y-133245571D02*
X157881141Y-133340809D01*
X157881141Y-133340809D02*
X157881141Y-133864619D01*
X158785902Y-133864619D02*
X158785902Y-133340809D01*
X158785902Y-133340809D02*
X158738283Y-133245571D01*
X158738283Y-133245571D02*
X158643045Y-133197952D01*
X158643045Y-133197952D02*
X158452569Y-133197952D01*
X158452569Y-133197952D02*
X158357331Y-133245571D01*
X158785902Y-133817000D02*
X158690664Y-133864619D01*
X158690664Y-133864619D02*
X158452569Y-133864619D01*
X158452569Y-133864619D02*
X158357331Y-133817000D01*
X158357331Y-133817000D02*
X158309712Y-133721761D01*
X158309712Y-133721761D02*
X158309712Y-133626523D01*
X158309712Y-133626523D02*
X158357331Y-133531285D01*
X158357331Y-133531285D02*
X158452569Y-133483666D01*
X158452569Y-133483666D02*
X158690664Y-133483666D01*
X158690664Y-133483666D02*
X158785902Y-133436047D01*
X159738283Y-132864619D02*
X159262093Y-132864619D01*
X159262093Y-132864619D02*
X159214474Y-133340809D01*
X159214474Y-133340809D02*
X159262093Y-133293190D01*
X159262093Y-133293190D02*
X159357331Y-133245571D01*
X159357331Y-133245571D02*
X159595426Y-133245571D01*
X159595426Y-133245571D02*
X159690664Y-133293190D01*
X159690664Y-133293190D02*
X159738283Y-133340809D01*
X159738283Y-133340809D02*
X159785902Y-133436047D01*
X159785902Y-133436047D02*
X159785902Y-133674142D01*
X159785902Y-133674142D02*
X159738283Y-133769380D01*
X159738283Y-133769380D02*
X159690664Y-133817000D01*
X159690664Y-133817000D02*
X159595426Y-133864619D01*
X159595426Y-133864619D02*
X159357331Y-133864619D01*
X159357331Y-133864619D02*
X159262093Y-133817000D01*
X159262093Y-133817000D02*
X159214474Y-133769380D01*
X160928759Y-132817000D02*
X160071617Y-134102714D01*
X161166855Y-132864619D02*
X161404950Y-133864619D01*
X161404950Y-133864619D02*
X161595426Y-133150333D01*
X161595426Y-133150333D02*
X161785902Y-133864619D01*
X161785902Y-133864619D02*
X162023998Y-132864619D01*
X162404950Y-133864619D02*
X162404950Y-133197952D01*
X162404950Y-132864619D02*
X162357331Y-132912238D01*
X162357331Y-132912238D02*
X162404950Y-132959857D01*
X162404950Y-132959857D02*
X162452569Y-132912238D01*
X162452569Y-132912238D02*
X162404950Y-132864619D01*
X162404950Y-132864619D02*
X162404950Y-132959857D01*
X163023997Y-133864619D02*
X162928759Y-133817000D01*
X162928759Y-133817000D02*
X162881140Y-133721761D01*
X162881140Y-133721761D02*
X162881140Y-132864619D01*
X163833521Y-133864619D02*
X163833521Y-132864619D01*
X163833521Y-133817000D02*
X163738283Y-133864619D01*
X163738283Y-133864619D02*
X163547807Y-133864619D01*
X163547807Y-133864619D02*
X163452569Y-133817000D01*
X163452569Y-133817000D02*
X163404950Y-133769380D01*
X163404950Y-133769380D02*
X163357331Y-133674142D01*
X163357331Y-133674142D02*
X163357331Y-133388428D01*
X163357331Y-133388428D02*
X163404950Y-133293190D01*
X163404950Y-133293190D02*
X163452569Y-133245571D01*
X163452569Y-133245571D02*
X163547807Y-133197952D01*
X163547807Y-133197952D02*
X163738283Y-133197952D01*
X163738283Y-133197952D02*
X163833521Y-133245571D01*
X164881140Y-133769380D02*
X164833521Y-133817000D01*
X164833521Y-133817000D02*
X164690664Y-133864619D01*
X164690664Y-133864619D02*
X164595426Y-133864619D01*
X164595426Y-133864619D02*
X164452569Y-133817000D01*
X164452569Y-133817000D02*
X164357331Y-133721761D01*
X164357331Y-133721761D02*
X164309712Y-133626523D01*
X164309712Y-133626523D02*
X164262093Y-133436047D01*
X164262093Y-133436047D02*
X164262093Y-133293190D01*
X164262093Y-133293190D02*
X164309712Y-133102714D01*
X164309712Y-133102714D02*
X164357331Y-133007476D01*
X164357331Y-133007476D02*
X164452569Y-132912238D01*
X164452569Y-132912238D02*
X164595426Y-132864619D01*
X164595426Y-132864619D02*
X164690664Y-132864619D01*
X164690664Y-132864619D02*
X164833521Y-132912238D01*
X164833521Y-132912238D02*
X164881140Y-132959857D01*
X165738283Y-133864619D02*
X165738283Y-133340809D01*
X165738283Y-133340809D02*
X165690664Y-133245571D01*
X165690664Y-133245571D02*
X165595426Y-133197952D01*
X165595426Y-133197952D02*
X165404950Y-133197952D01*
X165404950Y-133197952D02*
X165309712Y-133245571D01*
X165738283Y-133817000D02*
X165643045Y-133864619D01*
X165643045Y-133864619D02*
X165404950Y-133864619D01*
X165404950Y-133864619D02*
X165309712Y-133817000D01*
X165309712Y-133817000D02*
X165262093Y-133721761D01*
X165262093Y-133721761D02*
X165262093Y-133626523D01*
X165262093Y-133626523D02*
X165309712Y-133531285D01*
X165309712Y-133531285D02*
X165404950Y-133483666D01*
X165404950Y-133483666D02*
X165643045Y-133483666D01*
X165643045Y-133483666D02*
X165738283Y-133436047D01*
X166214474Y-133864619D02*
X166214474Y-133197952D01*
X166214474Y-133293190D02*
X166262093Y-133245571D01*
X166262093Y-133245571D02*
X166357331Y-133197952D01*
X166357331Y-133197952D02*
X166500188Y-133197952D01*
X166500188Y-133197952D02*
X166595426Y-133245571D01*
X166595426Y-133245571D02*
X166643045Y-133340809D01*
X166643045Y-133340809D02*
X166643045Y-133864619D01*
X166643045Y-133340809D02*
X166690664Y-133245571D01*
X166690664Y-133245571D02*
X166785902Y-133197952D01*
X166785902Y-133197952D02*
X166928759Y-133197952D01*
X166928759Y-133197952D02*
X167023998Y-133245571D01*
X167023998Y-133245571D02*
X167071617Y-133340809D01*
X167071617Y-133340809D02*
X167071617Y-133864619D01*
X167928759Y-133817000D02*
X167833521Y-133864619D01*
X167833521Y-133864619D02*
X167643045Y-133864619D01*
X167643045Y-133864619D02*
X167547807Y-133817000D01*
X167547807Y-133817000D02*
X167500188Y-133721761D01*
X167500188Y-133721761D02*
X167500188Y-133340809D01*
X167500188Y-133340809D02*
X167547807Y-133245571D01*
X167547807Y-133245571D02*
X167643045Y-133197952D01*
X167643045Y-133197952D02*
X167833521Y-133197952D01*
X167833521Y-133197952D02*
X167928759Y-133245571D01*
X167928759Y-133245571D02*
X167976378Y-133340809D01*
X167976378Y-133340809D02*
X167976378Y-133436047D01*
X167976378Y-133436047D02*
X167500188Y-133531285D01*
X168404950Y-133864619D02*
X168404950Y-133197952D01*
X168404950Y-133388428D02*
X168452569Y-133293190D01*
X168452569Y-133293190D02*
X168500188Y-133245571D01*
X168500188Y-133245571D02*
X168595426Y-133197952D01*
X168595426Y-133197952D02*
X168690664Y-133197952D01*
X169452569Y-133864619D02*
X169452569Y-133340809D01*
X169452569Y-133340809D02*
X169404950Y-133245571D01*
X169404950Y-133245571D02*
X169309712Y-133197952D01*
X169309712Y-133197952D02*
X169119236Y-133197952D01*
X169119236Y-133197952D02*
X169023998Y-133245571D01*
X169452569Y-133817000D02*
X169357331Y-133864619D01*
X169357331Y-133864619D02*
X169119236Y-133864619D01*
X169119236Y-133864619D02*
X169023998Y-133817000D01*
X169023998Y-133817000D02*
X168976379Y-133721761D01*
X168976379Y-133721761D02*
X168976379Y-133626523D01*
X168976379Y-133626523D02*
X169023998Y-133531285D01*
X169023998Y-133531285D02*
X169119236Y-133483666D01*
X169119236Y-133483666D02*
X169357331Y-133483666D01*
X169357331Y-133483666D02*
X169452569Y-133436047D01*
X170262093Y-133340809D02*
X169928760Y-133340809D01*
X169928760Y-133864619D02*
X169928760Y-132864619D01*
X169928760Y-132864619D02*
X170404950Y-132864619D01*
X170785903Y-133864619D02*
X170785903Y-132864619D01*
X170785903Y-132864619D02*
X171166855Y-132864619D01*
X171166855Y-132864619D02*
X171262093Y-132912238D01*
X171262093Y-132912238D02*
X171309712Y-132959857D01*
X171309712Y-132959857D02*
X171357331Y-133055095D01*
X171357331Y-133055095D02*
X171357331Y-133197952D01*
X171357331Y-133197952D02*
X171309712Y-133293190D01*
X171309712Y-133293190D02*
X171262093Y-133340809D01*
X171262093Y-133340809D02*
X171166855Y-133388428D01*
X171166855Y-133388428D02*
X170785903Y-133388428D01*
X172357331Y-133769380D02*
X172309712Y-133817000D01*
X172309712Y-133817000D02*
X172166855Y-133864619D01*
X172166855Y-133864619D02*
X172071617Y-133864619D01*
X172071617Y-133864619D02*
X171928760Y-133817000D01*
X171928760Y-133817000D02*
X171833522Y-133721761D01*
X171833522Y-133721761D02*
X171785903Y-133626523D01*
X171785903Y-133626523D02*
X171738284Y-133436047D01*
X171738284Y-133436047D02*
X171738284Y-133293190D01*
X171738284Y-133293190D02*
X171785903Y-133102714D01*
X171785903Y-133102714D02*
X171833522Y-133007476D01*
X171833522Y-133007476D02*
X171928760Y-132912238D01*
X171928760Y-132912238D02*
X172071617Y-132864619D01*
X172071617Y-132864619D02*
X172166855Y-132864619D01*
X172166855Y-132864619D02*
X172309712Y-132912238D01*
X172309712Y-132912238D02*
X172357331Y-132959857D01*
X173119236Y-133340809D02*
X173262093Y-133388428D01*
X173262093Y-133388428D02*
X173309712Y-133436047D01*
X173309712Y-133436047D02*
X173357331Y-133531285D01*
X173357331Y-133531285D02*
X173357331Y-133674142D01*
X173357331Y-133674142D02*
X173309712Y-133769380D01*
X173309712Y-133769380D02*
X173262093Y-133817000D01*
X173262093Y-133817000D02*
X173166855Y-133864619D01*
X173166855Y-133864619D02*
X172785903Y-133864619D01*
X172785903Y-133864619D02*
X172785903Y-132864619D01*
X172785903Y-132864619D02*
X173119236Y-132864619D01*
X173119236Y-132864619D02*
X173214474Y-132912238D01*
X173214474Y-132912238D02*
X173262093Y-132959857D01*
X173262093Y-132959857D02*
X173309712Y-133055095D01*
X173309712Y-133055095D02*
X173309712Y-133150333D01*
X173309712Y-133150333D02*
X173262093Y-133245571D01*
X173262093Y-133245571D02*
X173214474Y-133293190D01*
X173214474Y-133293190D02*
X173119236Y-133340809D01*
X173119236Y-133340809D02*
X172785903Y-133340809D01*
M02*
