%TF.GenerationSoftware,KiCad,Pcbnew,9.0.3-9.0.3-0~ubuntu24.04.1*%
%TF.CreationDate,2025-09-10T15:10:14+02:00*%
%TF.ProjectId,debix_rpi_22,64656269-785f-4727-9069-5f32322e6b69,rev?*%
%TF.SameCoordinates,Original*%
%TF.FileFunction,Copper,L2,Bot*%
%TF.FilePolarity,Positive*%
%FSLAX46Y46*%
G04 Gerber Fmt 4.6, Leading zero omitted, Abs format (unit mm)*
G04 Created by KiCad (PCBNEW 9.0.3-9.0.3-0~ubuntu24.04.1) date 2025-09-10 15:10:14*
%MOMM*%
%LPD*%
G01*
G04 APERTURE LIST*
%TA.AperFunction,ViaPad*%
%ADD10C,0.550000*%
%TD*%
%TA.AperFunction,ViaPad*%
%ADD11C,0.600000*%
%TD*%
%TA.AperFunction,Conductor*%
%ADD12C,0.200000*%
%TD*%
%TA.AperFunction,Conductor*%
%ADD13C,0.300000*%
%TD*%
G04 APERTURE END LIST*
D10*
%TO.N,/csi_scl*%
X117828293Y-133515121D03*
X126174000Y-139974000D03*
%TO.N,+3V3*%
X116479346Y-132000000D03*
X122708557Y-140291443D03*
%TO.N,/csi_sda*%
X116500000Y-132900000D03*
X123875000Y-140375000D03*
%TO.N,GND*%
X114499997Y-134252003D03*
X121174265Y-141174265D03*
D11*
%TO.N,/CAM_GPIO_1*%
X126000000Y-138600000D03*
D10*
X115398000Y-131400000D03*
%TO.N,/CAM_GPIO_0*%
X124401000Y-138925000D03*
X116500000Y-131150000D03*
%TD*%
D12*
%TO.N,/csi_scl*%
X123112017Y-139044888D02*
X118261274Y-134194144D01*
X126174000Y-139974000D02*
X126086499Y-139886500D01*
X125875254Y-139798998D02*
X124932553Y-139798989D01*
X117828293Y-133515121D02*
X118087297Y-133774125D01*
X126086499Y-139886500D02*
G75*
G03*
X125875254Y-139799019I-211199J-211200D01*
G01*
X118174286Y-133984135D02*
G75*
G03*
X118087312Y-133774110I-296986J35D01*
G01*
X123112017Y-139044888D02*
G75*
G03*
X124932553Y-139798997I1820583J1820588D01*
G01*
X118174286Y-133984135D02*
G75*
G03*
X118261288Y-134194130I297014J35D01*
G01*
D13*
%TO.N,+3V3*%
X122708557Y-140291443D02*
X116132374Y-133715283D01*
X116479346Y-132000000D02*
X116132384Y-132346954D01*
X115848987Y-133031118D02*
G75*
G03*
X116132393Y-133715264I967513J18D01*
G01*
X115848987Y-133031118D02*
G75*
G02*
X116132380Y-132346950I967513J18D01*
G01*
D12*
%TO.N,/csi_sda*%
X123875000Y-140375000D02*
X117927482Y-134427482D01*
X116535352Y-133035356D02*
X117572512Y-134072512D01*
X116499998Y-132950000D02*
X116500000Y-132900000D01*
X117924570Y-134425983D02*
X117574011Y-134075424D01*
X117573273Y-134074320D02*
G75*
G02*
X117573275Y-134073621I13527J320D01*
G01*
X117927482Y-134427482D02*
G75*
G03*
X117926981Y-134426990I-40882J-41118D01*
G01*
X117573274Y-134073621D02*
G75*
G03*
X117573015Y-134073022I-774J21D01*
G01*
X117926378Y-134426741D02*
G75*
G03*
X117925672Y-134426740I-378J-17759D01*
G01*
X117573522Y-134074923D02*
G75*
G02*
X117573279Y-134074320I678J623D01*
G01*
X117572512Y-134072512D02*
G75*
G03*
X117573025Y-134073010I18388J18412D01*
G01*
X116499998Y-132950000D02*
G75*
G03*
X116535355Y-133035353I120702J0D01*
G01*
X117925069Y-134426490D02*
G75*
G03*
X117925671Y-134426763I631J590D01*
G01*
X117573522Y-134074923D02*
G75*
G03*
X117574011Y-134075424I20878J19923D01*
G01*
X117926378Y-134426741D02*
G75*
G02*
X117926993Y-134426978I22J-859D01*
G01*
X117924570Y-134425983D02*
G75*
G02*
X117925069Y-134426490I-31770J-31717D01*
G01*
%TO.N,GND*%
X121174265Y-141174265D02*
X121174276Y-140674260D01*
X114499997Y-134252003D02*
X114875997Y-134252010D01*
X115517870Y-134517888D02*
X120820728Y-139820700D01*
X115517870Y-134517888D02*
G75*
G03*
X114875997Y-134252029I-641870J-641912D01*
G01*
X120820728Y-139820700D02*
G75*
G02*
X121174251Y-140674260I-853528J-853500D01*
G01*
%TO.N,/CAM_GPIO_1*%
X119011260Y-132477688D02*
X117419937Y-130886379D01*
X115911611Y-130886371D02*
X115398000Y-131400000D01*
X126000000Y-138600000D02*
X125749496Y-138349508D01*
X119953279Y-134752005D02*
X122522952Y-137321630D01*
X125144736Y-138099010D02*
X124399652Y-138098995D01*
X117419937Y-130886379D02*
G75*
G03*
X116665771Y-130574030I-754137J-754221D01*
G01*
X119011260Y-132477688D02*
G75*
G02*
X119482282Y-133614848I-1137060J-1137112D01*
G01*
X115911611Y-130886371D02*
G75*
G02*
X116665771Y-130573958I754189J-754129D01*
G01*
X122522952Y-137321630D02*
G75*
G03*
X124399652Y-138098980I1876748J1876830D01*
G01*
X125144736Y-138099010D02*
G75*
G02*
X125749483Y-138349521I-36J-855290D01*
G01*
X119953279Y-134752005D02*
G75*
G02*
X119482279Y-133614848I1137121J1137105D01*
G01*
%TO.N,/CAM_GPIO_0*%
X123980097Y-138925006D02*
X124401000Y-138925000D01*
X119387371Y-134753186D02*
X123261572Y-138627388D01*
X116703031Y-131203032D02*
X118775179Y-133275155D01*
X116500000Y-131150000D02*
X116574999Y-131150000D01*
X116574999Y-131150000D02*
G75*
G02*
X116703039Y-131203024I1J-181100D01*
G01*
X119387371Y-134753186D02*
G75*
G02*
X119081256Y-134014170I738929J738986D01*
G01*
X119081276Y-134014170D02*
G75*
G03*
X118775197Y-133275137I-1045076J70D01*
G01*
X123980097Y-138925006D02*
G75*
G02*
X123261585Y-138627375I3J1016106D01*
G01*
%TD*%
%TA.AperFunction,Conductor*%
%TO.N,/csi_sda*%
G36*
X123568034Y-139922762D02*
G01*
X124015761Y-140140500D01*
X124021702Y-140147200D01*
X124021166Y-140156139D01*
X124020395Y-140157487D01*
X123877017Y-140373731D01*
X123873731Y-140377017D01*
X123657487Y-140520395D01*
X123648699Y-140522111D01*
X123641271Y-140517109D01*
X123640500Y-140515761D01*
X123422762Y-140068034D01*
X123422226Y-140059095D01*
X123425009Y-140054646D01*
X123554645Y-139925010D01*
X123562917Y-139921584D01*
X123568034Y-139922762D01*
G37*
%TD.AperFunction*%
%TD*%
%TA.AperFunction,Conductor*%
%TO.N,/csi_scl*%
G36*
X126213586Y-139704147D02*
G01*
X126221825Y-139707653D01*
X126225171Y-139715959D01*
X126224955Y-139718088D01*
X126175452Y-139971676D01*
X126173678Y-139975963D01*
X126028724Y-140191492D01*
X126021263Y-140196445D01*
X126012486Y-140194672D01*
X126011204Y-140193674D01*
X125686461Y-139902483D01*
X125682589Y-139894408D01*
X125682572Y-139893772D01*
X125682572Y-139710807D01*
X125685999Y-139702537D01*
X125694270Y-139699110D01*
X126213586Y-139704147D01*
G37*
%TD.AperFunction*%
%TD*%
%TA.AperFunction,Conductor*%
%TO.N,/CAM_GPIO_0*%
G36*
X116735292Y-131005939D02*
G01*
X117009341Y-131365976D01*
X117011625Y-131374633D01*
X117008304Y-131381334D01*
X116878661Y-131510979D01*
X116870388Y-131514406D01*
X116867831Y-131514123D01*
X116457462Y-131422205D01*
X116450138Y-131417053D01*
X116448537Y-131408542D01*
X116498353Y-131154091D01*
X116503304Y-131146633D01*
X116719519Y-131003274D01*
X116728306Y-131001559D01*
X116735292Y-131005939D01*
G37*
%TD.AperFunction*%
%TD*%
%TA.AperFunction,Conductor*%
%TO.N,GND*%
G36*
X114566688Y-133987539D02*
G01*
X114975723Y-134152272D01*
X114982116Y-134158540D01*
X114982826Y-134165406D01*
X114946891Y-134346070D01*
X114941916Y-134353516D01*
X114940119Y-134354501D01*
X114661737Y-134476723D01*
X114652785Y-134476911D01*
X114647322Y-134472535D01*
X114501743Y-134255865D01*
X114499974Y-134247087D01*
X114499988Y-134247016D01*
X114516530Y-134165406D01*
X114550853Y-133996067D01*
X114555855Y-133988641D01*
X114564644Y-133986926D01*
X114566688Y-133987539D01*
G37*
%TD.AperFunction*%
%TD*%
%TA.AperFunction,Conductor*%
%TO.N,+3V3*%
G36*
X122437303Y-139804979D02*
G01*
X122850942Y-140056468D01*
X122856231Y-140063693D01*
X122854861Y-140072542D01*
X122854615Y-140072929D01*
X122710574Y-140290174D01*
X122707288Y-140293460D01*
X122490043Y-140437501D01*
X122481255Y-140439217D01*
X122473827Y-140434215D01*
X122473597Y-140433853D01*
X122222093Y-140020190D01*
X122220723Y-140011341D01*
X122223815Y-140005841D01*
X122422953Y-139806702D01*
X122431225Y-139803276D01*
X122437303Y-139804979D01*
G37*
%TD.AperFunction*%
%TD*%
%TA.AperFunction,Conductor*%
%TO.N,/CAM_GPIO_1*%
G36*
X115718347Y-130950006D02*
G01*
X115847982Y-131079636D01*
X115851409Y-131087909D01*
X115850231Y-131093026D01*
X115632499Y-131540760D01*
X115625799Y-131546701D01*
X115616860Y-131546165D01*
X115615512Y-131545394D01*
X115515146Y-131478848D01*
X115399266Y-131402015D01*
X115395984Y-131398733D01*
X115252603Y-131182485D01*
X115250888Y-131173698D01*
X115255890Y-131166270D01*
X115257223Y-131165507D01*
X115704958Y-130947756D01*
X115713896Y-130947221D01*
X115718347Y-130950006D01*
G37*
%TD.AperFunction*%
%TD*%
%TA.AperFunction,Conductor*%
%TO.N,/CAM_GPIO_1*%
G36*
X125673313Y-138158289D02*
G01*
X126049338Y-138302246D01*
X126055839Y-138308405D01*
X126056637Y-138315420D01*
X126001769Y-138595757D01*
X125996817Y-138603218D01*
X125996757Y-138603258D01*
X125762115Y-138759000D01*
X125753327Y-138760720D01*
X125745897Y-138755722D01*
X125744946Y-138753986D01*
X125678255Y-138603258D01*
X125556078Y-138327125D01*
X125555865Y-138318174D01*
X125557047Y-138315897D01*
X125659403Y-138162715D01*
X125666848Y-138157741D01*
X125673313Y-138158289D01*
G37*
%TD.AperFunction*%
%TD*%
%TA.AperFunction,Conductor*%
%TO.N,+3V3*%
G36*
X116260453Y-131853719D02*
G01*
X116261108Y-131854124D01*
X116478062Y-131997969D01*
X116481348Y-132001254D01*
X116625198Y-132218203D01*
X116626914Y-132226992D01*
X116621913Y-132234420D01*
X116621223Y-132234844D01*
X116248019Y-132446698D01*
X116239132Y-132447802D01*
X116234126Y-132444950D01*
X116030913Y-132249219D01*
X116027332Y-132241011D01*
X116028873Y-132234985D01*
X116244487Y-131858064D01*
X116251570Y-131852586D01*
X116260453Y-131853719D01*
G37*
%TD.AperFunction*%
%TD*%
%TA.AperFunction,Conductor*%
%TO.N,/csi_sda*%
G36*
X116768251Y-132850127D02*
G01*
X116772873Y-132856295D01*
X116898729Y-133252682D01*
X116897967Y-133261605D01*
X116895851Y-133264496D01*
X116766213Y-133394134D01*
X116757940Y-133397561D01*
X116751494Y-133395624D01*
X116356999Y-133135113D01*
X116351983Y-133127695D01*
X116353683Y-133118903D01*
X116353695Y-133118885D01*
X116496590Y-132903369D01*
X116504016Y-132898368D01*
X116759476Y-132848354D01*
X116768251Y-132850127D01*
G37*
%TD.AperFunction*%
%TD*%
%TA.AperFunction,Conductor*%
%TO.N,/csi_scl*%
G36*
X118097099Y-133465139D02*
G01*
X118101505Y-133470698D01*
X118267048Y-133907566D01*
X118266775Y-133916517D01*
X118260253Y-133922653D01*
X118256376Y-133923409D01*
X118075677Y-133927559D01*
X118070496Y-133926481D01*
X117687902Y-133749506D01*
X117681832Y-133742922D01*
X117682195Y-133733975D01*
X117683068Y-133732413D01*
X117825567Y-133518186D01*
X117832999Y-133513199D01*
X118088324Y-133463361D01*
X118097099Y-133465139D01*
G37*
%TD.AperFunction*%
%TD*%
%TA.AperFunction,Conductor*%
%TO.N,GND*%
G36*
X121274335Y-140675597D02*
G01*
X121277178Y-140679899D01*
X121439107Y-141107739D01*
X121438831Y-141116690D01*
X121432307Y-141122823D01*
X121430489Y-141123348D01*
X121176608Y-141174793D01*
X121171961Y-141174793D01*
X120918084Y-141123357D01*
X120910656Y-141118356D01*
X120908940Y-141109567D01*
X120909478Y-141107714D01*
X121071487Y-140683704D01*
X121077641Y-140677199D01*
X121082169Y-140676183D01*
X121265993Y-140672344D01*
X121274335Y-140675597D01*
G37*
%TD.AperFunction*%
%TD*%
%TA.AperFunction,Conductor*%
%TO.N,/CAM_GPIO_0*%
G36*
X124343420Y-138660437D02*
G01*
X124349556Y-138666959D01*
X124350082Y-138668784D01*
X124401509Y-138922870D01*
X124401509Y-138927515D01*
X124350032Y-139181482D01*
X124345030Y-139188910D01*
X124336241Y-139190625D01*
X124334633Y-139190177D01*
X123971041Y-139060428D01*
X123870218Y-139024449D01*
X123863579Y-139018442D01*
X123862676Y-139011150D01*
X123898461Y-138831257D01*
X123903435Y-138823814D01*
X123905784Y-138822603D01*
X124334471Y-138660164D01*
X124343420Y-138660437D01*
G37*
%TD.AperFunction*%
%TD*%
M02*
