%TF.GenerationSoftware,KiCad,Pcbnew,9.0.3-9.0.3-0~ubuntu24.04.1*%
%TF.CreationDate,2025-09-10T15:10:14+02:00*%
%TF.ProjectId,debix_rpi_22,64656269-785f-4727-9069-5f32322e6b69,rev?*%
%TF.SameCoordinates,Original*%
%TF.FileFunction,Soldermask,Top*%
%TF.FilePolarity,Negative*%
%FSLAX46Y46*%
G04 Gerber Fmt 4.6, Leading zero omitted, Abs format (unit mm)*
G04 Created by KiCad (PCBNEW 9.0.3-9.0.3-0~ubuntu24.04.1) date 2025-09-10 15:10:14*
%MOMM*%
%LPD*%
G01*
G04 APERTURE LIST*
%ADD10R,4.000000X0.300000*%
G04 APERTURE END LIST*
D10*
%TO.C,J3*%
X178000000Y-130000000D03*
X178000000Y-130500000D03*
X178000000Y-131000000D03*
X178000000Y-131500000D03*
X178000000Y-132000000D03*
X178000000Y-132500000D03*
X178000000Y-133000000D03*
X178000000Y-133500000D03*
X178000000Y-134000000D03*
X178000000Y-134500000D03*
X178000000Y-135000000D03*
X178000000Y-135500000D03*
X178000000Y-136000000D03*
X178000000Y-136500000D03*
X178000000Y-137000000D03*
X178000000Y-137500000D03*
X178000000Y-138000000D03*
X178000000Y-138500000D03*
X178000000Y-139000000D03*
X178000000Y-139500000D03*
X178000000Y-140000000D03*
X178000000Y-140500000D03*
%TD*%
%TO.C,J1*%
X112000000Y-130000000D03*
X112000000Y-130500000D03*
X112000000Y-131000000D03*
X112000000Y-131500000D03*
X112000000Y-132000000D03*
X112000000Y-132500000D03*
X112000000Y-133000000D03*
X112000000Y-133500000D03*
X112000000Y-134000000D03*
X112000000Y-134500000D03*
X112000000Y-135000000D03*
X112000000Y-135500000D03*
X112000000Y-136000000D03*
X112000000Y-136500000D03*
X112000000Y-137000000D03*
X112000000Y-137500000D03*
X112000000Y-138000000D03*
X112000000Y-138500000D03*
X112000000Y-139000000D03*
X112000000Y-139500000D03*
X112000000Y-140000000D03*
X112000000Y-140500000D03*
X112000000Y-141000000D03*
X112000000Y-141500000D03*
%TD*%
M02*
