%TF.GenerationSoftware,KiCad,Pcbnew,9.0.3-9.0.3-0~ubuntu24.04.1*%
%TF.CreationDate,2025-09-10T15:10:14+02:00*%
%TF.ProjectId,debix_rpi_22,64656269-785f-4727-9069-5f32322e6b69,rev?*%
%TF.SameCoordinates,Original*%
%TF.FileFunction,Copper,L1,Top*%
%TF.FilePolarity,Positive*%
%FSLAX46Y46*%
G04 Gerber Fmt 4.6, Leading zero omitted, Abs format (unit mm)*
G04 Created by KiCad (PCBNEW 9.0.3-9.0.3-0~ubuntu24.04.1) date 2025-09-10 15:10:14*
%MOMM*%
%LPD*%
G01*
G04 APERTURE LIST*
%TA.AperFunction,Conductor*%
%ADD10C,0.200000*%
%TD*%
%ADD11C,0.200000*%
%TA.AperFunction,SMDPad,CuDef*%
%ADD12R,4.000000X0.300000*%
%TD*%
%TA.AperFunction,ViaPad*%
%ADD13C,0.550000*%
%TD*%
%TA.AperFunction,ViaPad*%
%ADD14C,0.600000*%
%TD*%
%TA.AperFunction,Conductor*%
%ADD15C,0.300000*%
%TD*%
G04 APERTURE END LIST*
D10*
%TO.N,GND*%
X123499208Y-139417460D02*
X122674699Y-139489156D01*
X123000000Y-139200000D01*
X123204278Y-138938196D01*
X123499208Y-139417460D01*
%TA.AperFunction,Conductor*%
G36*
X123499208Y-139417460D02*
G01*
X122674699Y-139489156D01*
X123000000Y-139200000D01*
X123204278Y-138938196D01*
X123499208Y-139417460D01*
G37*
%TD.AperFunction*%
D11*
X123800000Y-139500000D02*
X123795005Y-139498741D01*
X123790044Y-139497470D01*
X123785132Y-139496191D01*
X123780254Y-139494900D01*
X123775424Y-139493601D01*
X123770628Y-139492290D01*
X123765879Y-139490972D01*
X123761163Y-139489642D01*
X123756494Y-139488305D01*
X123751859Y-139486956D01*
X123747268Y-139485600D01*
X123742712Y-139484233D01*
X123738200Y-139482858D01*
X123733721Y-139481473D01*
X123729286Y-139480080D01*
X123724884Y-139478677D01*
X123720526Y-139477267D01*
X123716200Y-139475846D01*
X123711917Y-139474418D01*
X123707666Y-139472980D01*
X123703458Y-139471535D01*
X123699281Y-139470080D01*
X123695146Y-139468618D01*
X123691043Y-139467147D01*
X123686981Y-139465669D01*
X123682950Y-139464180D01*
X123678959Y-139462686D01*
X123675000Y-139461182D01*
X123671080Y-139459672D01*
X123667191Y-139458152D01*
X123663342Y-139456626D01*
X123659522Y-139455090D01*
X123655742Y-139453549D01*
X123651992Y-139451998D01*
X123648280Y-139450441D01*
X123644597Y-139448876D01*
X123640952Y-139447304D01*
X123637337Y-139445724D01*
X123633759Y-139444138D01*
X123630210Y-139442543D01*
X123626697Y-139440942D01*
X123623213Y-139439333D01*
X123619766Y-139437718D01*
X123616347Y-139436095D01*
X123612963Y-139434466D01*
X123609608Y-139432829D01*
X123606287Y-139431187D01*
X123602995Y-139429536D01*
X123599737Y-139427880D01*
X123596507Y-139426216D01*
X123593310Y-139424547D01*
X123590141Y-139422870D01*
X123587006Y-139421187D01*
X123583897Y-139419497D01*
X123580822Y-139417802D01*
X123577773Y-139416098D01*
X123574757Y-139414390D01*
X123571767Y-139412674D01*
X123568810Y-139410954D01*
X123565878Y-139409225D01*
X123562978Y-139407492D01*
X123560104Y-139405751D01*
X123557261Y-139404006D01*
X123554444Y-139402253D01*
X123551657Y-139400495D01*
X123548896Y-139398730D01*
X123546165Y-139396961D01*
X123543459Y-139395184D01*
X123540782Y-139393402D01*
X123538131Y-139391613D01*
X123535508Y-139389820D01*
X123532911Y-139388019D01*
X123530342Y-139386214D01*
X123527797Y-139384402D01*
X123525281Y-139382585D01*
X123522789Y-139380761D01*
X123520325Y-139378933D01*
X123517885Y-139377098D01*
X123515472Y-139375258D01*
X123513083Y-139373411D01*
X123510720Y-139371560D01*
X123508382Y-139369702D01*
X123506070Y-139367840D01*
X123503781Y-139365971D01*
X123501518Y-139364097D01*
X123499279Y-139362216D01*
X123497065Y-139360331D01*
X123494874Y-139358439D01*
X123492708Y-139356543D01*
X123490565Y-139354640D01*
X123488447Y-139352732D01*
X123486352Y-139350819D01*
X123484281Y-139348900D01*
X123482232Y-139346974D01*
X123480208Y-139345044D01*
X123478205Y-139343108D01*
X123476227Y-139341166D01*
X123474270Y-139339219D01*
X123472337Y-139337266D01*
X123470425Y-139335307D01*
X123468537Y-139333343D01*
X123466670Y-139331373D01*
X123464826Y-139329398D01*
X123463003Y-139327417D01*
X123461203Y-139325430D01*
X123459424Y-139323437D01*
X123457667Y-139321438D01*
X123455932Y-139319434D01*
X123454217Y-139317424D01*
X123452525Y-139315409D01*
X123450853Y-139313387D01*
X123449202Y-139311360D01*
X123447572Y-139309326D01*
X123445964Y-139307287D01*
X123444375Y-139305242D01*
X123442808Y-139303191D01*
X123441261Y-139301133D01*
X123439735Y-139299071D01*
X123438228Y-139297001D01*
X123436743Y-139294926D01*
X123435277Y-139292845D01*
X123433831Y-139290758D01*
X123432405Y-139288663D01*
X123431000Y-139286564D01*
X123429613Y-139284457D01*
X123428248Y-139282345D01*
X123425574Y-139278101D01*
X123422978Y-139273831D01*
X123420460Y-139269535D01*
X123418019Y-139265212D01*
X123415654Y-139260862D01*
X123413365Y-139256485D01*
X123411151Y-139252080D01*
X123409012Y-139247647D01*
X123406948Y-139243185D01*
X123404959Y-139238694D01*
X123403043Y-139234173D01*
X123401201Y-139229621D01*
X123399433Y-139225039D01*
X123397738Y-139220426D01*
X123396117Y-139215780D01*
X123394568Y-139211102D01*
X123393093Y-139206391D01*
X123391691Y-139201646D01*
X123390362Y-139196867D01*
X123389106Y-139192053D01*
X123387923Y-139187203D01*
X123386813Y-139182318D01*
X123385777Y-139177395D01*
X123384814Y-139172435D01*
X123383926Y-139167436D01*
X123383111Y-139162399D01*
X123382371Y-139157322D01*
X123381706Y-139152205D01*
X123381116Y-139147048D01*
X123380602Y-139141848D01*
X123380163Y-139136606D01*
X123379801Y-139131321D01*
X123379517Y-139125993D01*
X123379309Y-139120620D01*
X123379180Y-139115202D01*
X123379129Y-139109738D01*
X123379158Y-139104228D01*
X123379267Y-139098670D01*
X123379457Y-139093064D01*
X123379728Y-139087410D01*
X123380082Y-139081706D01*
X123380519Y-139075952D01*
X123381039Y-139070148D01*
X123381644Y-139064291D01*
X123382335Y-139058383D01*
X123383113Y-139052422D01*
X123383978Y-139046407D01*
X123384931Y-139040338D01*
X123385974Y-139034214D01*
X123387107Y-139028034D01*
X123388332Y-139021799D01*
X123389649Y-139015506D01*
X123391059Y-139009156D01*
X123392565Y-139002747D01*
X123394166Y-138996280D01*
X123395864Y-138989754D01*
X123397660Y-138983168D01*
X123399555Y-138976521D01*
X123401550Y-138969813D01*
X123403647Y-138963043D01*
X123405847Y-138956211D01*
X123408151Y-138949317D01*
X123410560Y-138942360D01*
X123413075Y-138935339D01*
X123415698Y-138928253D01*
X123418430Y-138921104D01*
X123421272Y-138913889D01*
X123424225Y-138906609D01*
X123427291Y-138899264D01*
X123430471Y-138891853D01*
X123433766Y-138884376D01*
X123437177Y-138876832D01*
X123440706Y-138869221D01*
X123444354Y-138861544D01*
X123448121Y-138853800D01*
X123452010Y-138845989D01*
X123456021Y-138838110D01*
X123460155Y-138830165D01*
X123464414Y-138822153D01*
X123468799Y-138814074D01*
X123473310Y-138805928D01*
X123477949Y-138797716D01*
X123482717Y-138789437D01*
X123487615Y-138781093D01*
X123492642Y-138772684D01*
X123497802Y-138764210D01*
X123503093Y-138755672D01*
X123508516Y-138747071D01*
X123514073Y-138738407D01*
X123519764Y-138729682D01*
X123525589Y-138720897D01*
X123531547Y-138712053D01*
X123537641Y-138703151D01*
X123543869Y-138694194D01*
X123550231Y-138685182D01*
X123556726Y-138676118D01*
X123563355Y-138667004D01*
X123570117Y-138657842D01*
X123577010Y-138648636D01*
X123584033Y-138639388D01*
X123591184Y-138630101D01*
X123598462Y-138620780D01*
X123605864Y-138611428D01*
X123613388Y-138602050D01*
X123621029Y-138592651D01*
X123628784Y-138583236D01*
X123636649Y-138573813D01*
X123644618Y-138564387D01*
X123652685Y-138554967D01*
X123660843Y-138545562D01*
X123669083Y-138536182D01*
X123677396Y-138526837D01*
X123685771Y-138517540D01*
X123694194Y-138508307D01*
X123702651Y-138499152D01*
X123711124Y-138490095D01*
X123719591Y-138481158D01*
X123728028Y-138472365D01*
X123736406Y-138463746D01*
X123744691Y-138455333D01*
X123750000Y-138450000D01*
%TD*%
D12*
%TO.P,J3,1,Pin_1*%
%TO.N,GND*%
X178000000Y-130000000D03*
%TO.P,J3,2,Pin_2*%
%TO.N,/csi_d0_N*%
X178000000Y-130500000D03*
%TO.P,J3,3,Pin_3*%
%TO.N,/csi_d0_P*%
X178000000Y-131000000D03*
%TO.P,J3,4,Pin_4*%
%TO.N,GND*%
X178000000Y-131500000D03*
%TO.P,J3,5,Pin_5*%
%TO.N,/csi_d1_N*%
X178000000Y-132000000D03*
%TO.P,J3,6,Pin_6*%
%TO.N,/csi_d1_P*%
X178000000Y-132500000D03*
%TO.P,J3,7,Pin_7*%
%TO.N,GND*%
X178000000Y-133000000D03*
%TO.P,J3,8,Pin_8*%
%TO.N,/csi_clk_N*%
X178000000Y-133500000D03*
%TO.P,J3,9,Pin_9*%
%TO.N,/csi_clk_P*%
X178000000Y-134000000D03*
%TO.P,J3,10,Pin_10*%
%TO.N,GND*%
X178000000Y-134500000D03*
%TO.P,J3,11,Pin_11*%
%TO.N,/csi_d2_N*%
X178000000Y-135000000D03*
%TO.P,J3,12,Pin_12*%
%TO.N,/csi_d2_P*%
X178000000Y-135500000D03*
%TO.P,J3,13,Pin_13*%
%TO.N,GND*%
X178000000Y-136000000D03*
%TO.P,J3,14,Pin_14*%
%TO.N,/csi_d3_N*%
X178000000Y-136500000D03*
%TO.P,J3,15,Pin_15*%
%TO.N,/csi_d3_P*%
X178000000Y-137000000D03*
%TO.P,J3,16,Pin_16*%
%TO.N,GND*%
X178000000Y-137500000D03*
%TO.P,J3,17,Pin_17*%
%TO.N,/CAM_GPIO_0*%
X178000000Y-138000000D03*
%TO.P,J3,18,Pin_18*%
%TO.N,/CAM_GPIO_1*%
X178000000Y-138500000D03*
%TO.P,J3,19,Pin_19*%
%TO.N,GND*%
X178000000Y-139000000D03*
%TO.P,J3,20,Pin_20*%
%TO.N,/csi_scl*%
X178000000Y-139500000D03*
%TO.P,J3,21,Pin_21*%
%TO.N,/csi_sda*%
X178000000Y-140000000D03*
%TO.P,J3,22,Pin_22*%
%TO.N,+3V3*%
X178000000Y-140500000D03*
%TD*%
%TO.P,J1,1,Pin_1*%
%TO.N,VDD_5V*%
X112000000Y-130000000D03*
%TO.P,J1,2,Pin_2*%
%TO.N,+3V3*%
X112000000Y-130500000D03*
%TO.P,J1,3,Pin_3*%
%TO.N,+1V8*%
X112000000Y-131000000D03*
%TO.P,J1,4,Pin_4*%
%TO.N,/CAM_GPIO_1*%
X112000000Y-131500000D03*
%TO.P,J1,5,Pin_5*%
%TO.N,/CAM_GPIO_0*%
X112000000Y-132000000D03*
%TO.P,J1,6,Pin_6*%
%TO.N,/csi_sda*%
X112000000Y-132500000D03*
%TO.P,J1,7,Pin_7*%
%TO.N,/csi_scl*%
X112000000Y-133000000D03*
%TO.P,J1,8,Pin_8*%
%TO.N,unconnected-(J1-Pin_8-Pad8)*%
X112000000Y-133500000D03*
%TO.P,J1,9,Pin_9*%
%TO.N,unconnected-(J1-Pin_9-Pad9)*%
X112000000Y-134000000D03*
%TO.P,J1,10,Pin_10*%
%TO.N,GND*%
X112000000Y-134500000D03*
%TO.P,J1,11,Pin_11*%
%TO.N,/csi_d0_N*%
X112000000Y-135000000D03*
%TO.P,J1,12,Pin_12*%
%TO.N,/csi_d0_P*%
X112000000Y-135500000D03*
%TO.P,J1,13,Pin_13*%
%TO.N,GND*%
X112000000Y-136000000D03*
%TO.P,J1,14,Pin_14*%
%TO.N,/csi_d1_N*%
X112000000Y-136500000D03*
%TO.P,J1,15,Pin_15*%
%TO.N,/csi_d1_P*%
X112000000Y-137000000D03*
%TO.P,J1,16,Pin_16*%
%TO.N,GND*%
X112000000Y-137500000D03*
%TO.P,J1,17,Pin_17*%
%TO.N,/csi_clk_N*%
X112000000Y-138000000D03*
%TO.P,J1,18,Pin_18*%
%TO.N,/csi_clk_P*%
X112000000Y-138500000D03*
%TO.P,J1,19,Pin_19*%
%TO.N,GND*%
X112000000Y-139000000D03*
%TO.P,J1,20,Pin_20*%
%TO.N,/csi_d2_N*%
X112000000Y-139500000D03*
%TO.P,J1,21,Pin_21*%
%TO.N,/csi_d2_P*%
X112000000Y-140000000D03*
%TO.P,J1,22,Pin_22*%
%TO.N,GND*%
X112000000Y-140500000D03*
%TO.P,J1,23,Pin_23*%
%TO.N,/csi_d3_N*%
X112000000Y-141000000D03*
%TO.P,J1,24,Pin_24*%
%TO.N,/csi_d3_P*%
X112000000Y-141500000D03*
%TD*%
D13*
%TO.N,/csi_scl*%
X117828293Y-133515121D03*
X126174000Y-139974000D03*
%TO.N,+3V3*%
X116479346Y-132000000D03*
X122708557Y-140291443D03*
%TO.N,/csi_sda*%
X116500000Y-132900000D03*
X123875000Y-140375000D03*
%TO.N,GND*%
X114499997Y-134252003D03*
X121174265Y-141174265D03*
D14*
%TO.N,/CAM_GPIO_1*%
X126000000Y-138600000D03*
D13*
X115398000Y-131400000D03*
%TO.N,/CAM_GPIO_0*%
X124401000Y-138925000D03*
X116500000Y-131150000D03*
%TD*%
D10*
%TO.N,/csi_scl*%
X113887754Y-133000000D02*
X112000000Y-133000000D01*
X115131366Y-133515121D02*
X117828293Y-133515121D01*
X126174000Y-139974000D02*
X126355897Y-139792102D01*
X127435484Y-139610205D02*
X126795036Y-139610205D01*
X127701539Y-139500000D02*
X178000000Y-139500000D01*
X127701539Y-139500000D02*
G75*
G03*
X127568498Y-139555089I-39J-188100D01*
G01*
X126795036Y-139610205D02*
G75*
G03*
X126355888Y-139792093I-36J-620995D01*
G01*
X127568512Y-139555103D02*
G75*
G02*
X127435484Y-139610201I-133012J133003D01*
G01*
X115131366Y-133515121D02*
G75*
G02*
X114509586Y-133257534I34J879321D01*
G01*
X114509560Y-133257560D02*
G75*
G03*
X113887754Y-133000042I-621760J-621840D01*
G01*
%TO.N,/csi_d0_N*%
X116678928Y-134999989D02*
X112000000Y-135000000D01*
X125686865Y-130500002D02*
X178000000Y-130500000D01*
X120526690Y-133406195D02*
X121839103Y-132093791D01*
X125686865Y-130500002D02*
G75*
G03*
X121839115Y-132093803I35J-5441598D01*
G01*
X120526690Y-133406195D02*
G75*
G02*
X116678928Y-135000000I-3847790J3847795D01*
G01*
D15*
%TO.N,+3V3*%
X117499978Y-131215782D02*
X117499984Y-131883135D01*
X127839597Y-140501000D02*
X178000000Y-140501000D01*
X126634903Y-140999988D02*
X123918135Y-141000011D01*
X116784216Y-130500024D02*
X112000000Y-130500000D01*
X116479346Y-132000000D02*
X117383135Y-131999985D01*
X122708557Y-140291443D02*
X123062832Y-140645729D01*
X117499978Y-131215782D02*
G75*
G03*
X116784216Y-130500022I-715778J-18D01*
G01*
X126634903Y-140999988D02*
G75*
G03*
X127237254Y-140750497I-3J851888D01*
G01*
X117383135Y-131999985D02*
G75*
G03*
X117465750Y-131965750I-35J116885D01*
G01*
X117499984Y-131883135D02*
G75*
G02*
X117465749Y-131965749I-116884J35D01*
G01*
X123918135Y-141000011D02*
G75*
G02*
X123062827Y-140645734I-35J1209511D01*
G01*
X127839597Y-140501000D02*
G75*
G03*
X127237244Y-140750487I3J-851900D01*
G01*
D10*
%TO.N,/csi_sda*%
X123875000Y-140375000D02*
X123962000Y-140461999D01*
X124172036Y-140548999D02*
X126412740Y-140549010D01*
X115717155Y-132500000D02*
X112000000Y-132500000D01*
X177987911Y-139987788D02*
X177951000Y-139951000D01*
X116500000Y-132900000D02*
X116449999Y-132900001D01*
X127738143Y-139999982D02*
X177947884Y-139999999D01*
X116199998Y-132700001D02*
X116364643Y-132864647D01*
X116364643Y-132864647D02*
G75*
G03*
X116449999Y-132900006I85357J85347D01*
G01*
X123962000Y-140461999D02*
G75*
G03*
X124172036Y-140548984I210000J209999D01*
G01*
X177982817Y-140000059D02*
G75*
G03*
X177947884Y-139999999I-34917J-10169841D01*
G01*
X115717155Y-132500000D02*
G75*
G02*
X116200012Y-132699987I45J-682800D01*
G01*
X127738143Y-139999982D02*
G75*
G03*
X127075430Y-140274485I-43J-937118D01*
G01*
X126412740Y-140549010D02*
G75*
G03*
X127075430Y-140274485I-40J937210D01*
G01*
X177987911Y-139987788D02*
G75*
G02*
X177982817Y-140000129I-5111J-5112D01*
G01*
%TO.N,/csi_d2_P*%
X117494289Y-139999987D02*
X112000000Y-140000000D01*
X126502222Y-135499993D02*
X178000000Y-135500000D01*
X121342049Y-138406192D02*
X122654463Y-137093783D01*
X126502222Y-135499993D02*
G75*
G03*
X122654464Y-137093784I-22J-5441507D01*
G01*
X117494289Y-139999987D02*
G75*
G03*
X121342062Y-138406205I11J5441587D01*
G01*
%TO.N,/csi_d1_P*%
X126052665Y-132500002D02*
X178000000Y-132500000D01*
X117044728Y-136999989D02*
X112000000Y-137000000D01*
X122204903Y-134093791D02*
X120892491Y-135406196D01*
X117044728Y-136999989D02*
G75*
G03*
X120892482Y-135406187I-28J5441589D01*
G01*
X126052665Y-132500002D02*
G75*
G03*
X122204915Y-134093803I35J-5441598D01*
G01*
%TO.N,GND*%
X121870194Y-140196927D02*
X121273781Y-140793346D01*
X126368035Y-134500021D02*
X178000000Y-134500000D01*
X114000000Y-134500000D02*
X113874000Y-134500000D01*
X113748000Y-134500000D02*
X113874000Y-134500000D01*
X113496000Y-134500000D02*
X113748000Y-134500000D01*
X126656868Y-139201000D02*
X125963188Y-139201003D01*
X120459596Y-132906206D02*
X121772007Y-131593803D01*
X114000000Y-134500000D02*
X114125999Y-134499998D01*
X117111828Y-137499989D02*
X112000000Y-137500000D01*
X125918471Y-131500015D02*
X178000000Y-131500000D01*
X120959591Y-135906196D02*
X122272003Y-134593791D01*
X121174275Y-141033554D02*
X121174265Y-141174265D01*
X114000000Y-134500000D02*
X114126000Y-134500000D01*
X113496000Y-134500000D02*
X112000000Y-134500000D01*
X121273765Y-140793334D02*
X122973306Y-139093775D01*
X114000000Y-134500000D02*
X114000000Y-134500000D01*
X116910532Y-135999995D02*
X112000000Y-136000000D01*
X127142125Y-138999989D02*
X178000000Y-139000000D01*
X117360088Y-138999988D02*
X112000000Y-139000000D01*
X123550273Y-139501003D02*
X125238922Y-139500991D01*
X116611832Y-134499996D02*
X114126000Y-134500000D01*
X117611832Y-140499996D02*
X112000000Y-140500000D01*
X122772006Y-137593803D02*
X121459595Y-138906206D01*
X125619771Y-130000015D02*
X178000000Y-130000000D01*
X126119765Y-133000002D02*
X178000000Y-133000000D01*
X113748000Y-134500000D02*
X113496000Y-134500000D01*
X113748000Y-134500000D02*
X113874000Y-134500000D01*
X114126000Y-134500000D02*
X114126000Y-134500000D01*
X114126000Y-134500000D02*
X114126000Y-134500000D01*
X114341093Y-134410902D02*
X114499997Y-134252003D01*
X114000000Y-134500000D02*
X114000000Y-134500000D01*
X126821052Y-137499976D02*
X178000000Y-137500000D01*
X122520266Y-136093805D02*
X121207857Y-137406199D01*
X122070707Y-133093803D02*
X120758296Y-134406206D01*
X114000000Y-134500000D02*
X113874000Y-134500000D01*
X126619770Y-136000015D02*
X178000000Y-136000000D01*
X114126000Y-134500000D02*
X114126000Y-134500000D01*
X123550273Y-139501003D02*
G75*
G03*
X121870200Y-140196933I27J-2375997D01*
G01*
X126368035Y-134500021D02*
G75*
G03*
X122520253Y-136093792I-35J-5441579D01*
G01*
X122772006Y-137593803D02*
G75*
G02*
X126619770Y-135999995I3847794J-3847797D01*
G01*
X120459596Y-132906206D02*
G75*
G02*
X116611832Y-134500012I-3847796J3847806D01*
G01*
X120959591Y-135906196D02*
G75*
G02*
X117111828Y-137500002I-3847791J3847796D01*
G01*
X114341093Y-134410902D02*
G75*
G02*
X114125999Y-134499994I-215093J215102D01*
G01*
X113748000Y-134500000D02*
X113748000Y-134500000D01*
X125601055Y-139350997D02*
G75*
G02*
X125963188Y-139201009I362145J-362203D01*
G01*
X120758296Y-134406206D02*
G75*
G02*
X116910532Y-136000012I-3847796J3847806D01*
G01*
X113874000Y-134500000D02*
X113874000Y-134500000D01*
X117611832Y-140499996D02*
G75*
G03*
X121459584Y-138906195I-32J5441596D01*
G01*
X114000000Y-134500000D02*
X114000000Y-134500000D01*
X126899497Y-139100494D02*
G75*
G02*
X126656868Y-139200982I-242597J242594D01*
G01*
X125238922Y-139500991D02*
G75*
G03*
X125601053Y-139350995I-22J512191D01*
G01*
X114000000Y-134500000D02*
X114000000Y-134500000D01*
X117360088Y-138999988D02*
G75*
G03*
X121207863Y-137406205I12J5441588D01*
G01*
X126821052Y-137499976D02*
G75*
G03*
X122973277Y-139093746I-52J-5441524D01*
G01*
X114000000Y-134500000D02*
X114000000Y-134500000D01*
X121273765Y-140793334D02*
X121273765Y-140793334D01*
X121174275Y-141033554D02*
G75*
G02*
X121273796Y-140793361I339725J-46D01*
G01*
X122070707Y-133093803D02*
G75*
G02*
X125918471Y-131499996I3847793J-3847797D01*
G01*
X121772007Y-131593803D02*
G75*
G02*
X125619771Y-129999996I3847793J-3847797D01*
G01*
X126119765Y-133000002D02*
G75*
G03*
X122272015Y-134593803I35J-5441598D01*
G01*
X127142125Y-138999989D02*
G75*
G03*
X126899485Y-139100482I-25J-343111D01*
G01*
%TO.N,/csi_d2_N*%
X126435135Y-135000021D02*
X178000000Y-135000000D01*
X117427196Y-139500000D02*
X112000000Y-139500000D01*
X121274960Y-137906212D02*
X122587371Y-136593809D01*
X121274960Y-137906212D02*
G75*
G02*
X117427196Y-139499991I-3847760J3847812D01*
G01*
X126435135Y-135000021D02*
G75*
G03*
X122587354Y-136593792I-35J-5441579D01*
G01*
%TO.N,/csi_d0_P*%
X120593791Y-133906196D02*
X121906203Y-132593791D01*
X125753965Y-131000002D02*
X178000000Y-131000000D01*
X116746028Y-135499989D02*
X112000000Y-135500000D01*
X125753965Y-131000002D02*
G75*
G03*
X121906215Y-132593803I35J-5441598D01*
G01*
X120593791Y-133906196D02*
G75*
G02*
X116746028Y-135500002I-3847791J3847796D01*
G01*
%TO.N,/csi_d3_P*%
X126753971Y-137000015D02*
X178000000Y-137000000D01*
X117746028Y-141499989D02*
X112000000Y-141500000D01*
X122906205Y-138593801D02*
X121593794Y-139906198D01*
X121593794Y-139906198D02*
G75*
G02*
X117746028Y-141500005I-3847794J3847798D01*
G01*
X122906205Y-138593801D02*
G75*
G02*
X126753971Y-136999993I3847795J-3847799D01*
G01*
%TO.N,/csi_clk_N*%
X117178934Y-137999995D02*
X112000000Y-138000000D01*
X122339101Y-135093771D02*
X121026684Y-136406196D01*
X126186852Y-133499976D02*
X178000000Y-133500000D01*
X126186852Y-133499976D02*
G75*
G03*
X122339076Y-135093746I-52J-5441524D01*
G01*
X117178934Y-137999995D02*
G75*
G03*
X121026662Y-136406174I-34J5441495D01*
G01*
%TO.N,/csi_d3_N*%
X126686871Y-136500015D02*
X178000000Y-136500000D01*
X117678932Y-140999995D02*
X112000000Y-141000000D01*
X121526695Y-139406205D02*
X122839107Y-138093803D01*
X117678932Y-140999995D02*
G75*
G03*
X121526684Y-139406194I-32J5441595D01*
G01*
X126686871Y-136500015D02*
G75*
G03*
X122839120Y-138093816I29J-5441585D01*
G01*
%TO.N,/csi_clk_P*%
X117246033Y-138499996D02*
X112000000Y-138500000D01*
X122406205Y-135593793D02*
X121093792Y-136906204D01*
X126253964Y-134000002D02*
X178000000Y-134000000D01*
X122406205Y-135593793D02*
G75*
G02*
X126253964Y-133999988I3847795J-3847807D01*
G01*
X117246033Y-138499996D02*
G75*
G03*
X121093783Y-136906195I-33J5441596D01*
G01*
%TO.N,/csi_d1_N*%
X120825391Y-134906196D02*
X122137803Y-133593791D01*
X125985565Y-132000002D02*
X178000000Y-132000000D01*
X116977628Y-136499989D02*
X112000000Y-136500000D01*
X120825391Y-134906196D02*
G75*
G02*
X116977628Y-136500002I-3847791J3847796D01*
G01*
X125985565Y-132000002D02*
G75*
G03*
X122137815Y-133593803I35J-5441598D01*
G01*
%TO.N,/CAM_GPIO_1*%
X112008662Y-131499999D02*
X112000001Y-131499999D01*
X126000000Y-138600000D02*
X126480231Y-138599987D01*
X177987911Y-138512211D02*
X177951000Y-138549000D01*
X115360249Y-131437750D02*
X115398000Y-131400000D01*
X115360249Y-131437750D02*
X115398000Y-131400000D01*
X112083648Y-131451000D02*
X112049000Y-131451001D01*
X115269113Y-131475895D02*
X112025985Y-131499935D01*
X115310937Y-131451000D02*
X115346999Y-131451000D01*
X126721653Y-138500012D02*
X177947884Y-138500000D01*
X126600942Y-138549999D02*
G75*
G02*
X126480231Y-138599995I-120742J120799D01*
G01*
X115360249Y-131437750D02*
X115360249Y-131437750D01*
X115269113Y-131475895D02*
G75*
G03*
X115360235Y-131437736I-1013J130295D01*
G01*
X177987911Y-138512211D02*
G75*
G03*
X177982817Y-138499872I-5111J5111D01*
G01*
X112008662Y-131499999D02*
G75*
G03*
X112025985Y-131499935I38J2344799D01*
G01*
X115269113Y-131475895D02*
G75*
G03*
X115360235Y-131437736I-1013J130295D01*
G01*
X177982817Y-138499941D02*
G75*
G02*
X177947884Y-138500000I-35217J10520541D01*
G01*
X126600942Y-138549999D02*
G75*
G02*
X126721653Y-138499992I120758J-120801D01*
G01*
%TO.N,/CAM_GPIO_0*%
X115048961Y-132000013D02*
X112000000Y-132000000D01*
X178062664Y-137982825D02*
X179899000Y-137951000D01*
X177983713Y-138016313D02*
X177951000Y-138049000D01*
X124401000Y-138925000D02*
X124863500Y-138462500D01*
X116075003Y-131575008D02*
X116500000Y-131150000D01*
X177965351Y-138000000D02*
X178000283Y-137999882D01*
X178024500Y-137975500D02*
X177999999Y-138000000D01*
X125980073Y-137999797D02*
X177970182Y-137983641D01*
X116075003Y-131575008D02*
G75*
G02*
X115048961Y-131999991I-1026003J1026008D01*
G01*
X125980073Y-137999797D02*
G75*
G03*
X124863511Y-138462511I527J-1579803D01*
G01*
X177970182Y-137983641D02*
G75*
G02*
X177983747Y-138016347I18J-19159D01*
G01*
X178062664Y-137982825D02*
G75*
G03*
X177983692Y-138016292I1936J-114475D01*
G01*
X178062664Y-137982825D02*
G75*
G02*
X177970182Y-137983641I-94364J5454325D01*
G01*
%TD*%
%TA.AperFunction,Conductor*%
%TO.N,GND*%
G36*
X176007097Y-134350533D02*
G01*
X177845360Y-134488333D01*
X177853353Y-134492368D01*
X177856152Y-134500875D01*
X177852117Y-134508868D01*
X177845360Y-134511667D01*
X176041398Y-134646896D01*
X176039649Y-134646896D01*
X176022452Y-134645607D01*
X176014877Y-134645180D01*
X176013959Y-134645145D01*
X176006849Y-134645011D01*
X176006222Y-134645000D01*
X176000403Y-134645000D01*
X176000399Y-134645000D01*
X175990369Y-134645805D01*
X175985733Y-134645243D01*
X175858000Y-134602667D01*
X175851235Y-134596800D01*
X175850000Y-134591571D01*
X175850000Y-134408434D01*
X175853427Y-134400162D01*
X175857999Y-134397335D01*
X175996703Y-134351099D01*
X176000403Y-134350500D01*
X176006222Y-134350500D01*
X176007097Y-134350533D01*
G37*
%TD.AperFunction*%
%TD*%
%TA.AperFunction,Conductor*%
%TO.N,/csi_scl*%
G36*
X117770947Y-133250307D02*
G01*
X117776888Y-133257007D01*
X117777297Y-133258506D01*
X117828822Y-133512798D01*
X117828822Y-133517444D01*
X117777297Y-133771735D01*
X117772295Y-133779163D01*
X117763507Y-133780879D01*
X117762008Y-133780470D01*
X117291455Y-133617843D01*
X117284755Y-133611902D01*
X117283577Y-133606785D01*
X117283577Y-133423456D01*
X117287004Y-133415183D01*
X117291453Y-133412398D01*
X117762009Y-133249771D01*
X117770947Y-133250307D01*
G37*
%TD.AperFunction*%
%TD*%
%TA.AperFunction,Conductor*%
%TO.N,/CAM_GPIO_1*%
G36*
X126175661Y-138354538D02*
G01*
X126505172Y-138500368D01*
X126508876Y-138502963D01*
X126634061Y-138633326D01*
X126637320Y-138641667D01*
X126633726Y-138649869D01*
X126630203Y-138652196D01*
X126175563Y-138845657D01*
X126166609Y-138845743D01*
X126161275Y-138841423D01*
X126003661Y-138607204D01*
X126001886Y-138598429D01*
X126003644Y-138594169D01*
X126161203Y-138358728D01*
X126168652Y-138353760D01*
X126175661Y-138354538D01*
G37*
%TD.AperFunction*%
%TD*%
%TA.AperFunction,Conductor*%
%TO.N,/csi_clk_P*%
G36*
X113977555Y-138354392D02*
G01*
X113985172Y-138354821D01*
X113986047Y-138354854D01*
X113993792Y-138355000D01*
X113993796Y-138355000D01*
X113999594Y-138355000D01*
X114009627Y-138354191D01*
X114014258Y-138354752D01*
X114141999Y-138397331D01*
X114148764Y-138403199D01*
X114149999Y-138408431D01*
X114149999Y-138591563D01*
X114146572Y-138599836D01*
X114141999Y-138602663D01*
X114014257Y-138645244D01*
X114009619Y-138645806D01*
X113999603Y-138645000D01*
X113999600Y-138645000D01*
X113993765Y-138645000D01*
X113993150Y-138645011D01*
X113986027Y-138645145D01*
X113985109Y-138645180D01*
X113977534Y-138645607D01*
X113960356Y-138646894D01*
X113958607Y-138646894D01*
X112154639Y-138511666D01*
X112146646Y-138507631D01*
X112143847Y-138499124D01*
X112147882Y-138491131D01*
X112154636Y-138488333D01*
X113958619Y-138353102D01*
X113960346Y-138353102D01*
X113977555Y-138354392D01*
G37*
%TD.AperFunction*%
%TD*%
%TA.AperFunction,Conductor*%
%TO.N,/csi_scl*%
G36*
X114002091Y-132885060D02*
G01*
X114100064Y-132916903D01*
X114173146Y-132940656D01*
X114179955Y-132946472D01*
X114180657Y-132955399D01*
X114180340Y-132956260D01*
X114111076Y-133123509D01*
X114104744Y-133129841D01*
X114102451Y-133130526D01*
X114014336Y-133147274D01*
X114003713Y-133149294D01*
X114001530Y-133149500D01*
X113993785Y-133149500D01*
X113992908Y-133149467D01*
X112174864Y-133012829D01*
X112166871Y-133008792D01*
X112164074Y-133000285D01*
X112168111Y-132992292D01*
X112175064Y-132989482D01*
X113997806Y-132884507D01*
X114002091Y-132885060D01*
G37*
%TD.AperFunction*%
%TD*%
%TA.AperFunction,Conductor*%
%TO.N,GND*%
G36*
X176007110Y-132850533D02*
G01*
X177845362Y-132988333D01*
X177853353Y-132992367D01*
X177856152Y-133000874D01*
X177852117Y-133008867D01*
X177845360Y-133011666D01*
X176041404Y-133146895D01*
X176039655Y-133146895D01*
X176022465Y-133145607D01*
X176014890Y-133145180D01*
X176013972Y-133145145D01*
X176006862Y-133145011D01*
X176006235Y-133145000D01*
X176000400Y-133145000D01*
X176000398Y-133145000D01*
X175990375Y-133145807D01*
X175985736Y-133145245D01*
X175858000Y-133102666D01*
X175851235Y-133096798D01*
X175850000Y-133091570D01*
X175850000Y-132908433D01*
X175853427Y-132900161D01*
X175857999Y-132897334D01*
X175996700Y-132851099D01*
X176000400Y-132850500D01*
X176006235Y-132850500D01*
X176007110Y-132850533D01*
G37*
%TD.AperFunction*%
%TD*%
%TA.AperFunction,Conductor*%
%TO.N,/csi_sda*%
G36*
X124036530Y-140154302D02*
G01*
X124037793Y-140155283D01*
X124362888Y-140445511D01*
X124366777Y-140453577D01*
X124366796Y-140454239D01*
X124366796Y-140637206D01*
X124363369Y-140645479D01*
X124355096Y-140648906D01*
X124355004Y-140648906D01*
X123861564Y-140645031D01*
X123860738Y-140644995D01*
X123834969Y-140642967D01*
X123826990Y-140638902D01*
X123824223Y-140630385D01*
X123824399Y-140629095D01*
X123873548Y-140377320D01*
X123875319Y-140373039D01*
X124020292Y-140157481D01*
X124027753Y-140152529D01*
X124036530Y-140154302D01*
G37*
%TD.AperFunction*%
%TD*%
%TA.AperFunction,Conductor*%
%TO.N,/CAM_GPIO_1*%
G36*
X115251151Y-131180168D02*
G01*
X115396268Y-131395933D01*
X115398042Y-131404711D01*
X115398027Y-131404786D01*
X115348405Y-131649696D01*
X115347240Y-131651425D01*
X115346914Y-131653486D01*
X115344837Y-131654994D01*
X115343404Y-131657124D01*
X115339669Y-131658750D01*
X115318607Y-131663806D01*
X115313704Y-131663926D01*
X114873106Y-131580689D01*
X114865613Y-131575786D01*
X114863578Y-131569281D01*
X114862220Y-131385935D01*
X114865586Y-131377637D01*
X114868344Y-131375563D01*
X115235871Y-131176410D01*
X115244775Y-131175483D01*
X115251151Y-131180168D01*
G37*
%TD.AperFunction*%
%TD*%
%TA.AperFunction,Conductor*%
%TO.N,/csi_d1_P*%
G36*
X114003300Y-136851100D02*
G01*
X114141999Y-136897329D01*
X114148764Y-136903196D01*
X114149999Y-136908429D01*
X114149999Y-137091561D01*
X114146572Y-137099834D01*
X114141999Y-137102661D01*
X114003288Y-137148900D01*
X113999588Y-137149500D01*
X113993818Y-137149500D01*
X113992943Y-137149467D01*
X112154640Y-137011666D01*
X112146647Y-137007631D01*
X112143848Y-136999124D01*
X112147883Y-136991131D01*
X112154637Y-136988333D01*
X113992890Y-136850533D01*
X113993765Y-136850500D01*
X113999600Y-136850500D01*
X114003300Y-136851100D01*
G37*
%TD.AperFunction*%
%TD*%
%TA.AperFunction,Conductor*%
%TO.N,GND*%
G36*
X176007110Y-138850533D02*
G01*
X177845361Y-138988333D01*
X177853354Y-138992368D01*
X177856153Y-139000875D01*
X177852118Y-139008868D01*
X177845361Y-139011667D01*
X176007110Y-139149467D01*
X176006235Y-139149500D01*
X176000400Y-139149500D01*
X175996700Y-139148900D01*
X175858000Y-139102665D01*
X175851235Y-139096797D01*
X175850000Y-139091565D01*
X175850000Y-139000000D01*
X175850000Y-138908430D01*
X175853427Y-138900160D01*
X175857997Y-138897334D01*
X175996700Y-138851099D01*
X176000400Y-138850500D01*
X176006235Y-138850500D01*
X176007110Y-138850533D01*
G37*
%TD.AperFunction*%
%TD*%
%TA.AperFunction,Conductor*%
%TO.N,/csi_d2_P*%
G36*
X114003300Y-139851100D02*
G01*
X114142000Y-139897328D01*
X114148764Y-139903195D01*
X114149999Y-139908428D01*
X114149999Y-140091560D01*
X114146572Y-140099833D01*
X114141999Y-140102660D01*
X114003285Y-140148900D01*
X113999585Y-140149500D01*
X113993831Y-140149500D01*
X113992956Y-140149467D01*
X112154641Y-140011666D01*
X112146648Y-140007631D01*
X112143849Y-139999124D01*
X112147884Y-139991131D01*
X112154638Y-139988333D01*
X113992890Y-139850533D01*
X113993765Y-139850500D01*
X113999600Y-139850500D01*
X114003300Y-139851100D01*
G37*
%TD.AperFunction*%
%TD*%
%TA.AperFunction,Conductor*%
%TO.N,/csi_d3_P*%
G36*
X114003300Y-141351100D02*
G01*
X114141999Y-141397329D01*
X114148764Y-141403196D01*
X114149999Y-141408429D01*
X114149999Y-141591561D01*
X114146572Y-141599834D01*
X114141999Y-141602661D01*
X114002228Y-141649253D01*
X113997653Y-141649820D01*
X112154640Y-141511666D01*
X112146647Y-141507631D01*
X112143848Y-141499124D01*
X112147883Y-141491131D01*
X112154637Y-141488333D01*
X113992890Y-141350533D01*
X113993765Y-141350500D01*
X113999600Y-141350500D01*
X114003300Y-141351100D01*
G37*
%TD.AperFunction*%
%TD*%
%TA.AperFunction,Conductor*%
%TO.N,GND*%
G36*
X113977595Y-135854392D02*
G01*
X113985211Y-135854821D01*
X113986086Y-135854854D01*
X113993831Y-135855000D01*
X113993835Y-135855000D01*
X113999585Y-135855000D01*
X114009627Y-135854191D01*
X114014254Y-135854751D01*
X114141999Y-135897331D01*
X114148764Y-135903199D01*
X114149999Y-135908431D01*
X114149999Y-136091563D01*
X114146572Y-136099836D01*
X114141999Y-136102663D01*
X114014257Y-136145244D01*
X114009619Y-136145806D01*
X113999603Y-136145000D01*
X113999600Y-136145000D01*
X113993765Y-136145000D01*
X113993150Y-136145011D01*
X113986027Y-136145145D01*
X113985109Y-136145180D01*
X113977534Y-136145607D01*
X113960356Y-136146894D01*
X113958607Y-136146894D01*
X112154639Y-136011666D01*
X112146646Y-136007631D01*
X112143847Y-135999124D01*
X112147882Y-135991131D01*
X112154636Y-135988333D01*
X113958646Y-135853100D01*
X113960359Y-135853100D01*
X113977595Y-135854392D01*
G37*
%TD.AperFunction*%
%TD*%
%TA.AperFunction,Conductor*%
%TO.N,+3V3*%
G36*
X116544785Y-131733158D02*
G01*
X117015130Y-131847815D01*
X117022356Y-131853104D01*
X117024059Y-131859182D01*
X117024063Y-132140800D01*
X117020636Y-132149073D01*
X117015134Y-132152167D01*
X116544817Y-132266833D01*
X116535968Y-132265463D01*
X116530679Y-132258237D01*
X116530579Y-132257789D01*
X116478817Y-132002319D01*
X116478817Y-131997680D01*
X116530580Y-131742207D01*
X116535581Y-131734781D01*
X116544369Y-131733065D01*
X116544785Y-131733158D01*
G37*
%TD.AperFunction*%
%TD*%
%TA.AperFunction,Conductor*%
%TO.N,GND*%
G36*
X114747340Y-134301219D02*
G01*
X114754790Y-134306189D01*
X114756543Y-134314970D01*
X114753061Y-134321238D01*
X114668911Y-134399999D01*
X114668911Y-134583481D01*
X114665484Y-134591754D01*
X114657211Y-134595181D01*
X114653329Y-134594518D01*
X114455885Y-134525073D01*
X114449218Y-134519095D01*
X114448284Y-134511794D01*
X114470108Y-134400000D01*
X114496750Y-134263517D01*
X114501698Y-134256055D01*
X114510473Y-134254277D01*
X114747340Y-134301219D01*
G37*
%TD.AperFunction*%
%TD*%
%TA.AperFunction,Conductor*%
%TO.N,GND*%
G36*
X114003300Y-138851100D02*
G01*
X114141999Y-138897329D01*
X114148764Y-138903196D01*
X114149999Y-138908429D01*
X114149999Y-139091561D01*
X114146572Y-139099834D01*
X114141999Y-139102661D01*
X114003288Y-139148900D01*
X113999588Y-139149500D01*
X113993818Y-139149500D01*
X113992943Y-139149467D01*
X112154640Y-139011666D01*
X112146647Y-139007631D01*
X112143848Y-138999124D01*
X112147883Y-138991131D01*
X112154637Y-138988333D01*
X113992890Y-138850533D01*
X113993765Y-138850500D01*
X113999600Y-138850500D01*
X114003300Y-138851100D01*
G37*
%TD.AperFunction*%
%TD*%
%TA.AperFunction,Conductor*%
%TO.N,/csi_d0_P*%
G36*
X176007110Y-130850533D02*
G01*
X177845363Y-130988333D01*
X177853354Y-130992367D01*
X177856153Y-131000874D01*
X177852118Y-131008867D01*
X177845361Y-131011666D01*
X176041398Y-131146896D01*
X176039649Y-131146896D01*
X176022452Y-131145607D01*
X176014877Y-131145180D01*
X176013959Y-131145145D01*
X176006849Y-131145011D01*
X176006222Y-131145000D01*
X176000403Y-131145000D01*
X176000399Y-131145000D01*
X175990369Y-131145805D01*
X175985733Y-131145243D01*
X175858000Y-131102666D01*
X175851235Y-131096798D01*
X175850000Y-131091570D01*
X175850000Y-130908433D01*
X175853427Y-130900161D01*
X175857999Y-130897334D01*
X175996700Y-130851099D01*
X176000400Y-130850500D01*
X176006235Y-130850500D01*
X176007110Y-130850533D01*
G37*
%TD.AperFunction*%
%TD*%
%TA.AperFunction,Conductor*%
%TO.N,/csi_clk_P*%
G36*
X177845363Y-133988333D02*
G01*
X177853354Y-133992367D01*
X177856153Y-134000874D01*
X177852118Y-134008867D01*
X177845361Y-134011666D01*
X176041398Y-134146896D01*
X176039649Y-134146896D01*
X176022452Y-134145607D01*
X176014877Y-134145180D01*
X176013959Y-134145145D01*
X176006849Y-134145011D01*
X176006222Y-134145000D01*
X176000403Y-134145000D01*
X176000399Y-134145000D01*
X175990369Y-134145805D01*
X175985733Y-134145243D01*
X175858000Y-134102666D01*
X175851235Y-134096798D01*
X175850000Y-134091570D01*
X175850000Y-133908433D01*
X175853427Y-133900161D01*
X175857999Y-133897334D01*
X175985744Y-133854751D01*
X175990370Y-133854191D01*
X176000403Y-133855000D01*
X176006218Y-133855000D01*
X176006222Y-133855000D01*
X176013967Y-133854854D01*
X176014842Y-133854821D01*
X176022459Y-133854392D01*
X176039668Y-133853102D01*
X176041381Y-133853102D01*
X177845363Y-133988333D01*
G37*
%TD.AperFunction*%
%TD*%
%TA.AperFunction,Conductor*%
%TO.N,/CAM_GPIO_1*%
G36*
X176007110Y-138350533D02*
G01*
X177845362Y-138488333D01*
X177853353Y-138492367D01*
X177856152Y-138500874D01*
X177852117Y-138508867D01*
X177845360Y-138511666D01*
X176041404Y-138646895D01*
X176039655Y-138646895D01*
X176022465Y-138645607D01*
X176014890Y-138645180D01*
X176013972Y-138645145D01*
X176006862Y-138645011D01*
X176006235Y-138645000D01*
X176000400Y-138645000D01*
X176000396Y-138645000D01*
X175990369Y-138645805D01*
X175985733Y-138645243D01*
X175858000Y-138602666D01*
X175851235Y-138596798D01*
X175850000Y-138591570D01*
X175850000Y-138408433D01*
X175853427Y-138400161D01*
X175857999Y-138397334D01*
X175996700Y-138351099D01*
X176000400Y-138350500D01*
X176006235Y-138350500D01*
X176007110Y-138350533D01*
G37*
%TD.AperFunction*%
%TD*%
%TA.AperFunction,Conductor*%
%TO.N,/csi_d2_P*%
G36*
X177845363Y-135488333D02*
G01*
X177853354Y-135492367D01*
X177856153Y-135500874D01*
X177852118Y-135508867D01*
X177845361Y-135511666D01*
X176041398Y-135646896D01*
X176039649Y-135646896D01*
X176022452Y-135645607D01*
X176014877Y-135645180D01*
X176013959Y-135645145D01*
X176006849Y-135645011D01*
X176006222Y-135645000D01*
X176000403Y-135645000D01*
X176000399Y-135645000D01*
X175990369Y-135645805D01*
X175985733Y-135645243D01*
X175858000Y-135602665D01*
X175851235Y-135596797D01*
X175850000Y-135591565D01*
X175850000Y-135500000D01*
X175850000Y-135408430D01*
X175853427Y-135400160D01*
X175857997Y-135397334D01*
X175985744Y-135354751D01*
X175990368Y-135354191D01*
X176000400Y-135355000D01*
X176006231Y-135355000D01*
X176006235Y-135355000D01*
X176013980Y-135354854D01*
X176014855Y-135354821D01*
X176022472Y-135354392D01*
X176039667Y-135353103D01*
X176041394Y-135353103D01*
X177845363Y-135488333D01*
G37*
%TD.AperFunction*%
%TD*%
%TA.AperFunction,Conductor*%
%TO.N,GND*%
G36*
X114242888Y-134200870D02*
G01*
X114491367Y-134250479D01*
X114498809Y-134255460D01*
X114500543Y-134259630D01*
X114551378Y-134510522D01*
X114549662Y-134519310D01*
X114542507Y-134524253D01*
X114223952Y-134596745D01*
X114215125Y-134595240D01*
X114209948Y-134587933D01*
X114209656Y-134585345D01*
X114209656Y-134400592D01*
X114209717Y-134399403D01*
X114224440Y-134255460D01*
X114228971Y-134211154D01*
X114233222Y-134203274D01*
X114241800Y-134200707D01*
X114242888Y-134200870D01*
G37*
%TD.AperFunction*%
%TD*%
%TA.AperFunction,Conductor*%
%TO.N,/csi_d3_P*%
G36*
X177845361Y-136988333D02*
G01*
X177853354Y-136992368D01*
X177856153Y-137000875D01*
X177852118Y-137008868D01*
X177845361Y-137011667D01*
X176007110Y-137149467D01*
X176006235Y-137149500D01*
X176000400Y-137149500D01*
X175996700Y-137148900D01*
X175858000Y-137102667D01*
X175851235Y-137096799D01*
X175850000Y-137091571D01*
X175850000Y-136908434D01*
X175853427Y-136900162D01*
X175857999Y-136897335D01*
X175985742Y-136854753D01*
X175990375Y-136854192D01*
X175998588Y-136854854D01*
X176000399Y-136855000D01*
X176000400Y-136855000D01*
X176006231Y-136855000D01*
X176006235Y-136855000D01*
X176013980Y-136854854D01*
X176014855Y-136854821D01*
X176022472Y-136854392D01*
X176039667Y-136853103D01*
X176041381Y-136853103D01*
X177845361Y-136988333D01*
G37*
%TD.AperFunction*%
%TD*%
%TA.AperFunction,Conductor*%
%TO.N,/csi_d1_P*%
G36*
X176007110Y-132350533D02*
G01*
X177845362Y-132488333D01*
X177853353Y-132492367D01*
X177856152Y-132500874D01*
X177852117Y-132508867D01*
X177845360Y-132511666D01*
X176041404Y-132646895D01*
X176039655Y-132646895D01*
X176022465Y-132645607D01*
X176014890Y-132645180D01*
X176013972Y-132645145D01*
X176006862Y-132645011D01*
X176006235Y-132645000D01*
X176000400Y-132645000D01*
X176000396Y-132645000D01*
X175990369Y-132645805D01*
X175985733Y-132645243D01*
X175858000Y-132602666D01*
X175851235Y-132596798D01*
X175850000Y-132591570D01*
X175850000Y-132408433D01*
X175853427Y-132400161D01*
X175857999Y-132397334D01*
X175996700Y-132351099D01*
X176000400Y-132350500D01*
X176006235Y-132350500D01*
X176007110Y-132350533D01*
G37*
%TD.AperFunction*%
%TD*%
%TA.AperFunction,Conductor*%
%TO.N,/csi_scl*%
G36*
X177845363Y-139488333D02*
G01*
X177853354Y-139492367D01*
X177856153Y-139500874D01*
X177852118Y-139508867D01*
X177845361Y-139511666D01*
X176041404Y-139646895D01*
X176039655Y-139646895D01*
X176022465Y-139645607D01*
X176014890Y-139645180D01*
X176013972Y-139645145D01*
X176006862Y-139645011D01*
X176006235Y-139645000D01*
X176000400Y-139645000D01*
X176000398Y-139645000D01*
X175990375Y-139645807D01*
X175985736Y-139645245D01*
X175858000Y-139602666D01*
X175851235Y-139596798D01*
X175850000Y-139591566D01*
X175850000Y-139408433D01*
X175853427Y-139400160D01*
X175857998Y-139397333D01*
X175985744Y-139354751D01*
X175990368Y-139354191D01*
X176000400Y-139355000D01*
X176006231Y-139355000D01*
X176006235Y-139355000D01*
X176013980Y-139354854D01*
X176014855Y-139354821D01*
X176022472Y-139354392D01*
X176039667Y-139353103D01*
X176041394Y-139353103D01*
X177845363Y-139488333D01*
G37*
%TD.AperFunction*%
%TD*%
%TA.AperFunction,Conductor*%
%TO.N,/csi_d2_N*%
G36*
X176007097Y-134850533D02*
G01*
X177845360Y-134988333D01*
X177853353Y-134992368D01*
X177856152Y-135000875D01*
X177852117Y-135008868D01*
X177845360Y-135011667D01*
X176007110Y-135149467D01*
X176006235Y-135149500D01*
X176000400Y-135149500D01*
X175996700Y-135148900D01*
X175858000Y-135102667D01*
X175851235Y-135096799D01*
X175850000Y-135091571D01*
X175850000Y-134908434D01*
X175853427Y-134900162D01*
X175857999Y-134897335D01*
X175996703Y-134851099D01*
X176000403Y-134850500D01*
X176006222Y-134850500D01*
X176007097Y-134850533D01*
G37*
%TD.AperFunction*%
%TD*%
%TA.AperFunction,Conductor*%
%TO.N,GND*%
G36*
X176007097Y-135850533D02*
G01*
X177845360Y-135988333D01*
X177853353Y-135992368D01*
X177856152Y-136000875D01*
X177852117Y-136008868D01*
X177845360Y-136011667D01*
X176041398Y-136146896D01*
X176039649Y-136146896D01*
X176022452Y-136145607D01*
X176014877Y-136145180D01*
X176013959Y-136145145D01*
X176006849Y-136145011D01*
X176006222Y-136145000D01*
X176000403Y-136145000D01*
X176000399Y-136145000D01*
X175990369Y-136145805D01*
X175985733Y-136145243D01*
X175858000Y-136102667D01*
X175851235Y-136096800D01*
X175850000Y-136091571D01*
X175850000Y-135908434D01*
X175853427Y-135900162D01*
X175857999Y-135897335D01*
X175996703Y-135851099D01*
X176000403Y-135850500D01*
X176006222Y-135850500D01*
X176007097Y-135850533D01*
G37*
%TD.AperFunction*%
%TD*%
%TA.AperFunction,Conductor*%
%TO.N,/csi_scl*%
G36*
X126570038Y-139550938D02*
G01*
X126576000Y-139557620D01*
X126576255Y-139558448D01*
X126623503Y-139734801D01*
X126622352Y-139743649D01*
X126408869Y-140115942D01*
X126401780Y-140121414D01*
X126392899Y-140120272D01*
X126392245Y-140119868D01*
X126177107Y-139976963D01*
X126172112Y-139969532D01*
X126122291Y-139714230D01*
X126124069Y-139705455D01*
X126129918Y-139700944D01*
X126561100Y-139550430D01*
X126570038Y-139550938D01*
G37*
%TD.AperFunction*%
%TD*%
%TA.AperFunction,Conductor*%
%TO.N,/csi_d0_N*%
G36*
X114003300Y-134851100D02*
G01*
X114142000Y-134897328D01*
X114148764Y-134903195D01*
X114149999Y-134908428D01*
X114149999Y-135091560D01*
X114146572Y-135099833D01*
X114141999Y-135102660D01*
X114014250Y-135145244D01*
X114009611Y-135145806D01*
X113999602Y-135145000D01*
X113999600Y-135145000D01*
X113993765Y-135145000D01*
X113993150Y-135145011D01*
X113986027Y-135145145D01*
X113985109Y-135145180D01*
X113977534Y-135145607D01*
X113960376Y-135146893D01*
X113958627Y-135146893D01*
X112154641Y-135011666D01*
X112146648Y-135007631D01*
X112143849Y-134999124D01*
X112147884Y-134991131D01*
X112154638Y-134988333D01*
X113992890Y-134850533D01*
X113993765Y-134850500D01*
X113999600Y-134850500D01*
X114003300Y-134851100D01*
G37*
%TD.AperFunction*%
%TD*%
%TA.AperFunction,Conductor*%
%TO.N,/csi_d1_N*%
G36*
X177845363Y-131988333D02*
G01*
X177853354Y-131992367D01*
X177856153Y-132000874D01*
X177852118Y-132008867D01*
X177845361Y-132011666D01*
X176041404Y-132146895D01*
X176039655Y-132146895D01*
X176022465Y-132145607D01*
X176014890Y-132145180D01*
X176013972Y-132145145D01*
X176006862Y-132145011D01*
X176006235Y-132145000D01*
X176000400Y-132145000D01*
X176000396Y-132145000D01*
X175990369Y-132145805D01*
X175985733Y-132145243D01*
X175858000Y-132102666D01*
X175851235Y-132096798D01*
X175850000Y-132091570D01*
X175850000Y-131908433D01*
X175853427Y-131900161D01*
X175857999Y-131897334D01*
X175985744Y-131854751D01*
X175990368Y-131854191D01*
X176000400Y-131855000D01*
X176006231Y-131855000D01*
X176006235Y-131855000D01*
X176013980Y-131854854D01*
X176014855Y-131854821D01*
X176022472Y-131854392D01*
X176039667Y-131853103D01*
X176041394Y-131853103D01*
X177845363Y-131988333D01*
G37*
%TD.AperFunction*%
%TD*%
%TA.AperFunction,Conductor*%
%TO.N,/csi_d0_P*%
G36*
X114003300Y-135351100D02*
G01*
X114142000Y-135397328D01*
X114148764Y-135403195D01*
X114149999Y-135408428D01*
X114149999Y-135591560D01*
X114146572Y-135599833D01*
X114141999Y-135602660D01*
X114003285Y-135648900D01*
X113999585Y-135649500D01*
X113993831Y-135649500D01*
X113992956Y-135649467D01*
X112154641Y-135511666D01*
X112146648Y-135507631D01*
X112143849Y-135499124D01*
X112147884Y-135491131D01*
X112154638Y-135488333D01*
X113992890Y-135350533D01*
X113993765Y-135350500D01*
X113999600Y-135350500D01*
X114003300Y-135351100D01*
G37*
%TD.AperFunction*%
%TD*%
%TA.AperFunction,Conductor*%
%TO.N,/CAM_GPIO_0*%
G36*
X114003273Y-131851100D02*
G01*
X114141999Y-131897343D01*
X114148764Y-131903211D01*
X114149999Y-131908443D01*
X114149999Y-132091575D01*
X114146572Y-132099848D01*
X114141998Y-132102675D01*
X114003300Y-132148900D01*
X113999601Y-132149500D01*
X113993765Y-132149500D01*
X113992890Y-132149467D01*
X112154643Y-132011667D01*
X112146650Y-132007632D01*
X112143851Y-131999125D01*
X112147886Y-131991132D01*
X112154641Y-131988333D01*
X113804511Y-131864662D01*
X113993010Y-131850533D01*
X113993885Y-131850500D01*
X113999573Y-131850500D01*
X114003273Y-131851100D01*
G37*
%TD.AperFunction*%
%TD*%
%TA.AperFunction,Conductor*%
%TO.N,GND*%
G36*
X121310600Y-140631647D02*
G01*
X121311066Y-140632088D01*
X121440325Y-140761346D01*
X121443752Y-140769611D01*
X121443974Y-141111025D01*
X121440553Y-141119301D01*
X121434580Y-141122504D01*
X121178346Y-141174009D01*
X121169559Y-141172279D01*
X121169505Y-141172243D01*
X120956756Y-141028987D01*
X120951808Y-141021524D01*
X120953586Y-141012747D01*
X120954571Y-141011482D01*
X121294080Y-140632553D01*
X121302152Y-140628679D01*
X121310600Y-140631647D01*
G37*
%TD.AperFunction*%
%TD*%
%TA.AperFunction,Conductor*%
%TO.N,/csi_sda*%
G36*
X113977528Y-132354392D02*
G01*
X113985145Y-132354821D01*
X113986020Y-132354854D01*
X113993765Y-132355000D01*
X113993769Y-132355000D01*
X113999600Y-132355000D01*
X113999601Y-132355000D01*
X114009629Y-132354192D01*
X114014256Y-132354752D01*
X114142000Y-132397333D01*
X114148765Y-132403201D01*
X114150000Y-132408433D01*
X114150000Y-132591566D01*
X114146573Y-132599839D01*
X114142000Y-132602666D01*
X114003300Y-132648900D01*
X113999600Y-132649500D01*
X113993765Y-132649500D01*
X113992890Y-132649467D01*
X112154637Y-132511666D01*
X112146644Y-132507631D01*
X112143845Y-132499124D01*
X112147880Y-132491131D01*
X112154633Y-132488333D01*
X113958606Y-132353103D01*
X113960333Y-132353103D01*
X113977528Y-132354392D01*
G37*
%TD.AperFunction*%
%TD*%
%TA.AperFunction,Conductor*%
%TO.N,/csi_d1_N*%
G36*
X114003300Y-136351100D02*
G01*
X114141999Y-136397329D01*
X114148764Y-136403196D01*
X114149999Y-136408429D01*
X114149999Y-136591561D01*
X114146572Y-136599834D01*
X114141999Y-136602661D01*
X114014252Y-136645244D01*
X114009613Y-136645806D01*
X113999602Y-136645000D01*
X113999600Y-136645000D01*
X113993765Y-136645000D01*
X113993150Y-136645011D01*
X113986027Y-136645145D01*
X113985109Y-136645180D01*
X113977534Y-136645607D01*
X113960369Y-136646893D01*
X113958620Y-136646893D01*
X112154641Y-136511666D01*
X112146648Y-136507631D01*
X112143849Y-136499124D01*
X112147884Y-136491131D01*
X112154638Y-136488333D01*
X113992890Y-136350533D01*
X113993765Y-136350500D01*
X113999600Y-136350500D01*
X114003300Y-136351100D01*
G37*
%TD.AperFunction*%
%TD*%
%TA.AperFunction,Conductor*%
%TO.N,/CAM_GPIO_0*%
G36*
X116281139Y-131003833D02*
G01*
X116282477Y-131004598D01*
X116498733Y-131147984D01*
X116502015Y-131151266D01*
X116622218Y-131332557D01*
X116645395Y-131367513D01*
X116647111Y-131376301D01*
X116642109Y-131383729D01*
X116640761Y-131384500D01*
X116193040Y-131602240D01*
X116184101Y-131602776D01*
X116179650Y-131599991D01*
X116050015Y-131470361D01*
X116046588Y-131462088D01*
X116047766Y-131456971D01*
X116091270Y-131367513D01*
X116265501Y-131009237D01*
X116272200Y-131003297D01*
X116281139Y-131003833D01*
G37*
%TD.AperFunction*%
%TD*%
%TA.AperFunction,Conductor*%
%TO.N,/CAM_GPIO_1*%
G36*
X114003469Y-131350794D02*
G01*
X114140236Y-131382127D01*
X114147534Y-131387314D01*
X114149322Y-131393444D01*
X114150674Y-131575734D01*
X114147308Y-131584033D01*
X114142731Y-131586901D01*
X114002213Y-131634546D01*
X113997667Y-131635139D01*
X112162746Y-131511078D01*
X112154723Y-131507101D01*
X112151862Y-131498616D01*
X112155839Y-131490593D01*
X112162659Y-131487738D01*
X113992890Y-131350532D01*
X113993765Y-131350500D01*
X114000858Y-131350500D01*
X114003469Y-131350794D01*
G37*
%TD.AperFunction*%
%TD*%
%TA.AperFunction,Conductor*%
%TO.N,/csi_sda*%
G36*
X176007110Y-139850533D02*
G01*
X177845362Y-139988333D01*
X177853353Y-139992367D01*
X177856152Y-140000874D01*
X177852117Y-140008867D01*
X177845360Y-140011666D01*
X176007083Y-140149467D01*
X176006208Y-140149500D01*
X176000406Y-140149500D01*
X175996706Y-140148900D01*
X175858000Y-140102663D01*
X175851235Y-140096795D01*
X175850000Y-140091563D01*
X175850000Y-140000000D01*
X175850000Y-139908428D01*
X175853427Y-139900158D01*
X175857997Y-139897332D01*
X175996700Y-139851100D01*
X176000400Y-139850500D01*
X176006235Y-139850500D01*
X176007110Y-139850533D01*
G37*
%TD.AperFunction*%
%TD*%
%TA.AperFunction,Conductor*%
%TO.N,/csi_d3_N*%
G36*
X114003300Y-140851100D02*
G01*
X114141999Y-140897331D01*
X114148764Y-140903198D01*
X114149999Y-140908431D01*
X114149999Y-141091563D01*
X114146572Y-141099836D01*
X114141999Y-141102663D01*
X114014257Y-141145244D01*
X114009619Y-141145806D01*
X113999603Y-141145000D01*
X113999600Y-141145000D01*
X113993765Y-141145000D01*
X113993150Y-141145011D01*
X113986027Y-141145145D01*
X113985109Y-141145180D01*
X113977534Y-141145607D01*
X113960356Y-141146894D01*
X113958607Y-141146894D01*
X112154640Y-141011666D01*
X112146647Y-141007631D01*
X112143848Y-140999124D01*
X112147883Y-140991131D01*
X112154637Y-140988333D01*
X113992890Y-140850533D01*
X113993765Y-140850500D01*
X113999600Y-140850500D01*
X114003300Y-140851100D01*
G37*
%TD.AperFunction*%
%TD*%
%TA.AperFunction,Conductor*%
%TO.N,/csi_sda*%
G36*
X116542446Y-132627857D02*
G01*
X116549806Y-132632958D01*
X116551452Y-132641535D01*
X116501803Y-132895698D01*
X116496854Y-132903161D01*
X116496788Y-132903204D01*
X116281746Y-133045881D01*
X116272958Y-133047600D01*
X116265529Y-133042600D01*
X116265131Y-133041957D01*
X116085364Y-132728835D01*
X116084218Y-132719955D01*
X116085376Y-132717167D01*
X116177740Y-132557178D01*
X116184844Y-132551729D01*
X116190345Y-132551595D01*
X116542446Y-132627857D01*
G37*
%TD.AperFunction*%
%TD*%
%TA.AperFunction,Conductor*%
%TO.N,+3V3*%
G36*
X122943042Y-140148832D02*
G01*
X122943428Y-140149455D01*
X123150925Y-140509739D01*
X123162792Y-140530343D01*
X123163951Y-140539222D01*
X123161057Y-140544322D01*
X122964831Y-140746903D01*
X122956613Y-140750462D01*
X122950560Y-140748886D01*
X122566526Y-140526327D01*
X122561087Y-140519214D01*
X122562270Y-140510337D01*
X122562632Y-140509753D01*
X122706530Y-140292721D01*
X122709809Y-140289441D01*
X122926826Y-140145546D01*
X122935614Y-140143831D01*
X122943042Y-140148832D01*
G37*
%TD.AperFunction*%
%TD*%
%TA.AperFunction,Conductor*%
%TO.N,/CAM_GPIO_0*%
G36*
X176007110Y-137850533D02*
G01*
X177837398Y-137987736D01*
X177845389Y-137991770D01*
X177848188Y-138000277D01*
X177844153Y-138008270D01*
X177837311Y-138011075D01*
X176002343Y-138135239D01*
X175997779Y-138134641D01*
X175857955Y-138086998D01*
X175851230Y-138081086D01*
X175850029Y-138075927D01*
X175849971Y-137893627D01*
X175853395Y-137885355D01*
X175859061Y-137882221D01*
X175962390Y-137858598D01*
X175996528Y-137850794D01*
X175999135Y-137850500D01*
X176006235Y-137850500D01*
X176007110Y-137850533D01*
G37*
%TD.AperFunction*%
%TD*%
%TA.AperFunction,Conductor*%
%TO.N,/csi_clk_N*%
G36*
X113977582Y-137854392D02*
G01*
X113985198Y-137854821D01*
X113986073Y-137854854D01*
X113993818Y-137855000D01*
X113993822Y-137855000D01*
X113999589Y-137855000D01*
X114000564Y-137854921D01*
X114009624Y-137854191D01*
X114014258Y-137854752D01*
X114141999Y-137897331D01*
X114148764Y-137903199D01*
X114149999Y-137908431D01*
X114149999Y-138091563D01*
X114146572Y-138099836D01*
X114141999Y-138102663D01*
X114003294Y-138148900D01*
X113999594Y-138149500D01*
X113993792Y-138149500D01*
X113992917Y-138149467D01*
X112154639Y-138011666D01*
X112146646Y-138007631D01*
X112143847Y-137999124D01*
X112147882Y-137991131D01*
X112154636Y-137988333D01*
X113958633Y-137853101D01*
X113960360Y-137853101D01*
X113977582Y-137854392D01*
G37*
%TD.AperFunction*%
%TD*%
%TA.AperFunction,Conductor*%
%TO.N,GND*%
G36*
X177845362Y-137488333D02*
G01*
X177853353Y-137492367D01*
X177856152Y-137500874D01*
X177852117Y-137508867D01*
X177845360Y-137511666D01*
X176041398Y-137646895D01*
X176039649Y-137646895D01*
X176022465Y-137645607D01*
X176014890Y-137645180D01*
X176013972Y-137645145D01*
X176006862Y-137645011D01*
X176006235Y-137645000D01*
X175999135Y-137645000D01*
X175999129Y-137645000D01*
X175989273Y-137645553D01*
X175984918Y-137644971D01*
X175858000Y-137602664D01*
X175851235Y-137596796D01*
X175850000Y-137591564D01*
X175850000Y-137500000D01*
X175850000Y-137408429D01*
X175853427Y-137400159D01*
X175857997Y-137397333D01*
X175985744Y-137354751D01*
X175990368Y-137354191D01*
X176000400Y-137355000D01*
X176006231Y-137355000D01*
X176006235Y-137355000D01*
X176013980Y-137354854D01*
X176014855Y-137354821D01*
X176022472Y-137354392D01*
X176039667Y-137353103D01*
X176041394Y-137353103D01*
X177845362Y-137488333D01*
G37*
%TD.AperFunction*%
%TD*%
%TA.AperFunction,Conductor*%
%TO.N,GND*%
G36*
X176007097Y-131350533D02*
G01*
X177845360Y-131488333D01*
X177853353Y-131492368D01*
X177856152Y-131500875D01*
X177852117Y-131508868D01*
X177845360Y-131511667D01*
X176007110Y-131649467D01*
X176006235Y-131649500D01*
X176000400Y-131649500D01*
X175996700Y-131648900D01*
X175858000Y-131602667D01*
X175851235Y-131596799D01*
X175850000Y-131591571D01*
X175850000Y-131408434D01*
X175853427Y-131400162D01*
X175857999Y-131397335D01*
X175996703Y-131351099D01*
X176000403Y-131350500D01*
X176006222Y-131350500D01*
X176007097Y-131350533D01*
G37*
%TD.AperFunction*%
%TD*%
%TA.AperFunction,Conductor*%
%TO.N,GND*%
G36*
X113977582Y-137354392D02*
G01*
X113985198Y-137354821D01*
X113986073Y-137354854D01*
X113993818Y-137355000D01*
X113993822Y-137355000D01*
X113999589Y-137355000D01*
X114000564Y-137354921D01*
X114009624Y-137354191D01*
X114014259Y-137354752D01*
X114141999Y-137397329D01*
X114148764Y-137403196D01*
X114149999Y-137408429D01*
X114149999Y-137591561D01*
X114146572Y-137599834D01*
X114141999Y-137602661D01*
X114003288Y-137648900D01*
X113999588Y-137649500D01*
X113993818Y-137649500D01*
X113992943Y-137649467D01*
X112154640Y-137511666D01*
X112146647Y-137507631D01*
X112143848Y-137499124D01*
X112147883Y-137491131D01*
X112154637Y-137488333D01*
X113958633Y-137353101D01*
X113960360Y-137353101D01*
X113977582Y-137354392D01*
G37*
%TD.AperFunction*%
%TD*%
%TA.AperFunction,Conductor*%
%TO.N,/CAM_GPIO_0*%
G36*
X124721355Y-138475011D02*
G01*
X124850988Y-138604644D01*
X124854415Y-138612917D01*
X124853237Y-138618034D01*
X124635499Y-139065761D01*
X124628799Y-139071702D01*
X124619860Y-139071166D01*
X124618518Y-139070398D01*
X124402266Y-138927015D01*
X124398984Y-138923733D01*
X124255603Y-138707485D01*
X124253888Y-138698699D01*
X124258890Y-138691271D01*
X124260232Y-138690503D01*
X124707966Y-138472761D01*
X124716904Y-138472226D01*
X124721355Y-138475011D01*
G37*
%TD.AperFunction*%
%TD*%
%TA.AperFunction,Conductor*%
%TO.N,/csi_d2_N*%
G36*
X113977582Y-139354392D02*
G01*
X113985198Y-139354821D01*
X113986073Y-139354854D01*
X113993818Y-139355000D01*
X113993822Y-139355000D01*
X113999589Y-139355000D01*
X114000564Y-139354921D01*
X114009624Y-139354191D01*
X114014257Y-139354752D01*
X114142000Y-139397333D01*
X114148765Y-139403201D01*
X114150000Y-139408433D01*
X114150000Y-139591566D01*
X114146573Y-139599839D01*
X114142000Y-139602666D01*
X114014262Y-139645245D01*
X114009623Y-139645807D01*
X113999602Y-139645000D01*
X113999600Y-139645000D01*
X113993765Y-139645000D01*
X113993150Y-139645011D01*
X113986027Y-139645145D01*
X113985109Y-139645180D01*
X113977534Y-139645607D01*
X113960343Y-139646895D01*
X113958594Y-139646895D01*
X112154637Y-139511666D01*
X112146644Y-139507631D01*
X112143845Y-139499124D01*
X112147880Y-139491131D01*
X112154633Y-139488333D01*
X113958633Y-139353101D01*
X113960360Y-139353101D01*
X113977582Y-139354392D01*
G37*
%TD.AperFunction*%
%TD*%
%TA.AperFunction,Conductor*%
%TO.N,/csi_clk_N*%
G36*
X176007110Y-133350533D02*
G01*
X177845362Y-133488333D01*
X177853353Y-133492367D01*
X177856152Y-133500874D01*
X177852117Y-133508867D01*
X177845360Y-133511666D01*
X176007097Y-133649467D01*
X176006222Y-133649500D01*
X176000403Y-133649500D01*
X175996703Y-133648900D01*
X175858000Y-133602664D01*
X175851235Y-133596796D01*
X175850000Y-133591564D01*
X175850000Y-133500000D01*
X175850000Y-133408429D01*
X175853427Y-133400159D01*
X175857997Y-133397333D01*
X175996700Y-133351100D01*
X176000400Y-133350500D01*
X176006235Y-133350500D01*
X176007110Y-133350533D01*
G37*
%TD.AperFunction*%
%TD*%
%TA.AperFunction,Conductor*%
%TO.N,GND*%
G36*
X113977595Y-140354392D02*
G01*
X113985211Y-140354821D01*
X113986086Y-140354854D01*
X113993831Y-140355000D01*
X113993835Y-140355000D01*
X113999585Y-140355000D01*
X114009627Y-140354191D01*
X114014254Y-140354751D01*
X114141999Y-140397332D01*
X114148764Y-140403200D01*
X114149999Y-140408432D01*
X114149999Y-140591564D01*
X114146572Y-140599837D01*
X114141999Y-140602664D01*
X114014259Y-140645244D01*
X114009621Y-140645806D01*
X113999602Y-140645000D01*
X113999600Y-140645000D01*
X113993765Y-140645000D01*
X113993150Y-140645011D01*
X113986027Y-140645145D01*
X113985109Y-140645180D01*
X113977534Y-140645607D01*
X113960349Y-140646895D01*
X113958600Y-140646895D01*
X112154638Y-140511666D01*
X112146645Y-140507631D01*
X112143846Y-140499124D01*
X112147881Y-140491131D01*
X112154634Y-140488333D01*
X113958646Y-140353100D01*
X113960359Y-140353100D01*
X113977595Y-140354392D01*
G37*
%TD.AperFunction*%
%TD*%
%TA.AperFunction,Conductor*%
%TO.N,/csi_d3_N*%
G36*
X176007097Y-136350533D02*
G01*
X177845360Y-136488333D01*
X177853353Y-136492368D01*
X177856152Y-136500875D01*
X177852117Y-136508868D01*
X177845360Y-136511667D01*
X176007110Y-136649467D01*
X176006235Y-136649500D01*
X176000400Y-136649500D01*
X175996700Y-136648900D01*
X175858000Y-136602667D01*
X175851235Y-136596799D01*
X175850000Y-136591571D01*
X175850000Y-136408434D01*
X175853427Y-136400162D01*
X175857999Y-136397335D01*
X175996703Y-136351099D01*
X176000403Y-136350500D01*
X176006222Y-136350500D01*
X176007097Y-136350533D01*
G37*
%TD.AperFunction*%
%TD*%
%TA.AperFunction,Conductor*%
%TO.N,GND*%
G36*
X177804534Y-129985272D02*
G01*
X177845360Y-129988333D01*
X177853353Y-129992368D01*
X177856152Y-130000875D01*
X177852117Y-130008868D01*
X177845360Y-130011667D01*
X176007110Y-130149467D01*
X176006235Y-130149500D01*
X176000400Y-130149500D01*
X175996700Y-130148900D01*
X175858000Y-130102667D01*
X175851235Y-130096799D01*
X175850000Y-130091571D01*
X175850000Y-129908434D01*
X175853427Y-129900162D01*
X175857999Y-129897335D01*
X175997775Y-129850742D01*
X176002341Y-129850176D01*
X177804534Y-129985272D01*
G37*
%TD.AperFunction*%
%TD*%
%TA.AperFunction,Conductor*%
%TO.N,/csi_d0_N*%
G36*
X177845363Y-130488333D02*
G01*
X177853354Y-130492367D01*
X177856153Y-130500874D01*
X177852118Y-130508867D01*
X177845361Y-130511666D01*
X176041404Y-130646895D01*
X176039655Y-130646895D01*
X176022465Y-130645607D01*
X176014890Y-130645180D01*
X176013972Y-130645145D01*
X176006862Y-130645011D01*
X176006235Y-130645000D01*
X176000400Y-130645000D01*
X176000396Y-130645000D01*
X175990369Y-130645805D01*
X175985733Y-130645243D01*
X175858000Y-130602666D01*
X175851235Y-130596798D01*
X175850000Y-130591570D01*
X175850000Y-130408433D01*
X175853427Y-130400161D01*
X175857999Y-130397334D01*
X175985744Y-130354751D01*
X175990368Y-130354191D01*
X176000400Y-130355000D01*
X176006231Y-130355000D01*
X176006235Y-130355000D01*
X176013980Y-130354854D01*
X176014855Y-130354821D01*
X176022472Y-130354392D01*
X176039667Y-130353103D01*
X176041394Y-130353103D01*
X177845363Y-130488333D01*
G37*
%TD.AperFunction*%
%TD*%
M02*
