<?xml version="1.0" standalone="no"?>
 <!DOCTYPE svg PUBLIC "-//W3C//DTD SVG 1.1//EN" 
 "http://www.w3.org/Graphics/SVG/1.1/DTD/svg11.dtd"> 
<svg
  xmlns:svg="http://www.w3.org/2000/svg"
  xmlns="http://www.w3.org/2000/svg"
  xmlns:xlink="http://www.w3.org/1999/xlink"
  version="1.1"
  width="297.0022mm" height="210.0072mm" viewBox="0.0000 0.0000 297.0022 210.0072">
<title>SVG Image created as debix_rpi_22-F_Cu.svg date 2025/09/09 19:46:27 </title>
  <desc>Image generated by PCBNEW </desc>
<g style="fill:#000000; fill-opacity:1.0000;stroke:#000000; stroke-opacity:1.0000;
stroke-linecap:round; stroke-linejoin:round;"
 transform="translate(0 0) scale(1 1)">
</g>
<g style="fill:#000000; fill-opacity:1.0000; 
stroke:#000000; stroke-width:0.0212; stroke-opacity:1; 
stroke-linecap:round; stroke-linejoin:round;">
<rect x="104.775000" y="124.324411" width="80.450001" height="22.850589" rx="0.000000" />
<path style="fill:#FFFFFF; fill-opacity:1.0000; stroke:none;fill-rule:evenodd;"
d="M 176.0000,129.8500
180.0000,129.8500
180.0000,130.1500
176.0000,130.1500
Z" /> 
<path style="fill:#FFFFFF; fill-opacity:1.0000; stroke:none;fill-rule:evenodd;"
d="M 176.0000,130.3500
180.0000,130.3500
180.0000,130.6500
176.0000,130.6500
Z" /> 
<path style="fill:#FFFFFF; fill-opacity:1.0000; stroke:none;fill-rule:evenodd;"
d="M 176.0000,130.8500
180.0000,130.8500
180.0000,131.1500
176.0000,131.1500
Z" /> 
<path style="fill:#FFFFFF; fill-opacity:1.0000; stroke:none;fill-rule:evenodd;"
d="M 176.0000,131.3500
180.0000,131.3500
180.0000,131.6500
176.0000,131.6500
Z" /> 
<path style="fill:#FFFFFF; fill-opacity:1.0000; stroke:none;fill-rule:evenodd;"
d="M 176.0000,131.8500
180.0000,131.8500
180.0000,132.1500
176.0000,132.1500
Z" /> 
<path style="fill:#FFFFFF; fill-opacity:1.0000; stroke:none;fill-rule:evenodd;"
d="M 176.0000,132.3500
180.0000,132.3500
180.0000,132.6500
176.0000,132.6500
Z" /> 
<path style="fill:#FFFFFF; fill-opacity:1.0000; stroke:none;fill-rule:evenodd;"
d="M 176.0000,132.8500
180.0000,132.8500
180.0000,133.1500
176.0000,133.1500
Z" /> 
<path style="fill:#FFFFFF; fill-opacity:1.0000; stroke:none;fill-rule:evenodd;"
d="M 176.0000,133.3500
180.0000,133.3500
180.0000,133.6500
176.0000,133.6500
Z" /> 
<path style="fill:#FFFFFF; fill-opacity:1.0000; stroke:none;fill-rule:evenodd;"
d="M 176.0000,133.8500
180.0000,133.8500
180.0000,134.1500
176.0000,134.1500
Z" /> 
<path style="fill:#FFFFFF; fill-opacity:1.0000; stroke:none;fill-rule:evenodd;"
d="M 176.0000,134.3500
180.0000,134.3500
180.0000,134.6500
176.0000,134.6500
Z" /> 
<path style="fill:#FFFFFF; fill-opacity:1.0000; stroke:none;fill-rule:evenodd;"
d="M 176.0000,134.8500
180.0000,134.8500
180.0000,135.1500
176.0000,135.1500
Z" /> 
<path style="fill:#FFFFFF; fill-opacity:1.0000; stroke:none;fill-rule:evenodd;"
d="M 176.0000,135.3500
180.0000,135.3500
180.0000,135.6500
176.0000,135.6500
Z" /> 
<path style="fill:#FFFFFF; fill-opacity:1.0000; stroke:none;fill-rule:evenodd;"
d="M 176.0000,135.8500
180.0000,135.8500
180.0000,136.1500
176.0000,136.1500
Z" /> 
<path style="fill:#FFFFFF; fill-opacity:1.0000; stroke:none;fill-rule:evenodd;"
d="M 176.0000,136.3500
180.0000,136.3500
180.0000,136.6500
176.0000,136.6500
Z" /> 
<path style="fill:#FFFFFF; fill-opacity:1.0000; stroke:none;fill-rule:evenodd;"
d="M 176.0000,136.8500
180.0000,136.8500
180.0000,137.1500
176.0000,137.1500
Z" /> 
<path style="fill:#FFFFFF; fill-opacity:1.0000; stroke:none;fill-rule:evenodd;"
d="M 176.0000,137.3500
180.0000,137.3500
180.0000,137.6500
176.0000,137.6500
Z" /> 
<path style="fill:#FFFFFF; fill-opacity:1.0000; stroke:none;fill-rule:evenodd;"
d="M 176.0000,137.8500
180.0000,137.8500
180.0000,138.1500
176.0000,138.1500
Z" /> 
<path style="fill:#FFFFFF; fill-opacity:1.0000; stroke:none;fill-rule:evenodd;"
d="M 176.0000,138.3500
180.0000,138.3500
180.0000,138.6500
176.0000,138.6500
Z" /> 
<path style="fill:#FFFFFF; fill-opacity:1.0000; stroke:none;fill-rule:evenodd;"
d="M 176.0000,138.8500
180.0000,138.8500
180.0000,139.1500
176.0000,139.1500
Z" /> 
<path style="fill:#FFFFFF; fill-opacity:1.0000; stroke:none;fill-rule:evenodd;"
d="M 176.0000,139.3500
180.0000,139.3500
180.0000,139.6500
176.0000,139.6500
Z" /> 
<path style="fill:#FFFFFF; fill-opacity:1.0000; stroke:none;fill-rule:evenodd;"
d="M 176.0000,139.8500
180.0000,139.8500
180.0000,140.1500
176.0000,140.1500
Z" /> 
<path style="fill:#FFFFFF; fill-opacity:1.0000; stroke:none;fill-rule:evenodd;"
d="M 176.0000,140.3500
180.0000,140.3500
180.0000,140.6500
176.0000,140.6500
Z" /> 
<path style="fill:#FFFFFF; fill-opacity:1.0000; stroke:none;fill-rule:evenodd;"
d="M 110.0000,129.8500
114.0000,129.8500
114.0000,130.1500
110.0000,130.1500
Z" /> 
<path style="fill:#FFFFFF; fill-opacity:1.0000; stroke:none;fill-rule:evenodd;"
d="M 110.0000,130.3500
114.0000,130.3500
114.0000,130.6500
110.0000,130.6500
Z" /> 
<path style="fill:#FFFFFF; fill-opacity:1.0000; stroke:none;fill-rule:evenodd;"
d="M 110.0000,130.8500
114.0000,130.8500
114.0000,131.1500
110.0000,131.1500
Z" /> 
<path style="fill:#FFFFFF; fill-opacity:1.0000; stroke:none;fill-rule:evenodd;"
d="M 110.0000,131.3500
114.0000,131.3500
114.0000,131.6500
110.0000,131.6500
Z" /> 
<path style="fill:#FFFFFF; fill-opacity:1.0000; stroke:none;fill-rule:evenodd;"
d="M 110.0000,131.8500
114.0000,131.8500
114.0000,132.1500
110.0000,132.1500
Z" /> 
<path style="fill:#FFFFFF; fill-opacity:1.0000; stroke:none;fill-rule:evenodd;"
d="M 110.0000,132.3500
114.0000,132.3500
114.0000,132.6500
110.0000,132.6500
Z" /> 
<path style="fill:#FFFFFF; fill-opacity:1.0000; stroke:none;fill-rule:evenodd;"
d="M 110.0000,132.8500
114.0000,132.8500
114.0000,133.1500
110.0000,133.1500
Z" /> 
<path style="fill:#FFFFFF; fill-opacity:1.0000; stroke:none;fill-rule:evenodd;"
d="M 110.0000,133.3500
114.0000,133.3500
114.0000,133.6500
110.0000,133.6500
Z" /> 
<path style="fill:#FFFFFF; fill-opacity:1.0000; stroke:none;fill-rule:evenodd;"
d="M 110.0000,133.8500
114.0000,133.8500
114.0000,134.1500
110.0000,134.1500
Z" /> 
<path style="fill:#FFFFFF; fill-opacity:1.0000; stroke:none;fill-rule:evenodd;"
d="M 110.0000,134.3500
114.0000,134.3500
114.0000,134.6500
110.0000,134.6500
Z" /> 
<path style="fill:#FFFFFF; fill-opacity:1.0000; stroke:none;fill-rule:evenodd;"
d="M 110.0000,134.8500
114.0000,134.8500
114.0000,135.1500
110.0000,135.1500
Z" /> 
<path style="fill:#FFFFFF; fill-opacity:1.0000; stroke:none;fill-rule:evenodd;"
d="M 110.0000,135.3500
114.0000,135.3500
114.0000,135.6500
110.0000,135.6500
Z" /> 
<path style="fill:#FFFFFF; fill-opacity:1.0000; stroke:none;fill-rule:evenodd;"
d="M 110.0000,135.8500
114.0000,135.8500
114.0000,136.1500
110.0000,136.1500
Z" /> 
<path style="fill:#FFFFFF; fill-opacity:1.0000; stroke:none;fill-rule:evenodd;"
d="M 110.0000,136.3500
114.0000,136.3500
114.0000,136.6500
110.0000,136.6500
Z" /> 
<path style="fill:#FFFFFF; fill-opacity:1.0000; stroke:none;fill-rule:evenodd;"
d="M 110.0000,136.8500
114.0000,136.8500
114.0000,137.1500
110.0000,137.1500
Z" /> 
<path style="fill:#FFFFFF; fill-opacity:1.0000; stroke:none;fill-rule:evenodd;"
d="M 110.0000,137.3500
114.0000,137.3500
114.0000,137.6500
110.0000,137.6500
Z" /> 
<path style="fill:#FFFFFF; fill-opacity:1.0000; stroke:none;fill-rule:evenodd;"
d="M 110.0000,137.8500
114.0000,137.8500
114.0000,138.1500
110.0000,138.1500
Z" /> 
<path style="fill:#FFFFFF; fill-opacity:1.0000; stroke:none;fill-rule:evenodd;"
d="M 110.0000,138.3500
114.0000,138.3500
114.0000,138.6500
110.0000,138.6500
Z" /> 
<path style="fill:#FFFFFF; fill-opacity:1.0000; stroke:none;fill-rule:evenodd;"
d="M 110.0000,138.8500
114.0000,138.8500
114.0000,139.1500
110.0000,139.1500
Z" /> 
<path style="fill:#FFFFFF; fill-opacity:1.0000; stroke:none;fill-rule:evenodd;"
d="M 110.0000,139.3500
114.0000,139.3500
114.0000,139.6500
110.0000,139.6500
Z" /> 
<path style="fill:#FFFFFF; fill-opacity:1.0000; stroke:none;fill-rule:evenodd;"
d="M 110.0000,139.8500
114.0000,139.8500
114.0000,140.1500
110.0000,140.1500
Z" /> 
<path style="fill:#FFFFFF; fill-opacity:1.0000; stroke:none;fill-rule:evenodd;"
d="M 110.0000,140.3500
114.0000,140.3500
114.0000,140.6500
110.0000,140.6500
Z" /> 
<path style="fill:#FFFFFF; fill-opacity:1.0000; stroke:none;fill-rule:evenodd;"
d="M 110.0000,140.8500
114.0000,140.8500
114.0000,141.1500
110.0000,141.1500
Z" /> 
<path style="fill:#FFFFFF; fill-opacity:1.0000; stroke:none;fill-rule:evenodd;"
d="M 110.0000,141.3500
114.0000,141.3500
114.0000,141.6500
110.0000,141.6500
Z" /> 
</g>
<g style="fill:#FFFFFF; fill-opacity:1.0000; stroke:none;">
<circle cx="117.8283" cy="133.5151" r="0.2750" /> 
</g>
<g style="fill:#FFFFFF; fill-opacity:1.0000; stroke:none;">
<circle cx="126.1740" cy="139.9740" r="0.2750" /> 
</g>
<g style="fill:#FFFFFF; fill-opacity:1.0000; stroke:none;">
<circle cx="116.4793" cy="132.0000" r="0.2750" /> 
</g>
<g style="fill:#FFFFFF; fill-opacity:1.0000; stroke:none;">
<circle cx="122.7086" cy="140.2914" r="0.2750" /> 
</g>
<g style="fill:#FFFFFF; fill-opacity:1.0000; stroke:none;">
<circle cx="116.5000" cy="132.9000" r="0.2750" /> 
</g>
<g style="fill:#FFFFFF; fill-opacity:1.0000; stroke:none;">
<circle cx="123.8750" cy="140.3750" r="0.2750" /> 
</g>
<g style="fill:#FFFFFF; fill-opacity:1.0000; stroke:none;">
<circle cx="114.5000" cy="134.2520" r="0.2750" /> 
</g>
<g style="fill:#FFFFFF; fill-opacity:1.0000; stroke:none;">
<circle cx="121.1743" cy="141.1743" r="0.2750" /> 
</g>
<g style="fill:#FFFFFF; fill-opacity:1.0000; stroke:none;">
<circle cx="126.0000" cy="138.6000" r="0.3000" /> 
</g>
<g style="fill:#FFFFFF; fill-opacity:1.0000; stroke:none;">
<circle cx="115.3980" cy="131.4000" r="0.2750" /> 
</g>
<g style="fill:#FFFFFF; fill-opacity:1.0000; stroke:none;">
<circle cx="124.4010" cy="138.9250" r="0.2750" /> 
</g>
<g style="fill:#FFFFFF; fill-opacity:1.0000; stroke:none;">
<circle cx="116.5000" cy="131.1500" r="0.2750" /> 
</g>
<g style="fill:none; 
stroke:#FFFFFF; stroke-width:0.2000; stroke-opacity:1; 
stroke-linecap:round; stroke-linejoin:round;">
<path d="M113.8878 133.0000
L112.0000 133.0000
" />
<path d="M115.1314 133.5151
L117.8283 133.5151
" />
<path d="M126.1740 139.9740
L126.3559 139.7921
" />
<path d="M127.4355 139.6102
L126.7950 139.6102
" />
<path d="M127.7015 139.5000
L178.0000 139.5000
" />
<path d="M127.7015 139.5000 A0.1881 0.1881 0.0 0 0 127.5685 139.5551" />
<path d="M126.7950 139.6102 A0.6210 0.6210 0.0 0 0 126.3559 139.7921" />
<path d="M127.4355 139.6102 A0.1881 0.1881 0.0 0 0 127.5685 139.5551" />
<path d="M114.5096 133.2575 A0.8793 0.8793 0.0 0 0 115.1314 133.5151" />
<path d="M114.5096 133.2576 A0.8794 0.8794 0.0 0 0 113.8878 133.0000" />
<path d="M116.6789 135.0000
L112.0000 135.0000
" />
<path d="M125.6869 130.5000
L178.0000 130.5000
" />
<path d="M120.5267 133.4062
L121.8391 132.0938
" />
<path d="M125.6869 130.5000 A5.4416 5.4416 0.0 0 0 121.8391 132.0938" />
<path d="M116.6789 135.0000 A5.4416 5.4416 0.0 0 0 120.5267 133.4062" />
</g>
<g style="fill:none; 
stroke:#FFFFFF; stroke-width:0.3000; stroke-opacity:1; 
stroke-linecap:round; stroke-linejoin:round;">
<path d="M117.5000 131.2158
L117.5000 131.8831
" />
<path d="M127.8396 140.5010
L178.0000 140.5010
" />
<path d="M126.6349 141.0000
L123.9181 141.0000
" />
<path d="M116.7842 130.5000
L112.0000 130.5000
" />
<path d="M116.4793 132.0000
L117.3831 132.0000
" />
<path d="M122.7086 140.2914
L123.0628 140.6457
" />
<path d="M117.5000 131.2158 A0.7158 0.7158 0.0 0 0 116.7842 130.5000" />
<path d="M126.6349 141.0000 A0.8519 0.8519 0.0 0 0 127.2373 140.7505" />
<path d="M117.3831 132.0000 A0.1169 0.1169 0.0 0 0 117.4658 131.9658" />
<path d="M117.4657 131.9657 A0.1169 0.1169 0.0 0 0 117.5000 131.8831" />
<path d="M123.0628 140.6457 A1.2095 1.2095 0.0 0 0 123.9181 141.0000" />
<path d="M127.8396 140.5010 A0.8519 0.8519 0.0 0 0 127.2372 140.7505" />
</g>
<g style="fill:none; 
stroke:#FFFFFF; stroke-width:0.2000; stroke-opacity:1; 
stroke-linecap:round; stroke-linejoin:round;">
<path d="M123.8750 140.3750
L123.9620 140.4620
" />
<path d="M124.1720 140.5490
L126.4127 140.5490
" />
<path d="M115.7172 132.5000
L112.0000 132.5000
" />
<path d="M177.9879 139.9878
L177.9510 139.9510
" />
<path d="M116.5000 132.9000
L116.4500 132.9000
" />
<path d="M127.7381 140.0000
L177.9479 140.0000
" />
<path d="M116.2000 132.7000
L116.3646 132.8646
" />
<path d="M116.3646 132.8646 A0.1207 0.1207 0.0 0 0 116.4500 132.9000" />
<path d="M123.9620 140.4620 A0.2970 0.2970 0.0 0 0 124.1720 140.5490" />
<path d="M177.9828 140.0001 A10.1699 10.1699 0.0 0 0 177.9479 140.0000" />
<path d="M116.2000 132.7000 A0.6828 0.6828 0.0 0 0 115.7172 132.5000" />
<path d="M127.7381 140.0000 A0.9371 0.9371 0.0 0 0 127.0754 140.2745" />
<path d="M126.4127 140.5490 A0.9372 0.9372 0.0 0 0 127.0754 140.2745" />
<path d="M177.9828 140.0001 A0.0072 0.0072 0.0 0 0 177.9879 139.9878" />
<path d="M117.4943 140.0000
L112.0000 140.0000
" />
<path d="M126.5022 135.5000
L178.0000 135.5000
" />
<path d="M121.3420 138.4062
L122.6545 137.0938
" />
<path d="M126.5022 135.5000 A5.4415 5.4415 0.0 0 0 122.6545 137.0938" />
<path d="M117.4943 140.0000 A5.4416 5.4416 0.0 0 0 121.3421 138.4062" />
<path d="M126.0527 132.5000
L178.0000 132.5000
" />
<path d="M117.0447 137.0000
L112.0000 137.0000
" />
<path d="M122.2049 134.0938
L120.8925 135.4062
" />
<path d="M117.0447 137.0000 A5.4416 5.4416 0.0 0 0 120.8925 135.4062" />
<path d="M126.0527 132.5000 A5.4416 5.4416 0.0 0 0 122.2049 134.0938" />
<path d="M121.8702 140.1969
L121.2738 140.7933
" />
<path d="M126.3680 134.5000
L178.0000 134.5000
" />
<path d="M114.0000 134.5000
L113.8740 134.5000
" />
<path d="M113.7480 134.5000
L113.8740 134.5000
" />
<path d="M113.4960 134.5000
L113.7480 134.5000
" />
<path d="M126.6569 139.2010
L125.9632 139.2010
" />
<path d="M120.4596 132.9062
L121.7720 131.5938
" />
<path d="M114.0000 134.5000
L114.1260 134.5000
" />
<path d="M117.1118 137.5000
L112.0000 137.5000
" />
<path d="M125.9185 131.5000
L178.0000 131.5000
" />
<path d="M120.9596 135.9062
L122.2720 134.5938
" />
<path d="M121.1743 141.0336
L121.1743 141.1743
" />
<path d="M114.0000 134.5000
L114.1260 134.5000
" />
<path d="M113.4960 134.5000
L112.0000 134.5000
" />
<path d="M121.2738 140.7933
L122.9733 139.0938
" />
</g>
<g style="fill:#FFFFFF; fill-opacity:1.0000; stroke:none;">
<circle cx="114.0000" cy="134.5000" r="0.1000" /> 
</g>
<g style="fill:none; 
stroke:#FFFFFF; stroke-width:0.2000; stroke-opacity:1; 
stroke-linecap:round; stroke-linejoin:round;">
<path d="M116.9105 136.0000
L112.0000 136.0000
" />
<path d="M127.1421 139.0000
L178.0000 139.0000
" />
<path d="M117.3601 139.0000
L112.0000 139.0000
" />
<path d="M123.5503 139.5010
L125.2389 139.5010
" />
<path d="M116.6118 134.5000
L114.1260 134.5000
" />
<path d="M117.6118 140.5000
L112.0000 140.5000
" />
<path d="M122.7720 137.5938
L121.4596 138.9062
" />
<path d="M125.6198 130.0000
L178.0000 130.0000
" />
<path d="M126.1198 133.0000
L178.0000 133.0000
" />
<path d="M113.7480 134.5000
L113.4960 134.5000
" />
<path d="M113.7480 134.5000
L113.8740 134.5000
" />
</g>
<g style="fill:#FFFFFF; fill-opacity:1.0000; stroke:none;">
<circle cx="114.1260" cy="134.5000" r="0.1000" /> 
<circle cx="114.1260" cy="134.5000" r="0.1000" /> 
</g>
<g style="fill:none; 
stroke:#FFFFFF; stroke-width:0.2000; stroke-opacity:1; 
stroke-linecap:round; stroke-linejoin:round;">
<path d="M114.3411 134.4109
L114.5000 134.2520
" />
</g>
<g style="fill:#FFFFFF; fill-opacity:1.0000; stroke:none;">
<circle cx="114.0000" cy="134.5000" r="0.1000" /> 
</g>
<g style="fill:none; 
stroke:#FFFFFF; stroke-width:0.2000; stroke-opacity:1; 
stroke-linecap:round; stroke-linejoin:round;">
<path d="M126.8211 137.5000
L178.0000 137.5000
" />
<path d="M122.5203 136.0938
L121.2079 137.4062
" />
<path d="M122.0707 133.0938
L120.7583 134.4062
" />
<path d="M114.0000 134.5000
L113.8740 134.5000
" />
<path d="M126.6198 136.0000
L178.0000 136.0000
" />
</g>
<g style="fill:#FFFFFF; fill-opacity:1.0000; stroke:none;">
<circle cx="114.1260" cy="134.5000" r="0.1000" /> 
</g>
<g style="fill:none; 
stroke:#FFFFFF; stroke-width:0.2000; stroke-opacity:1; 
stroke-linecap:round; stroke-linejoin:round;">
<path d="M123.5503 139.5010 A2.3760 2.3760 0.0 0 0 121.8702 140.1969" />
<path d="M126.3680 134.5000 A5.4416 5.4416 0.0 0 0 122.5203 136.0938" />
<path d="M126.6198 136.0000 A5.4416 5.4416 0.0 0 0 122.7720 137.5938" />
<path d="M116.6118 134.5000 A5.4416 5.4416 0.0 0 0 120.4596 132.9062" />
<path d="M117.1118 137.5000 A5.4416 5.4416 0.0 0 0 120.9596 135.9062" />
<path d="M114.1260 134.5000 A0.3042 0.3042 0.0 0 0 114.3411 134.4109" />
</g>
<g style="fill:#FFFFFF; fill-opacity:1.0000; stroke:none;">
<circle cx="113.7480" cy="134.5000" r="0.1000" /> 
</g>
<g style="fill:none; 
stroke:#FFFFFF; stroke-width:0.2000; stroke-opacity:1; 
stroke-linecap:round; stroke-linejoin:round;">
<path d="M125.9632 139.2010 A0.5122 0.5122 0.0 0 0 125.6011 139.3510" />
<path d="M116.9105 136.0000 A5.4416 5.4416 0.0 0 0 120.7583 134.4062" />
</g>
<g style="fill:#FFFFFF; fill-opacity:1.0000; stroke:none;">
<circle cx="113.8740" cy="134.5000" r="0.1000" /> 
</g>
<g style="fill:none; 
stroke:#FFFFFF; stroke-width:0.2000; stroke-opacity:1; 
stroke-linecap:round; stroke-linejoin:round;">
<path d="M117.6118 140.5000 A5.4416 5.4416 0.0 0 0 121.4596 138.9062" />
</g>
<g style="fill:#FFFFFF; fill-opacity:1.0000; stroke:none;">
<circle cx="114.0000" cy="134.5000" r="0.1000" /> 
</g>
<g style="fill:none; 
stroke:#FFFFFF; stroke-width:0.2000; stroke-opacity:1; 
stroke-linecap:round; stroke-linejoin:round;">
<path d="M126.6569 139.2010 A0.3431 0.3431 0.0 0 0 126.8995 139.1005" />
<path d="M125.2389 139.5010 A0.5122 0.5122 0.0 0 0 125.6011 139.3510" />
</g>
<g style="fill:#FFFFFF; fill-opacity:1.0000; stroke:none;">
<circle cx="114.0000" cy="134.5000" r="0.1000" /> 
</g>
<g style="fill:none; 
stroke:#FFFFFF; stroke-width:0.2000; stroke-opacity:1; 
stroke-linecap:round; stroke-linejoin:round;">
<path d="M117.3601 139.0000 A5.4416 5.4416 0.0 0 0 121.2079 137.4062" />
<path d="M126.8211 137.5000 A5.4415 5.4415 0.0 0 0 122.9733 139.0937" />
</g>
<g style="fill:#FFFFFF; fill-opacity:1.0000; stroke:none;">
<circle cx="114.0000" cy="134.5000" r="0.1000" /> 
<circle cx="121.2738" cy="140.7933" r="0.1000" /> 
</g>
<g style="fill:none; 
stroke:#FFFFFF; stroke-width:0.2000; stroke-opacity:1; 
stroke-linecap:round; stroke-linejoin:round;">
<path d="M121.2738 140.7934 A0.3397 0.3397 0.0 0 0 121.1743 141.0336" />
<path d="M125.9185 131.5000 A5.4416 5.4416 0.0 0 0 122.0707 133.0938" />
<path d="M125.6198 130.0000 A5.4416 5.4416 0.0 0 0 121.7720 131.5938" />
<path d="M126.1198 133.0000 A5.4416 5.4416 0.0 0 0 122.2720 134.5938" />
<path d="M127.1421 139.0000 A0.3431 0.3431 0.0 0 0 126.8995 139.1005" />
<path d="M126.4351 135.0000
L178.0000 135.0000
" />
<path d="M117.4272 139.5000
L112.0000 139.5000
" />
<path d="M121.2750 137.9062
L122.5874 136.5938
" />
<path d="M117.4272 139.5000 A5.4416 5.4416 0.0 0 0 121.2750 137.9062" />
<path d="M126.4351 135.0000 A5.4416 5.4416 0.0 0 0 122.5874 136.5938" />
<path d="M120.5938 133.9062
L121.9062 132.5938
" />
<path d="M125.7540 131.0000
L178.0000 131.0000
" />
<path d="M116.7460 135.5000
L112.0000 135.5000
" />
<path d="M125.7540 131.0000 A5.4416 5.4416 0.0 0 0 121.9062 132.5938" />
<path d="M116.7460 135.5000 A5.4416 5.4416 0.0 0 0 120.5938 133.9062" />
<path d="M126.7540 137.0000
L178.0000 137.0000
" />
<path d="M117.7460 141.5000
L112.0000 141.5000
" />
<path d="M122.9062 138.5938
L121.5938 139.9062
" />
<path d="M117.7460 141.5000 A5.4416 5.4416 0.0 0 0 121.5938 139.9062" />
<path d="M126.7540 137.0000 A5.4416 5.4416 0.0 0 0 122.9062 138.5938" />
<path d="M117.1789 138.0000
L112.0000 138.0000
" />
<path d="M122.3391 135.0938
L121.0267 136.4062
" />
<path d="M126.1869 133.5000
L178.0000 133.5000
" />
<path d="M126.1869 133.5000 A5.4415 5.4415 0.0 0 0 122.3391 135.0937" />
<path d="M117.1789 138.0000 A5.4415 5.4415 0.0 0 0 121.0267 136.4062" />
<path d="M126.6869 136.5000
L178.0000 136.5000
" />
<path d="M117.6789 141.0000
L112.0000 141.0000
" />
<path d="M121.5267 139.4062
L122.8391 138.0938
" />
<path d="M117.6789 141.0000 A5.4416 5.4416 0.0 0 0 121.5267 139.4062" />
<path d="M126.6869 136.5000 A5.4416 5.4416 0.0 0 0 122.8391 138.0938" />
<path d="M117.2460 138.5000
L112.0000 138.5000
" />
<path d="M122.4062 135.5938
L121.0938 136.9062
" />
<path d="M126.2540 134.0000
L178.0000 134.0000
" />
<path d="M126.2540 134.0000 A5.4416 5.4416 0.0 0 0 122.4062 135.5938" />
<path d="M117.2460 138.5000 A5.4416 5.4416 0.0 0 0 121.0938 136.9062" />
<path d="M120.8254 134.9062
L122.1378 133.5938
" />
<path d="M125.9856 132.0000
L178.0000 132.0000
" />
<path d="M116.9776 136.5000
L112.0000 136.5000
" />
<path d="M116.9776 136.5000 A5.4416 5.4416 0.0 0 0 120.8254 134.9062" />
<path d="M125.9856 132.0000 A5.4416 5.4416 0.0 0 0 122.1378 133.5938" />
<path d="M112.0087 131.5000
L112.0000 131.5000
" />
<path d="M126.0000 138.6000
L126.4802 138.6000
" />
<path d="M177.9879 138.5122
L177.9510 138.5490
" />
<path d="M115.3602 131.4377
L115.3980 131.4000
" />
<path d="M115.3602 131.4377
L115.3980 131.4000
" />
<path d="M112.0836 131.4510
L112.0490 131.4510
" />
<path d="M115.2691 131.4759
L112.0260 131.4999
" />
<path d="M115.3109 131.4510
L115.3470 131.4510
" />
<path d="M126.7217 138.5000
L177.9479 138.5000
" />
<path d="M126.4802 138.6000 A0.1708 0.1708 0.0 0 0 126.6009 138.5500" />
</g>
<g style="fill:#FFFFFF; fill-opacity:1.0000; stroke:none;">
<circle cx="115.3602" cy="131.4377" r="0.1000" /> 
</g>
<g style="fill:none; 
stroke:#FFFFFF; stroke-width:0.2000; stroke-opacity:1; 
stroke-linecap:round; stroke-linejoin:round;">
<path d="M115.2691 131.4759 A0.1303 0.1303 0.0 0 0 115.3602 131.4377" />
<path d="M177.9879 138.5122 A0.0072 0.0072 0.0 0 0 177.9828 138.4999" />
<path d="M112.0087 131.5000 A2.3448 2.3448 0.0 0 0 112.0260 131.4999" />
<path d="M115.2691 131.4759 A0.1303 0.1303 0.0 0 0 115.3602 131.4377" />
<path d="M177.9479 138.5000 A10.5206 10.5206 0.0 0 0 177.9828 138.4999" />
<path d="M126.7217 138.5000 A0.1708 0.1708 0.0 0 0 126.6009 138.5500" />
<path d="M115.0490 132.0000
L112.0000 132.0000
" />
<path d="M178.0627 137.9828
L179.8990 137.9510
" />
<path d="M177.9837 138.0163
L177.9510 138.0490
" />
<path d="M124.4010 138.9250
L124.8635 138.4625
" />
<path d="M116.0750 131.5750
L116.5000 131.1500
" />
<path d="M177.9654 138.0000
L178.0003 137.9999
" />
<path d="M178.0245 137.9755
L178.0000 138.0000
" />
<path d="M125.9801 137.9998
L177.9702 137.9836
" />
<path d="M115.0490 132.0000 A1.4510 1.4510 0.0 0 0 116.0750 131.5750" />
<path d="M125.9801 137.9998 A1.5798 1.5798 0.0 0 0 124.8635 138.4625" />
<path d="M177.9837 138.0163 A0.0192 0.0192 0.0 0 0 177.9702 137.9836" />
<path d="M178.0627 137.9828 A0.1145 0.1145 0.0 0 0 177.9837 138.0163" />
<path d="M177.9702 137.9836 A5.4551 5.4551 0.0 0 0 178.0627 137.9828" />
<path style="fill:#FFFFFF; fill-opacity:1.0000; stroke:none;fill-rule:evenodd;"
d="M 126.5700,139.5509
126.5760,139.5576
126.5763,139.5584
126.6235,139.7348
126.6224,139.7436
126.4089,140.1159
126.4018,140.1214
126.3929,140.1203
126.3922,140.1199
126.1771,139.9770
126.1721,139.9695
126.1223,139.7142
126.1241,139.7055
126.1299,139.7009
126.5611,139.5504
Z" /> 
<path style="fill:#FFFFFF; fill-opacity:1.0000; stroke:none;fill-rule:evenodd;"
d="M 124.7214,138.4750
124.8510,138.6046
124.8544,138.6129
124.8532,138.6180
124.6355,139.0658
124.6288,139.0717
124.6199,139.0712
124.6185,139.0704
124.4023,138.9270
124.3990,138.9237
124.2556,138.7075
124.2539,138.6987
124.2589,138.6913
124.2602,138.6905
124.7080,138.4728
124.7169,138.4722
Z" /> 
<path style="fill:#FFFFFF; fill-opacity:1.0000; stroke:none;fill-rule:evenodd;"
d="M 116.5424,132.6279
116.5498,132.6330
116.5515,132.6415
116.5018,132.8957
116.4969,132.9032
116.2867,133.0426
116.2817,133.0459
116.2730,133.0476
116.2655,133.0426
116.2651,133.0420
116.0853,132.7289
116.0842,132.7200
116.0854,132.7172
116.1777,132.5572
116.1848,132.5517
116.1903,132.5516
Z" /> 
<path style="fill:#FFFFFF; fill-opacity:1.0000; stroke:none;fill-rule:evenodd;"
d="M 114.2429,134.2009
114.4914,134.2505
114.4988,134.2555
114.5005,134.2596
114.5514,134.5105
114.5497,134.5193
114.5425,134.5243
114.2240,134.5967
114.2151,134.5952
114.2099,134.5879
114.2097,134.5853
114.2097,134.4006
114.2097,134.3994
114.2244,134.2555
114.2290,134.2112
114.2332,134.2033
114.2418,134.2007
Z" /> 
<path style="fill:#FFFFFF; fill-opacity:1.0000; stroke:none;fill-rule:evenodd;"
d="M 121.3106,140.6317
121.3111,140.6321
121.4403,140.7614
121.4437,140.7696
121.4440,141.1110
121.4406,141.1193
121.4346,141.1225
121.1783,141.1740
121.1696,141.1723
121.1695,141.1722
120.9568,141.0290
120.9518,141.0215
120.9536,141.0127
120.9546,141.0115
121.2941,140.6326
121.3021,140.6287
Z" /> 
<path style="fill:#FFFFFF; fill-opacity:1.0000; stroke:none;fill-rule:evenodd;"
d="M 116.5448,131.7332
117.0151,131.8478
117.0224,131.8531
117.0241,131.8592
117.0241,132.1408
117.0206,132.1491
117.0151,132.1522
116.5448,132.2668
116.5360,132.2655
116.5307,132.2582
116.5306,132.2578
116.4788,132.0023
116.4788,131.9977
116.5306,131.7422
116.5356,131.7348
116.5444,131.7331
Z" /> 
<path style="fill:#FFFFFF; fill-opacity:1.0000; stroke:none;fill-rule:evenodd;"
d="M 117.7709,133.2503
117.7769,133.2570
117.7773,133.2585
117.8288,133.5128
117.8288,133.5174
117.7773,133.7717
117.7723,133.7792
117.7635,133.7809
117.7620,133.7805
117.2915,133.6178
117.2848,133.6119
117.2836,133.6068
117.2836,133.4235
117.2870,133.4152
117.2915,133.4124
117.7620,133.2498
Z" /> 
<path style="fill:#FFFFFF; fill-opacity:1.0000; stroke:none;fill-rule:evenodd;"
d="M 126.1757,138.3545
126.5052,138.5004
126.5089,138.5030
126.6341,138.6333
126.6373,138.6417
126.6337,138.6499
126.6302,138.6522
126.1756,138.8457
126.1666,138.8457
126.1613,138.8414
126.0037,138.6072
126.0019,138.5984
126.0036,138.5942
126.1612,138.3587
126.1687,138.3538
Z" /> 
<path style="fill:#FFFFFF; fill-opacity:1.0000; stroke:none;fill-rule:evenodd;"
d="M 116.2811,131.0038
116.2825,131.0046
116.4987,131.1480
116.5020,131.1513
116.6222,131.3326
116.6454,131.3675
116.6471,131.3763
116.6421,131.3837
116.6408,131.3845
116.1930,131.6022
116.1841,131.6028
116.1796,131.6000
116.0500,131.4704
116.0466,131.4621
116.0478,131.4570
116.0913,131.3675
116.2655,131.0092
116.2722,131.0033
Z" /> 
<path style="fill:#FFFFFF; fill-opacity:1.0000; stroke:none;fill-rule:evenodd;"
d="M 124.0365,140.1543
124.0378,140.1553
124.3629,140.4455
124.3668,140.4536
124.3668,140.4542
124.3668,140.6372
124.3634,140.6455
124.3551,140.6489
124.3550,140.6489
123.8616,140.6450
123.8607,140.6450
123.8350,140.6430
123.8270,140.6389
123.8242,140.6304
123.8244,140.6291
123.8735,140.3773
123.8753,140.3730
124.0203,140.1575
124.0278,140.1525
Z" /> 
<path style="fill:#FFFFFF; fill-opacity:1.0000; stroke:none;fill-rule:evenodd;"
d="M 114.4983,134.2560
114.5032,134.2635
114.5032,134.2635
114.5517,134.5118
114.5499,134.5206
114.5441,134.5251
114.3467,134.5945
114.3377,134.5940
114.3317,134.5874
114.3311,134.5835
114.3311,134.4000
114.3311,134.4000
114.2469,134.3212
114.2432,134.3131
114.2464,134.3047
114.2527,134.3012
114.4895,134.2543
Z" /> 
<path style="fill:#FFFFFF; fill-opacity:1.0000; stroke:none;fill-rule:evenodd;"
d="M 177.8454,139.4883
177.8534,139.4924
177.8562,139.5009
177.8521,139.5089
177.8454,139.5117
176.0414,139.6469
176.0397,139.6469
176.0225,139.6456
176.0149,139.6452
176.0140,139.6451
176.0069,139.6450
176.0062,139.6450
176.0004,139.6450
176.0004,139.6450
175.9904,139.6458
175.9857,139.6452
175.8580,139.6027
175.8512,139.5968
175.8500,139.5916
175.8500,139.4084
175.8534,139.4002
175.8580,139.3973
175.9857,139.3548
175.9904,139.3542
176.0004,139.3550
176.0062,139.3550
176.0062,139.3550
176.0140,139.3549
176.0149,139.3548
176.0225,139.3544
176.0397,139.3531
176.0414,139.3531
Z" /> 
<path style="fill:#FFFFFF; fill-opacity:1.0000; stroke:none;fill-rule:evenodd;"
d="M 177.8454,130.4883
177.8534,130.4924
177.8562,130.5009
177.8521,130.5089
177.8454,130.5117
176.0414,130.6469
176.0397,130.6469
176.0225,130.6456
176.0149,130.6452
176.0140,130.6451
176.0069,130.6450
176.0062,130.6450
176.0004,130.6450
176.0004,130.6450
175.9904,130.6458
175.9857,130.6452
175.8580,130.6027
175.8512,130.5968
175.8500,130.5916
175.8500,130.4084
175.8534,130.4002
175.8580,130.3973
175.9857,130.3548
175.9904,130.3542
176.0004,130.3550
176.0062,130.3550
176.0062,130.3550
176.0140,130.3549
176.0149,130.3548
176.0225,130.3544
176.0397,130.3531
176.0414,130.3531
Z" /> 
<path style="fill:#FFFFFF; fill-opacity:1.0000; stroke:none;fill-rule:evenodd;"
d="M 176.0071,139.8505
177.8454,139.9883
177.8534,139.9924
177.8562,140.0009
177.8521,140.0089
177.8454,140.0117
176.0071,140.1495
176.0062,140.1495
176.0004,140.1495
175.9967,140.1489
175.8580,140.1027
175.8512,140.0968
175.8500,140.0916
175.8500,140.0000
175.8500,139.9084
175.8534,139.9002
175.8580,139.8973
175.9967,139.8511
176.0004,139.8505
176.0062,139.8505
Z" /> 
<path style="fill:#FFFFFF; fill-opacity:1.0000; stroke:none;fill-rule:evenodd;"
d="M 177.8454,135.4883
177.8534,135.4924
177.8562,135.5009
177.8521,135.5089
177.8454,135.5117
176.0414,135.6469
176.0396,135.6469
176.0225,135.6456
176.0149,135.6452
176.0140,135.6451
176.0068,135.6450
176.0062,135.6450
176.0004,135.6450
176.0004,135.6450
175.9904,135.6458
175.9857,135.6452
175.8580,135.6027
175.8512,135.5968
175.8500,135.5916
175.8500,135.5000
175.8500,135.4084
175.8534,135.4002
175.8580,135.3973
175.9857,135.3548
175.9904,135.3542
176.0004,135.3550
176.0062,135.3550
176.0062,135.3550
176.0140,135.3549
176.0149,135.3548
176.0225,135.3544
176.0397,135.3531
176.0414,135.3531
Z" /> 
<path style="fill:#FFFFFF; fill-opacity:1.0000; stroke:none;fill-rule:evenodd;"
d="M 177.8454,132.4883
177.8534,132.4924
177.8562,132.5009
177.8521,132.5089
177.8454,132.5117
176.0414,132.6469
176.0397,132.6469
176.0225,132.6456
176.0149,132.6452
176.0140,132.6451
176.0069,132.6450
176.0062,132.6450
176.0004,132.6450
176.0004,132.6450
175.9904,132.6458
175.9857,132.6452
175.8580,132.6027
175.8512,132.5968
175.8500,132.5916
175.8500,132.4084
175.8534,132.4002
175.8580,132.3973
175.9857,132.3548
175.9904,132.3542
176.0004,132.3550
176.0062,132.3550
176.0062,132.3550
176.0140,132.3549
176.0149,132.3548
176.0225,132.3544
176.0397,132.3531
176.0414,132.3531
Z" /> 
<path style="fill:#FFFFFF; fill-opacity:1.0000; stroke:none;fill-rule:evenodd;"
d="M 176.0071,134.3505
177.8454,134.4883
177.8534,134.4924
177.8562,134.5009
177.8521,134.5089
177.8454,134.5117
176.0071,134.6495
176.0062,134.6495
176.0004,134.6495
175.9967,134.6489
175.8580,134.6027
175.8512,134.5968
175.8500,134.5916
175.8500,134.4084
175.8534,134.4002
175.8580,134.3973
175.9967,134.3511
176.0004,134.3505
176.0062,134.3505
Z" /> 
<path style="fill:#FFFFFF; fill-opacity:1.0000; stroke:none;fill-rule:evenodd;"
d="M 176.0071,131.3505
177.8454,131.4883
177.8534,131.4924
177.8562,131.5009
177.8521,131.5089
177.8454,131.5117
176.0071,131.6495
176.0062,131.6495
176.0004,131.6495
175.9967,131.6489
175.8580,131.6027
175.8512,131.5968
175.8500,131.5916
175.8500,131.4084
175.8534,131.4002
175.8580,131.3973
175.9967,131.3511
176.0004,131.3505
176.0062,131.3505
Z" /> 
<path style="fill:#FFFFFF; fill-opacity:1.0000; stroke:none;fill-rule:evenodd;"
d="M 176.0071,138.8505
177.8454,138.9883
177.8534,138.9924
177.8562,139.0009
177.8521,139.0089
177.8454,139.0117
176.0071,139.1495
176.0062,139.1495
176.0004,139.1495
175.9967,139.1489
175.8580,139.1027
175.8512,139.0968
175.8500,139.0916
175.8500,139.0000
175.8500,138.9084
175.8534,138.9002
175.8580,138.8973
175.9967,138.8511
176.0004,138.8505
176.0062,138.8505
Z" /> 
<path style="fill:#FFFFFF; fill-opacity:1.0000; stroke:none;fill-rule:evenodd;"
d="M 177.8045,129.9853
177.8454,129.9883
177.8534,129.9924
177.8562,130.0009
177.8521,130.0089
177.8454,130.0117
176.0071,130.1495
176.0062,130.1495
176.0004,130.1495
175.9967,130.1489
175.8580,130.1027
175.8512,130.0968
175.8500,130.0916
175.8500,129.9084
175.8534,129.9002
175.8580,129.8973
175.9978,129.8507
176.0023,129.8502
Z" /> 
<path style="fill:#FFFFFF; fill-opacity:1.0000; stroke:none;fill-rule:evenodd;"
d="M 176.0071,132.8505
177.8454,132.9883
177.8534,132.9924
177.8562,133.0009
177.8521,133.0089
177.8454,133.0117
176.0414,133.1469
176.0397,133.1469
176.0225,133.1456
176.0149,133.1452
176.0140,133.1451
176.0069,133.1450
176.0062,133.1450
176.0004,133.1450
176.0004,133.1450
175.9904,133.1458
175.9857,133.1452
175.8580,133.1027
175.8512,133.0968
175.8500,133.0916
175.8500,132.9084
175.8534,132.9002
175.8580,132.8973
175.9967,132.8511
176.0004,132.8505
176.0062,132.8505
Z" /> 
<path style="fill:#FFFFFF; fill-opacity:1.0000; stroke:none;fill-rule:evenodd;"
d="M 177.8454,137.4883
177.8534,137.4924
177.8562,137.5009
177.8521,137.5089
177.8454,137.5117
176.0414,137.6469
176.0396,137.6469
176.0225,137.6456
176.0149,137.6452
176.0140,137.6451
176.0069,137.6450
176.0062,137.6450
175.9991,137.6450
175.9991,137.6450
175.9893,137.6456
175.9849,137.6450
175.8580,137.6027
175.8512,137.5968
175.8500,137.5916
175.8500,137.5000
175.8500,137.4084
175.8534,137.4002
175.8580,137.3973
175.9857,137.3548
175.9904,137.3542
176.0004,137.3550
176.0062,137.3550
176.0062,137.3550
176.0140,137.3549
176.0149,137.3548
176.0225,137.3544
176.0397,137.3531
176.0414,137.3531
Z" /> 
<path style="fill:#FFFFFF; fill-opacity:1.0000; stroke:none;fill-rule:evenodd;"
d="M 176.0071,135.8505
177.8454,135.9883
177.8534,135.9924
177.8562,136.0009
177.8521,136.0089
177.8454,136.0117
176.0071,136.1495
176.0062,136.1495
176.0004,136.1495
175.9967,136.1489
175.8580,136.1027
175.8512,136.0968
175.8500,136.0916
175.8500,135.9084
175.8534,135.9002
175.8580,135.8973
175.9967,135.8511
176.0004,135.8505
176.0062,135.8505
Z" /> 
<path style="fill:#FFFFFF; fill-opacity:1.0000; stroke:none;fill-rule:evenodd;"
d="M 177.8454,134.9883
177.8534,134.9924
177.8562,135.0009
177.8521,135.0089
177.8454,135.0117
176.0071,135.1495
176.0062,135.1495
176.0004,135.1495
175.9967,135.1489
175.8580,135.1027
175.8512,135.0968
175.8500,135.0916
175.8500,134.9084
175.8534,134.9002
175.8580,134.8973
175.9857,134.8548
175.9904,134.8542
175.9986,134.8549
176.0004,134.8550
176.0004,134.8550
176.0062,134.8550
176.0062,134.8550
176.0140,134.8549
176.0149,134.8548
176.0225,134.8544
176.0397,134.8531
176.0414,134.8531
Z" /> 
<path style="fill:#FFFFFF; fill-opacity:1.0000; stroke:none;fill-rule:evenodd;"
d="M 176.0071,130.8505
177.8454,130.9883
177.8534,130.9924
177.8562,131.0009
177.8521,131.0089
177.8454,131.0117
176.0414,131.1469
176.0396,131.1469
176.0225,131.1456
176.0149,131.1452
176.0140,131.1451
176.0068,131.1450
176.0062,131.1450
176.0004,131.1450
176.0004,131.1450
175.9904,131.1458
175.9857,131.1452
175.8580,131.1027
175.8512,131.0968
175.8500,131.0916
175.8500,130.9084
175.8534,130.9002
175.8580,130.8973
175.9967,130.8511
176.0004,130.8505
176.0062,130.8505
Z" /> 
<path style="fill:#FFFFFF; fill-opacity:1.0000; stroke:none;fill-rule:evenodd;"
d="M 176.0071,136.8505
177.8454,136.9883
177.8534,136.9924
177.8562,137.0009
177.8521,137.0089
177.8454,137.0117
176.0071,137.1495
176.0062,137.1495
176.0004,137.1495
175.9967,137.1489
175.8580,137.1027
175.8512,137.0968
175.8500,137.0916
175.8500,136.9084
175.8534,136.9002
175.8580,136.8973
175.9967,136.8511
176.0004,136.8505
176.0062,136.8505
Z" /> 
<path style="fill:#FFFFFF; fill-opacity:1.0000; stroke:none;fill-rule:evenodd;"
d="M 176.0071,133.3505
177.8454,133.4883
177.8534,133.4924
177.8562,133.5009
177.8521,133.5089
177.8454,133.5117
176.0071,133.6495
176.0062,133.6495
176.0004,133.6495
175.9967,133.6489
175.8580,133.6027
175.8512,133.5968
175.8500,133.5916
175.8500,133.5000
175.8500,133.4084
175.8534,133.4002
175.8580,133.3973
175.9967,133.3511
176.0004,133.3505
176.0062,133.3505
Z" /> 
<path style="fill:#FFFFFF; fill-opacity:1.0000; stroke:none;fill-rule:evenodd;"
d="M 177.8454,136.4883
177.8534,136.4924
177.8562,136.5009
177.8521,136.5089
177.8454,136.5117
176.0414,136.6469
176.0396,136.6469
176.0225,136.6456
176.0149,136.6452
176.0140,136.6451
176.0068,136.6450
176.0062,136.6450
176.0004,136.6450
176.0004,136.6450
175.9904,136.6458
175.9857,136.6452
175.8580,136.6027
175.8512,136.5968
175.8500,136.5916
175.8500,136.4084
175.8534,136.4002
175.8580,136.3973
175.9857,136.3548
175.9904,136.3542
175.9986,136.3549
176.0004,136.3550
176.0004,136.3550
176.0062,136.3550
176.0062,136.3550
176.0140,136.3549
176.0149,136.3548
176.0225,136.3544
176.0397,136.3531
176.0414,136.3531
Z" /> 
<path style="fill:#FFFFFF; fill-opacity:1.0000; stroke:none;fill-rule:evenodd;"
d="M 177.8454,133.9883
177.8534,133.9924
177.8562,134.0009
177.8521,134.0089
177.8454,134.0117
176.0414,134.1469
176.0396,134.1469
176.0225,134.1456
176.0149,134.1452
176.0140,134.1451
176.0068,134.1450
176.0062,134.1450
176.0004,134.1450
176.0004,134.1450
175.9904,134.1458
175.9857,134.1452
175.8580,134.1027
175.8512,134.0968
175.8500,134.0916
175.8500,133.9084
175.8534,133.9002
175.8580,133.8973
175.9857,133.8548
175.9904,133.8542
176.0004,133.8550
176.0062,133.8550
176.0062,133.8550
176.0140,133.8549
176.0148,133.8548
176.0225,133.8544
176.0397,133.8531
176.0414,133.8531
Z" /> 
<path style="fill:#FFFFFF; fill-opacity:1.0000; stroke:none;fill-rule:evenodd;"
d="M 177.8454,131.9883
177.8534,131.9924
177.8562,132.0009
177.8521,132.0089
177.8454,132.0117
176.0071,132.1495
176.0062,132.1495
176.0004,132.1495
175.9967,132.1489
175.8580,132.1027
175.8512,132.0968
175.8500,132.0916
175.8500,131.9084
175.8534,131.9002
175.8580,131.8973
175.9857,131.8548
175.9904,131.8542
176.0004,131.8550
176.0062,131.8550
176.0062,131.8550
176.0140,131.8549
176.0149,131.8548
176.0225,131.8544
176.0397,131.8531
176.0414,131.8531
Z" /> 
<path style="fill:#FFFFFF; fill-opacity:1.0000; stroke:none;fill-rule:evenodd;"
d="M 176.0071,138.3505
177.8454,138.4883
177.8534,138.4924
177.8562,138.5009
177.8521,138.5089
177.8454,138.5117
176.0414,138.6469
176.0397,138.6469
176.0225,138.6456
176.0149,138.6452
176.0140,138.6451
176.0069,138.6450
176.0062,138.6450
176.0004,138.6450
176.0004,138.6450
175.9904,138.6458
175.9857,138.6452
175.8580,138.6027
175.8512,138.5968
175.8500,138.5916
175.8500,138.4084
175.8534,138.4002
175.8580,138.3973
175.9967,138.3511
176.0004,138.3505
176.0062,138.3505
Z" /> 
<path style="fill:#FFFFFF; fill-opacity:1.0000; stroke:none;fill-rule:evenodd;"
d="M 176.0071,137.8505
177.8374,137.9877
177.8454,137.9918
177.8482,138.0003
177.8442,138.0083
177.8373,138.0111
176.0023,138.1352
175.9978,138.1346
175.8580,138.0870
175.8512,138.0811
175.8500,138.0759
175.8500,137.8936
175.8534,137.8854
175.8591,137.8822
175.9624,137.8586
175.9965,137.8508
175.9991,137.8505
176.0062,137.8505
Z" /> 
<path style="fill:#FFFFFF; fill-opacity:1.0000; stroke:none;fill-rule:evenodd;"
d="M 114.0021,132.8851
114.1001,132.9169
114.1731,132.9407
114.1800,132.9465
114.1807,132.9554
114.1803,132.9563
114.1111,133.1235
114.1047,133.1298
114.1025,133.1305
114.0143,133.1473
114.0037,133.1493
114.0015,133.1495
113.9938,133.1495
113.9929,133.1495
112.1749,133.0128
112.1669,133.0088
112.1641,133.0003
112.1681,132.9923
112.1751,132.9895
113.9978,132.8845
Z" /> 
<path style="fill:#FFFFFF; fill-opacity:1.0000; stroke:none;fill-rule:evenodd;"
d="M 114.0033,134.8511
114.1420,134.8973
114.1488,134.9032
114.1500,134.9084
114.1500,135.0916
114.1466,135.0998
114.1420,135.1027
114.0142,135.1452
114.0096,135.1458
113.9996,135.1450
113.9996,135.1450
113.9938,135.1450
113.9931,135.1450
113.9860,135.1451
113.9851,135.1452
113.9775,135.1456
113.9604,135.1469
113.9586,135.1469
112.1546,135.0117
112.1466,135.0076
112.1438,134.9991
112.1479,134.9911
112.1546,134.9883
113.9929,134.8505
113.9938,134.8505
113.9996,134.8505
Z" /> 
<path style="fill:#FFFFFF; fill-opacity:1.0000; stroke:none;fill-rule:evenodd;"
d="M 113.9775,132.3544
113.9851,132.3548
113.9860,132.3549
113.9938,132.3550
113.9938,132.3550
113.9996,132.3550
113.9996,132.3550
114.0096,132.3542
114.0143,132.3548
114.1420,132.3973
114.1488,132.4032
114.1500,132.4084
114.1500,132.5916
114.1466,132.5998
114.1420,132.6027
114.0033,132.6489
113.9996,132.6495
113.9938,132.6495
113.9929,132.6495
112.1546,132.5117
112.1466,132.5076
112.1438,132.4991
112.1479,132.4911
112.1546,132.4883
113.9586,132.3531
113.9603,132.3531
Z" /> 
<path style="fill:#FFFFFF; fill-opacity:1.0000; stroke:none;fill-rule:evenodd;"
d="M 114.0033,139.8511
114.1420,139.8973
114.1488,139.9032
114.1500,139.9084
114.1500,140.0916
114.1466,140.0998
114.1420,140.1027
114.0033,140.1489
113.9996,140.1495
113.9938,140.1495
113.9930,140.1495
112.1546,140.0117
112.1466,140.0076
112.1438,139.9991
112.1479,139.9911
112.1546,139.9883
113.9929,139.8505
113.9938,139.8505
113.9996,139.8505
Z" /> 
<path style="fill:#FFFFFF; fill-opacity:1.0000; stroke:none;fill-rule:evenodd;"
d="M 114.0033,136.8511
114.1420,136.8973
114.1488,136.9032
114.1500,136.9084
114.1500,137.0916
114.1466,137.0998
114.1420,137.1027
114.0143,137.1452
114.0096,137.1458
113.9996,137.1450
113.9996,137.1450
113.9938,137.1450
113.9931,137.1450
113.9860,137.1451
113.9851,137.1452
113.9775,137.1456
113.9604,137.1469
113.9586,137.1469
112.1546,137.0117
112.1466,137.0076
112.1438,136.9991
112.1479,136.9911
112.1546,136.9883
113.9929,136.8505
113.9938,136.8505
113.9996,136.8505
Z" /> 
<path style="fill:#FFFFFF; fill-opacity:1.0000; stroke:none;fill-rule:evenodd;"
d="M 114.0033,137.3511
114.1420,137.3973
114.1488,137.4032
114.1500,137.4084
114.1500,137.5916
114.1466,137.5998
114.1420,137.6027
114.0033,137.6489
113.9996,137.6495
113.9938,137.6495
113.9929,137.6495
112.1546,137.5117
112.1466,137.5076
112.1438,137.4991
112.1479,137.4911
112.1546,137.4883
113.9929,137.3505
113.9938,137.3505
113.9996,137.3505
Z" /> 
<path style="fill:#FFFFFF; fill-opacity:1.0000; stroke:none;fill-rule:evenodd;"
d="M 113.9776,135.8544
113.9852,135.8548
113.9861,135.8549
113.9938,135.8550
113.9938,135.8550
113.9996,135.8550
114.0096,135.8542
114.0143,135.8548
114.1420,135.8973
114.1488,135.9032
114.1500,135.9084
114.1500,136.0916
114.1466,136.0998
114.1420,136.1027
114.0143,136.1452
114.0096,136.1458
113.9996,136.1450
113.9996,136.1450
113.9938,136.1450
113.9931,136.1450
113.9860,136.1451
113.9851,136.1452
113.9775,136.1456
113.9604,136.1469
113.9586,136.1469
112.1546,136.0117
112.1466,136.0076
112.1438,135.9991
112.1479,135.9911
112.1546,135.9883
113.9586,135.8531
113.9604,135.8531
Z" /> 
<path style="fill:#FFFFFF; fill-opacity:1.0000; stroke:none;fill-rule:evenodd;"
d="M 114.0033,138.8511
114.1420,138.8973
114.1488,138.9032
114.1500,138.9084
114.1500,139.0916
114.1466,139.0998
114.1420,139.1027
114.0033,139.1489
113.9996,139.1495
113.9938,139.1495
113.9929,139.1495
112.1546,139.0117
112.1466,139.0076
112.1438,138.9991
112.1479,138.9911
112.1546,138.9883
113.9929,138.8505
113.9938,138.8505
113.9996,138.8505
Z" /> 
<path style="fill:#FFFFFF; fill-opacity:1.0000; stroke:none;fill-rule:evenodd;"
d="M 113.9776,140.3544
113.9852,140.3548
113.9861,140.3549
113.9938,140.3550
113.9938,140.3550
113.9996,140.3550
114.0096,140.3542
114.0143,140.3548
114.1420,140.3973
114.1488,140.4032
114.1500,140.4084
114.1500,140.5916
114.1466,140.5998
114.1420,140.6027
114.0143,140.6452
114.0096,140.6458
113.9996,140.6450
113.9996,140.6450
113.9938,140.6450
113.9931,140.6450
113.9860,140.6451
113.9851,140.6452
113.9775,140.6456
113.9603,140.6469
113.9586,140.6469
112.1546,140.5117
112.1466,140.5076
112.1438,140.4991
112.1479,140.4911
112.1546,140.4883
113.9586,140.3531
113.9604,140.3531
Z" /> 
<path style="fill:#FFFFFF; fill-opacity:1.0000; stroke:none;fill-rule:evenodd;"
d="M 113.9776,139.3544
113.9852,139.3548
113.9861,139.3549
113.9938,139.3550
113.9938,139.3550
113.9996,139.3550
114.0006,139.3549
114.0096,139.3542
114.0143,139.3548
114.1420,139.3973
114.1488,139.4032
114.1500,139.4084
114.1500,139.5916
114.1466,139.5998
114.1420,139.6027
114.0143,139.6452
114.0096,139.6458
113.9996,139.6450
113.9996,139.6450
113.9938,139.6450
113.9931,139.6450
113.9860,139.6451
113.9851,139.6452
113.9775,139.6456
113.9603,139.6469
113.9586,139.6469
112.1546,139.5117
112.1466,139.5076
112.1438,139.4991
112.1479,139.4911
112.1546,139.4883
113.9586,139.3531
113.9604,139.3531
Z" /> 
<path style="fill:#FFFFFF; fill-opacity:1.0000; stroke:none;fill-rule:evenodd;"
d="M 114.0033,135.3511
114.1420,135.3973
114.1488,135.4032
114.1500,135.4084
114.1500,135.5916
114.1466,135.5998
114.1420,135.6027
114.0033,135.6489
113.9996,135.6495
113.9938,135.6495
113.9930,135.6495
112.1546,135.5117
112.1466,135.5076
112.1438,135.4991
112.1479,135.4911
112.1546,135.4883
113.9929,135.3505
113.9938,135.3505
113.9996,135.3505
Z" /> 
<path style="fill:#FFFFFF; fill-opacity:1.0000; stroke:none;fill-rule:evenodd;"
d="M 114.0033,141.3511
114.1420,141.3973
114.1488,141.4032
114.1500,141.4084
114.1500,141.5916
114.1466,141.5998
114.1420,141.6027
114.0033,141.6489
113.9996,141.6495
113.9938,141.6495
113.9929,141.6495
112.1546,141.5117
112.1466,141.5076
112.1438,141.4991
112.1479,141.4911
112.1546,141.4883
113.9929,141.3505
113.9938,141.3505
113.9996,141.3505
Z" /> 
<path style="fill:#FFFFFF; fill-opacity:1.0000; stroke:none;fill-rule:evenodd;"
d="M 113.9776,137.8544
113.9852,137.8548
113.9861,137.8549
113.9938,137.8550
113.9938,137.8550
113.9996,137.8550
114.0006,137.8549
114.0096,137.8542
114.0143,137.8548
114.1420,137.8973
114.1488,137.9032
114.1500,137.9084
114.1500,138.0916
114.1466,138.0998
114.1420,138.1027
114.0033,138.1489
113.9996,138.1495
113.9938,138.1495
113.9929,138.1495
112.1546,138.0117
112.1466,138.0076
112.1438,137.9991
112.1479,137.9911
112.1546,137.9883
113.9586,137.8531
113.9604,137.8531
Z" /> 
<path style="fill:#FFFFFF; fill-opacity:1.0000; stroke:none;fill-rule:evenodd;"
d="M 114.0033,140.8511
114.1420,140.8973
114.1488,140.9032
114.1500,140.9084
114.1500,141.0916
114.1466,141.0998
114.1420,141.1027
114.0143,141.1452
114.0096,141.1458
113.9996,141.1450
113.9996,141.1450
113.9938,141.1450
113.9931,141.1450
113.9860,141.1451
113.9851,141.1452
113.9775,141.1456
113.9604,141.1469
113.9586,141.1469
112.1546,141.0117
112.1466,141.0076
112.1438,140.9991
112.1479,140.9911
112.1546,140.9883
113.9929,140.8505
113.9938,140.8505
113.9996,140.8505
Z" /> 
<path style="fill:#FFFFFF; fill-opacity:1.0000; stroke:none;fill-rule:evenodd;"
d="M 113.9776,138.3544
113.9852,138.3548
113.9860,138.3549
113.9938,138.3550
113.9938,138.3550
113.9996,138.3550
114.0096,138.3542
114.0143,138.3548
114.1420,138.3973
114.1488,138.4032
114.1500,138.4084
114.1500,138.5916
114.1466,138.5998
114.1420,138.6027
114.0143,138.6452
114.0096,138.6458
113.9996,138.6450
113.9996,138.6450
113.9938,138.6450
113.9931,138.6450
113.9860,138.6451
113.9851,138.6452
113.9775,138.6456
113.9604,138.6469
113.9586,138.6469
112.1546,138.5117
112.1466,138.5076
112.1438,138.4991
112.1479,138.4911
112.1546,138.4883
113.9586,138.3531
113.9603,138.3531
Z" /> 
<path style="fill:#FFFFFF; fill-opacity:1.0000; stroke:none;fill-rule:evenodd;"
d="M 114.0033,136.3511
114.1420,136.3973
114.1488,136.4032
114.1500,136.4084
114.1500,136.5916
114.1466,136.5998
114.1420,136.6027
114.0143,136.6452
114.0096,136.6458
113.9996,136.6450
113.9996,136.6450
113.9938,136.6450
113.9931,136.6450
113.9860,136.6451
113.9851,136.6452
113.9775,136.6456
113.9604,136.6469
113.9586,136.6469
112.1546,136.5117
112.1466,136.5076
112.1438,136.4991
112.1479,136.4911
112.1546,136.4883
113.9929,136.3505
113.9938,136.3505
113.9996,136.3505
Z" /> 
<path style="fill:#FFFFFF; fill-opacity:1.0000; stroke:none;fill-rule:evenodd;"
d="M 114.0035,131.3508
114.1402,131.3821
114.1475,131.3873
114.1493,131.3934
114.1507,131.5757
114.1473,131.5840
114.1427,131.5869
114.0022,131.6345
113.9977,131.6351
112.1627,131.5111
112.1547,131.5071
112.1519,131.4986
112.1558,131.4906
112.1627,131.4877
113.9929,131.3505
113.9938,131.3505
114.0009,131.3505
Z" /> 
<path style="fill:#FFFFFF; fill-opacity:1.0000; stroke:none;fill-rule:evenodd;"
d="M 114.0033,131.8511
114.1420,131.8973
114.1488,131.9032
114.1500,131.9084
114.1500,132.0916
114.1466,132.0998
114.1420,132.1027
114.0033,132.1489
113.9996,132.1495
113.9938,132.1495
113.9929,132.1495
112.1546,132.0117
112.1466,132.0076
112.1439,131.9991
112.1479,131.9911
112.1546,131.9883
113.8045,131.8647
113.9930,131.8505
113.9939,131.8505
113.9996,131.8505
Z" /> 
</g> 
</svg>
